<svg width="82" height="82" viewBox="0 0 82 82" fill="none" xmlns="http://www.w3.org/2000/svg">
<circle cx="41" cy="41" r="41" fill="#F7EFDA"/>
<path d="M65.375 40.9999C65.3674 46.9572 63.1816 52.7062 59.2294 57.1639C55.2773 61.6215 49.8315 64.4802 43.918 65.2014C43.7863 65.2164 43.653 65.2032 43.5268 65.1628C43.4005 65.1224 43.2843 65.0557 43.1858 64.9671C43.0872 64.8785 43.0086 64.7701 42.955 64.6489C42.9014 64.5276 42.8742 64.3965 42.875 64.2639V46.6249H48.5C48.7571 46.6254 49.0115 46.5732 49.2474 46.4713C49.4834 46.3694 49.6959 46.22 49.8718 46.0325C50.0476 45.8451 50.183 45.6234 50.2696 45.3814C50.3562 45.1394 50.392 44.8821 50.375 44.6257C50.3336 44.1435 50.1112 43.6949 49.7524 43.3701C49.3937 43.0453 48.9253 42.8684 48.4414 42.8749H42.875V37.2499C42.875 36.2553 43.2701 35.3015 43.9734 34.5982C44.6766 33.895 45.6305 33.4999 46.625 33.4999H50.375C50.6321 33.5004 50.8865 33.4482 51.1224 33.3463C51.3584 33.2444 51.5709 33.095 51.7468 32.9075C51.9226 32.7201 52.058 32.4984 52.1446 32.2564C52.2312 32.0144 52.267 31.7571 52.25 31.5007C52.2085 31.0177 51.9854 30.5684 51.6257 30.2435C51.266 29.9186 50.7964 29.7422 50.3117 29.7499H46.625C44.6359 29.7499 42.7282 30.5401 41.3217 31.9466C39.9152 33.3531 39.125 35.2608 39.125 37.2499V42.8749H33.5C33.243 42.8743 32.9886 42.9266 32.7526 43.0285C32.5166 43.1304 32.3041 43.2797 32.1283 43.4672C31.9524 43.6547 31.817 43.8763 31.7304 44.1184C31.6439 44.3604 31.608 44.6176 31.625 44.8741C31.6665 45.3571 31.8896 45.8063 32.2493 46.1313C32.609 46.4562 33.0786 46.6326 33.5633 46.6249H39.125V64.2686C39.1258 64.4009 39.0986 64.5319 39.0452 64.6529C38.9918 64.7739 38.9133 64.8823 38.815 64.9708C38.7167 65.0594 38.6008 65.1261 38.4749 65.1667C38.349 65.2072 38.2159 65.2207 38.0844 65.2061C32.0126 64.4667 26.4396 61.4746 22.4686 56.8222C18.4976 52.1698 16.418 46.1961 16.6414 40.0835C17.1102 27.4272 27.3617 17.1382 40.0274 16.646C43.3065 16.519 46.5775 17.0546 49.6449 18.2209C52.7122 19.3872 55.5128 21.1601 57.8791 23.4337C60.2455 25.7073 62.129 28.4348 63.4169 31.453C64.7049 34.4713 65.3709 37.7183 65.375 40.9999Z" fill="#738942"/>
</svg>
