<svg width="82" height="82" viewBox="0 0 82 82" fill="none" xmlns="http://www.w3.org/2000/svg">
<circle cx="41" cy="41" r="41" fill="#F7EFDA"/>
<path d="M58.875 36.125V37.75C58.8716 40.4995 57.8735 43.155 56.0649 45.2259C54.2564 47.2969 51.7596 48.6436 49.0356 49.0174C50.1475 50.4402 50.751 52.1943 50.75 54V62.125C50.75 62.556 50.5788 62.9693 50.274 63.2741C49.9693 63.5788 49.556 63.75 49.125 63.75H36.125C35.694 63.75 35.2807 63.5788 34.976 63.2741C34.6712 62.9693 34.5 62.556 34.5 62.125V58.875H29.625C27.4701 58.875 25.4035 58.019 23.8798 56.4953C22.356 54.9715 21.5 52.9049 21.5 50.75C21.5 49.4571 20.9864 48.2171 20.0721 47.3029C19.1579 46.3886 17.9179 45.875 16.625 45.875C16.194 45.875 15.7807 45.7038 15.476 45.3991C15.1712 45.0943 15 44.681 15 44.25C15 43.8191 15.1712 43.4057 15.476 43.101C15.7807 42.7962 16.194 42.625 16.625 42.625C17.692 42.625 18.7485 42.8352 19.7343 43.2435C20.7201 43.6518 21.6158 44.2503 22.3702 45.0048C23.1247 45.7593 23.7232 46.655 24.1315 47.6407C24.5398 48.6265 24.75 49.683 24.75 50.75C24.75 52.043 25.2636 53.2829 26.1779 54.1972C27.0921 55.1114 28.3321 55.625 29.625 55.625H34.5V54C34.499 52.1943 35.1025 50.4402 36.2144 49.0174C33.4904 48.6436 30.9936 47.2969 29.1851 45.2259C27.3765 43.155 26.3784 40.4995 26.375 37.75V36.125C26.3952 34.1055 26.933 32.1249 27.937 30.3725C27.4403 28.7703 27.281 27.0825 27.4691 25.4156C27.6572 23.7487 28.1886 22.1388 29.0298 20.6875C29.1725 20.4404 29.3777 20.2353 29.6248 20.0926C29.8719 19.95 30.1522 19.875 30.4375 19.875C32.3302 19.8711 34.1977 20.3098 35.8906 21.1563C37.5835 22.0028 39.055 23.2335 40.1875 24.75H45.0625C46.195 23.2335 47.6665 22.0028 49.3594 21.1563C51.0523 20.3098 52.9198 19.8711 54.8125 19.875C55.0978 19.875 55.3781 19.95 55.6252 20.0926C55.8723 20.2353 56.0775 20.4404 56.2202 20.6875C57.0615 22.1388 57.5929 23.7487 57.7806 25.4157C57.9684 27.0827 57.8084 28.7705 57.3109 30.3725C58.3168 32.1242 58.8554 34.1052 58.875 36.125Z" fill="#738942"/>
</svg>
