<svg width="82" height="82" viewBox="0 0 82 82" fill="none" xmlns="http://www.w3.org/2000/svg">
<circle cx="41" cy="41" r="41" fill="#F7EFDA"/>
<path d="M52.25 16.625H29.75C26.2702 16.6287 22.9339 18.0127 20.4733 20.4733C18.0127 22.9339 16.6287 26.2702 16.625 29.75V52.25C16.6287 55.7298 18.0127 59.0661 20.4733 61.5267C22.9339 63.9873 26.2702 65.3713 29.75 65.375H52.25C55.7298 65.3713 59.0661 63.9873 61.5267 61.5267C63.9873 59.0661 65.3713 55.7298 65.375 52.25V29.75C65.3713 26.2702 63.9873 22.9339 61.5267 20.4733C59.0661 18.0127 55.7298 16.6287 52.25 16.625ZM41 52.25C38.775 52.25 36.5999 51.5902 34.7498 50.354C32.8998 49.1179 31.4578 47.3609 30.6064 45.3052C29.7549 43.2495 29.5321 40.9875 29.9662 38.8052C30.4003 36.6229 31.4717 34.6184 33.045 33.045C34.6184 31.4717 36.6229 30.4003 38.8052 29.9662C40.9875 29.5321 43.2495 29.7549 45.3052 30.6064C47.3609 31.4578 49.1179 32.8998 50.354 34.7498C51.5902 36.5999 52.25 38.775 52.25 41C52.2469 43.9827 51.0606 46.8424 48.9515 48.9515C46.8424 51.0606 43.9827 52.2469 41 52.25ZM55.0625 29.75C54.5062 29.75 53.9625 29.5851 53.5 29.276C53.0374 28.967 52.677 28.5277 52.4641 28.0138C52.2512 27.4999 52.1955 26.9344 52.304 26.3888C52.4126 25.8432 52.6804 25.3421 53.0738 24.9488C53.4671 24.5554 53.9682 24.2876 54.5138 24.179C55.0594 24.0705 55.6249 24.1262 56.1388 24.3391C56.6527 24.552 57.092 24.9124 57.401 25.375C57.71 25.8375 57.875 26.3812 57.875 26.9375C57.875 27.6834 57.5787 28.3988 57.0512 28.9262C56.5238 29.4537 55.8084 29.75 55.0625 29.75ZM48.5 41C48.5 42.4834 48.0601 43.9334 47.236 45.1668C46.4119 46.4001 45.2406 47.3614 43.8701 47.9291C42.4997 48.4968 40.9917 48.6453 39.5368 48.3559C38.082 48.0665 36.7456 47.3522 35.6967 46.3033C34.6478 45.2544 33.9335 43.918 33.6441 42.4632C33.3547 41.0083 33.5032 39.5003 34.0709 38.1299C34.6386 36.7594 35.5999 35.5881 36.8332 34.764C38.0666 33.9399 39.5166 33.5 41 33.5C42.9891 33.5 44.8968 34.2902 46.3033 35.6967C47.7098 37.1032 48.5 39.0109 48.5 41Z" fill="#738942"/>
</svg>
