<svg width="82" height="82" viewBox="0 0 82 82" fill="none" xmlns="http://www.w3.org/2000/svg">
<circle cx="41" cy="41" r="41" fill="#F7EFDA"/>
<path d="M61.3907 62.5273C61.2292 62.8214 60.9919 63.0668 60.7033 63.2379C60.4147 63.4089 60.0855 63.4995 59.7501 63.5H48.5001C48.1845 63.4999 47.8741 63.4202 47.5975 63.2682C47.321 63.1162 47.0873 62.8968 46.918 62.6305L37.4282 47.7172L23.6376 62.8859C23.3014 63.2471 22.8364 63.4611 22.3434 63.4817C21.8505 63.5023 21.3693 63.3278 21.0041 62.996C20.639 62.6641 20.4194 62.2018 20.3929 61.7091C20.3664 61.2164 20.5351 60.7331 20.8626 60.3641L35.3399 44.4266L20.668 21.3828C20.4873 21.0993 20.3862 20.7725 20.3752 20.4365C20.3641 20.1005 20.4437 19.7677 20.6054 19.4729C20.7671 19.1782 21.0051 18.9324 21.2945 18.7612C21.5838 18.5901 21.9139 18.4998 22.2501 18.5H33.5001C33.8156 18.5001 34.1261 18.5798 34.4026 18.7318C34.6792 18.8838 34.9129 19.1032 35.0821 19.3695L44.5719 34.2828L58.3626 19.1141C58.6987 18.7529 59.1637 18.5389 59.6567 18.5183C60.1496 18.4977 60.6308 18.6722 60.996 19.004C61.3611 19.3359 61.5807 19.7982 61.6072 20.2909C61.6337 20.7836 61.465 21.2669 61.1376 21.6359L46.6602 37.5617L61.3321 60.6195C61.5118 60.9032 61.612 61.2298 61.6223 61.5654C61.6326 61.901 61.5526 62.2332 61.3907 62.5273Z" fill="#738942"/>
</svg>
