<svg width="283" height="55" viewBox="0 0 283 55" fill="none" xmlns="http://www.w3.org/2000/svg">
<path d="M30.8935 45.6457C28.4918 45.8515 26.1245 45.7486 23.7915 45.3369C21.4584 44.9252 19.2626 44.1704 17.204 43.0725C15.1455 41.9403 13.3442 40.5507 11.8003 38.9039C10.2564 37.2227 9.05557 35.1642 8.19783 32.7282C7.37441 30.2579 7.01416 27.5475 7.11708 24.5969C7.22001 21.9207 7.9062 19.3304 9.17565 16.8258C10.4794 14.3212 12.1263 12.194 14.1162 10.4442C16.1061 8.69446 18.3706 7.30493 20.9095 6.27565C23.4484 5.21206 26.0044 4.68026 28.5776 4.68026C31.391 4.68026 33.9299 5.28068 36.1943 6.48151C38.493 7.68234 40.2257 9.38065 41.3922 11.5764C42.593 13.7723 43.0219 16.2082 42.6788 18.8844C42.5415 20.0509 42.1641 21.2174 41.5466 22.3839C40.9633 23.5161 40.1913 24.5282 39.2307 25.4203C38.3043 26.3123 37.2922 27.0328 36.1943 27.5818C34.8905 28.2337 33.5182 28.6282 32.0772 28.7655C30.6362 28.8684 29.2123 28.6625 27.8057 28.1479C26.4333 27.6332 25.2668 26.827 24.3061 25.7291C23.5513 24.837 22.9852 23.7048 22.6078 22.3324C22.2304 20.9258 22.2132 19.4333 22.5563 17.8551C22.9337 16.2425 23.74 14.9216 24.9751 13.8923C25.3182 15.0589 25.8329 16.0538 26.519 16.8773C27.2052 17.7007 27.96 18.2839 28.7835 18.627C29.6069 18.9701 30.4818 19.1931 31.4081 19.2961C32.3688 19.3647 33.278 19.2446 34.1357 18.9358C35.4738 18.5241 36.4516 17.8722 37.0692 16.9802C37.7211 16.0538 38.0299 15.0417 37.9955 13.9438C37.9612 11.9882 37.052 10.3585 35.2679 9.05471C33.4839 7.71664 31.2366 7.21916 28.5261 7.56225C26.1931 7.87103 24.1345 8.96894 22.3505 10.856C20.6007 12.743 19.3141 15.0074 18.4907 17.6492C17.6672 20.2567 17.2727 23.0015 17.307 25.8835C17.3756 29.0399 17.9074 31.9048 18.9024 34.478C19.8973 37.0169 21.4241 39.0754 23.4827 40.6537C25.5412 42.2319 27.9944 43.021 30.842 43.021C32.4203 43.021 33.8613 42.6608 35.165 41.9403C36.4688 41.2198 37.5152 40.2934 38.3043 39.1612C39.1278 37.9947 39.7453 36.7252 40.157 35.3529C40.5687 33.9462 40.7746 32.5223 40.7746 31.0813C41.8725 30.6353 42.7989 31.0813 43.5537 32.4194C44.5143 34.1006 44.6173 36.0219 43.8625 38.1834C42.6959 41.4428 39.8826 43.69 35.4223 44.9252C34.05 45.2683 32.5403 45.5084 30.8935 45.6457ZM63.4859 40.7566C63.5546 38.4922 62.4738 35.1985 60.2437 30.8755C58.6655 27.8906 57.0872 25.5747 55.509 23.9278C53.9308 22.281 52.6613 21.8693 51.7007 22.6927C50.9116 23.3789 50.7057 24.4768 51.0831 25.9864C51.4948 27.496 52.4212 28.6625 53.8622 29.486C53.7249 30.4123 53.3475 31.1843 52.73 31.8018C52.1467 32.4194 51.4434 32.8311 50.6199 33.037C48.9731 33.4144 47.6007 33.037 46.5028 31.9048C45.4049 30.7382 44.9589 29.2801 45.1647 27.5303C45.302 26.2609 45.8166 25.0772 46.7087 23.9793C47.635 22.8814 48.8187 21.9379 50.2597 21.1488C52.5584 19.8793 54.8057 19.2789 57.0015 19.3475C59.2316 19.4161 61.3416 20.1023 63.3316 21.4061C65.3558 22.6755 66.9512 24.4253 68.1177 26.6554C68.6324 27.6504 69.0098 28.7311 69.2499 29.8977C69.5244 31.0642 69.6102 32.2307 69.5072 33.3972C69.4386 34.5637 69.1813 35.6616 68.7353 36.6909C68.3236 37.6859 67.6717 38.5608 66.7797 39.3156C65.8876 40.0361 64.7897 40.5164 63.4859 40.7566ZM47.1718 37.8231C46.2798 36.1077 45.748 34.2721 45.5764 32.3165C47.0517 34.1692 48.8015 34.8725 50.8258 34.4265C52.2668 34.0834 53.399 33.2257 54.2224 31.8533C54.4969 32.4023 54.7885 32.9512 55.0973 33.5002C56.2295 35.6616 57.4132 37.3943 58.6483 38.698C59.8835 40.0018 61.2387 40.911 62.714 41.4256C64.2236 41.9403 65.8705 41.8373 67.6545 41.1168C69.4386 40.362 71.3085 38.9897 73.2641 36.9997C76.5235 33.7403 79.234 30.0178 81.3955 25.832C81.5327 25.6261 81.7557 25.2144 82.0645 24.5969C82.3733 23.9793 82.5963 23.5333 82.7335 23.2588C82.9051 22.95 83.1452 22.5726 83.454 22.1266C83.7628 21.6463 84.0887 21.2517 84.4318 20.9429C84.7749 20.6341 85.1695 20.3425 85.6155 20.068C86.2331 19.6906 86.9364 19.4505 87.7255 19.3475C88.5147 19.2103 89.3209 19.2618 90.1444 19.5019C91.0021 19.7078 91.774 20.1023 92.4602 20.6856C93.1464 21.2345 93.7125 22.0923 94.1586 23.2588C94.6046 24.391 94.8276 25.7462 94.8276 27.3245C94.8276 27.5646 94.8276 28.2851 94.8276 29.486C94.8276 30.6868 94.8276 31.6303 94.8276 32.3165C94.8276 32.9684 94.8276 33.9119 94.8276 35.147C94.8619 36.3478 94.9134 37.3771 94.982 38.2349C95.0506 39.0583 95.1192 39.9503 95.1878 40.911C95.2908 41.8373 95.428 42.6608 95.5995 43.3813C95.7711 44.0675 95.9598 44.6164 96.1656 45.0281H84.9465C85.3582 44.4105 85.7184 42.5064 86.0272 39.3156C86.336 36.0905 86.3703 32.9512 86.1302 29.8977C85.89 26.8098 85.3239 25.2316 84.4318 25.163C83.8486 25.1287 83.2825 25.5918 82.7335 26.5525C82.562 26.8956 82.3904 27.2215 82.2189 27.5303C81.7385 28.6625 81.2582 30.2751 80.7779 32.3679C80.7093 32.6424 80.6406 32.9169 80.572 33.1914C80.572 38.921 81.0181 42.8666 81.9101 45.0281H70.2792C70.7252 43.9988 71.0683 42.6436 71.3085 40.9625C69.3185 42.3348 67.2085 43.3813 64.9784 44.1018C62.7483 44.8223 60.5182 45.1654 58.2881 45.131C56.0923 45.0967 53.9994 44.462 52.0095 43.2269C50.0538 41.9917 48.4413 40.1905 47.1718 37.8231ZM71.7717 36.3821C71.8746 33.4315 71.7717 30.5324 71.4629 27.6847C71.1541 24.837 70.7595 22.9329 70.2792 21.9722C73.8474 21.6291 77.2783 20.8743 80.572 19.7078V24.2881C77.6214 29.8805 74.688 33.9119 71.7717 36.3821ZM96.8753 19.7078C98.728 19.3647 100.684 18.7986 102.742 18.0095C104.835 17.186 106.396 16.3626 107.425 15.5392V19.7078H111.954V21.4576C111.44 21.4576 110.668 21.4576 109.638 21.4576C108.609 21.4576 107.854 21.4576 107.374 21.4576C107.408 30.824 107.443 36.4165 107.477 38.2349C107.477 40.0533 107.631 41.4256 107.94 42.352C108.283 43.2783 108.832 43.6729 109.587 43.5357C110.616 43.1926 111.011 42.0432 110.771 40.0876C110.53 38.0976 109.844 36.4336 108.712 35.0955C110.702 34.1006 112.212 34.3407 113.241 35.816C114.202 37.1884 114.356 38.8353 113.704 40.7566C112.949 43.0553 111.32 44.5306 108.815 45.1825C108.026 45.3884 107.185 45.5084 106.293 45.5428C100.975 45.5428 98.3163 42.5921 98.3163 36.6909C98.3163 35.7646 98.3163 34.5294 98.3163 32.9855C98.3506 31.4073 98.3506 30.2922 98.3163 29.6403C98.3163 28.9885 98.2991 28.1136 98.2648 27.0157C98.2648 25.9178 98.2305 25.1115 98.1619 24.5969C98.1276 24.0822 98.059 23.4818 97.956 22.7956C97.8531 22.1094 97.7159 21.5433 97.5443 21.0973C97.3728 20.617 97.1498 20.1538 96.8753 19.7078ZM128.617 32.6767C128.651 31.2357 128.668 30.2065 128.668 29.5889C128.6 29.6232 128.411 29.7947 128.102 30.1035C127.828 30.4123 127.639 30.6182 127.536 30.7211C127.468 30.7897 127.296 30.9784 127.022 31.2872C126.781 31.5617 126.61 31.7847 126.507 31.9562C126.404 32.0935 126.232 32.3165 125.992 32.6253C125.752 32.8997 125.581 33.1399 125.478 33.3458C125.375 33.5516 125.238 33.8261 125.066 34.1692C124.894 34.478 124.757 34.7696 124.654 35.0441C124.551 35.3186 124.448 35.6273 124.345 35.9704C124.277 36.3135 124.208 36.6566 124.14 36.9997C124.002 37.8231 124.02 38.475 124.191 38.9554C124.363 39.4357 124.637 39.6758 125.014 39.6758C125.769 39.6072 126.421 38.9725 126.97 37.7717C127.553 36.5365 128.102 34.8382 128.617 32.6767ZM128.617 36.9483C128.274 38.1491 127.914 39.1955 127.536 40.0876C127.193 40.9453 126.713 41.8373 126.095 42.7637C125.512 43.69 124.757 44.4105 123.831 44.9252C122.939 45.4055 121.892 45.6457 120.692 45.6457C118.77 45.6457 117.243 44.9767 116.111 43.6386C115.013 42.2662 114.516 40.6537 114.619 38.801C114.756 36.9139 115.494 35.2842 116.832 33.9119C117.792 32.9169 118.993 32.0592 120.434 31.3387C121.875 30.5839 123.145 30.0349 124.243 29.6918C125.375 29.3487 126.421 28.8341 127.382 28.1479C128.377 27.4274 129.012 26.5182 129.286 25.4203C129.56 24.2881 129.509 23.2416 129.132 22.281C128.789 21.286 128.034 20.7371 126.867 20.6341C126.284 20.5998 125.701 20.7542 125.117 21.0973C124.568 21.4404 124.14 21.8864 123.831 22.4354C123.556 22.95 123.505 23.6019 123.676 24.391C123.848 25.1458 124.311 25.9006 125.066 26.6554C124.345 27.5475 123.368 28.1479 122.133 28.4567C120.897 28.7312 119.714 28.5939 118.581 28.045C117.484 27.496 116.78 26.5697 116.471 25.2659C116.231 23.4132 117.346 21.8178 119.817 20.4797C122.527 19.0387 125.529 18.5413 128.823 18.9873C132.768 19.4676 135.427 21.2345 136.8 24.2881C137.383 25.5918 137.675 27.0843 137.675 28.7655L137.726 38.2349C137.726 40.0533 137.898 41.4256 138.241 42.352C138.584 43.2783 139.133 43.6729 139.888 43.5357C140.883 43.1926 141.26 42.0432 141.02 40.0876C140.814 38.0976 140.145 36.4336 139.013 35.0955C140.968 34.1006 142.478 34.3407 143.542 35.816C144.468 37.1884 144.605 38.8353 143.953 40.7566C143.198 43.0553 141.586 44.5306 139.116 45.1825C138.327 45.4227 137.469 45.5428 136.542 45.5428C131.327 45.5428 128.686 42.6779 128.617 36.9483ZM151.055 22.6412C150.128 22.8471 149.785 23.9278 150.025 25.8835C150.334 28.5939 151.483 31.0813 153.473 33.3458C156.767 37.0512 161.004 38.3035 166.185 37.1026L168.501 36.3821C168.398 37.2399 168.175 38.0633 167.832 38.8524C167.523 39.6072 167.128 40.3106 166.648 40.9625C166.168 41.6143 165.602 42.2147 164.95 42.7637C164.332 43.3126 163.629 43.793 162.84 44.2047C162.085 44.6164 161.279 44.9423 160.421 45.1825C156.99 46.1089 153.782 45.6628 150.797 43.8444C149.322 42.9524 148.087 41.8373 147.092 40.4993C146.131 39.1269 145.479 37.6859 145.136 36.1763C144.827 34.6667 144.707 33.1228 144.776 31.5445C144.845 29.932 145.205 28.4052 145.857 26.9642C146.543 25.5232 147.366 24.2366 148.327 23.1044C149.322 21.9379 150.574 21.0287 152.084 20.3768C153.593 19.6906 155.206 19.3475 156.921 19.3475C159.426 19.3475 161.107 20.1881 161.965 21.8693C162.823 23.5504 162.805 25.2487 161.913 26.9642C161.056 28.6454 159.752 29.486 158.002 29.486C157.522 27.5989 156.493 25.9349 154.914 24.4939C153.37 23.0529 152.084 22.4354 151.055 22.6412ZM168.392 19.7078C170.245 19.3647 172.201 18.7986 174.259 18.0095C176.352 17.186 177.913 16.3626 178.942 15.5392V19.7078H183.471V21.4576C182.957 21.4576 182.185 21.4576 181.155 21.4576C180.126 21.4576 179.371 21.4576 178.891 21.4576C178.925 30.824 178.96 36.4165 178.994 38.2349C178.994 40.0533 179.148 41.4256 179.457 42.352C179.8 43.2783 180.349 43.6729 181.104 43.5357C182.133 43.1926 182.528 42.0432 182.288 40.0876C182.047 38.0976 181.361 36.4336 180.229 35.0955C182.219 34.1006 183.729 34.3407 184.758 35.816C185.719 37.1884 185.873 38.8353 185.221 40.7566C184.466 43.0553 182.837 44.5306 180.332 45.1825C179.543 45.3884 178.702 45.5084 177.81 45.5428C172.492 45.5428 169.833 42.5921 169.833 36.6909C169.833 35.7646 169.833 34.5294 169.833 32.9855C169.868 31.4073 169.868 30.2922 169.833 29.6403C169.833 28.9885 169.816 28.1136 169.782 27.0157C169.782 25.9178 169.748 25.1115 169.679 24.5969C169.645 24.0822 169.576 23.4818 169.473 22.7956C169.37 22.1094 169.233 21.5433 169.061 21.0973C168.89 20.617 168.667 20.1538 168.392 19.7078ZM229.684 30.824L239.102 8.23128H250.373C249.721 9.63797 249.292 13.1375 249.086 18.73C248.914 24.2881 248.949 29.7776 249.189 35.1985C249.463 40.585 249.858 43.8616 250.373 45.0281H237.455C238.725 42.5235 239.273 35.4043 239.102 23.6705V12.5543L225.515 45.0281H223.766L215.634 16.2597C215.394 15.5735 215.205 15.0589 215.068 14.7158C214.965 14.3727 214.725 13.8409 214.348 13.1204C214.005 12.3656 213.644 11.7995 213.267 11.4221C212.89 11.0447 212.392 10.7359 211.775 10.4957C211.157 10.2212 210.488 10.1526 209.767 10.2898C208.532 10.5986 207.589 11.4049 206.937 12.7087C206.319 13.9781 206.113 15.4191 206.319 17.0316C206.559 19.0902 207.434 20.84 208.944 22.281C210.454 23.722 212.529 24.4082 215.171 24.3395C214.142 25.9178 212.684 27.0157 210.797 27.6332C208.91 28.2508 207.074 28.3881 205.29 28.045C203.506 27.6676 201.911 26.8441 200.504 25.5747C199.132 24.2709 198.36 22.6755 198.188 20.7885C198.016 18.9701 198.377 17.1346 199.269 15.2819C200.161 13.3948 201.379 11.9539 202.923 10.9589C204.192 10.1011 205.685 9.46642 207.4 9.05471C209.15 8.60869 210.865 8.38568 212.546 8.38568C214.228 8.38568 216.029 8.38568 217.95 8.38568C219.906 8.38568 221.741 8.38568 223.457 8.38568L229.684 30.824ZM215.943 44.9767L206.474 45.0281C209.116 43.7244 210.436 40.9968 210.436 36.8453V29.5889C211.02 29.383 211.586 29.1429 212.135 28.8684V36.8453C212.135 38.2177 212.289 39.4528 212.598 40.5507C212.907 41.6486 213.336 42.5578 213.885 43.2783C214.468 43.9988 215.154 44.5649 215.943 44.9767ZM275.299 36.3821C275.196 37.2399 274.973 38.0633 274.63 38.8524C274.321 39.6072 273.927 40.3106 273.446 40.9625C272.966 41.6143 272.4 42.2147 271.748 42.7637C271.13 43.3126 270.427 43.793 269.638 44.2047C268.883 44.6164 268.077 44.9423 267.219 45.1825C263.788 46.1089 260.58 45.6628 257.595 43.8444C255.88 42.8152 254.507 41.4771 253.478 39.8302C252.483 38.1491 251.866 36.4165 251.625 34.6324C251.42 32.8483 251.54 31.047 251.986 29.2286C252.432 27.3759 253.152 25.7291 254.147 24.2881C255.176 22.8128 256.532 21.6291 258.213 20.7371C259.894 19.8107 261.73 19.3475 263.719 19.3475C266.807 19.3475 269.466 20.4454 271.696 22.6412C273.927 24.837 275.179 27.5646 275.453 30.824H258.47C259.328 32.5052 260.529 33.929 262.073 35.0955C263.651 36.2278 265.572 36.9826 267.837 37.36C270.101 37.7374 272.588 37.4114 275.299 36.3821ZM257.853 22.6412C257.201 22.7785 256.84 23.4475 256.772 24.6483C256.703 25.8149 257.012 27.2902 257.698 29.0742H264.646C263.994 27.1872 262.948 25.5918 261.507 24.2881C260.066 22.9843 258.848 22.4354 257.853 22.6412Z" fill="#738942"/>
<mask id="mask0_172_156" style="mask-type:luminance" maskUnits="userSpaceOnUse" x="0" y="0" width="13" height="22">
<path d="M0 0H12.7648V21.9597H0V0Z" fill="white"/>
</mask>
<g mask="url(#mask0_172_156)">
<path d="M9.97566 11.4688L12.7652 10.9799L9.97566 10.491C8.22751 10.1843 6.84499 7.80666 6.66696 4.79974L6.38224 0.00146484L6.09804 4.79923C5.92 7.80615 4.53749 10.1843 2.78934 10.4905L-0.000671387 10.9799L2.78883 11.4688C4.53698 11.7755 5.91962 14.1531 6.09753 17.16L6.38174 21.9578L6.66594 17.1595C6.84499 14.1531 8.22713 11.7755 9.97566 11.4688Z" fill="#738942"/>
</g>
<mask id="mask1_172_156" style="mask-type:luminance" maskUnits="userSpaceOnUse" x="182" y="22" width="12" height="20">
<path d="M182.434 22.8042H193.235V41.3854H182.434V22.8042Z" fill="white"/>
</mask>
<g mask="url(#mask1_172_156)">
<path d="M190.876 32.5073L193.236 32.0936L190.876 31.68C189.396 31.4204 188.227 29.4086 188.076 26.8643L187.835 22.8042L187.595 26.8638C187.444 29.4082 186.274 31.4204 184.795 31.6795L182.434 32.0936L184.794 32.5073C186.274 32.7669 187.444 34.7787 187.594 37.323L187.835 41.3826L188.075 37.3226C188.227 34.7787 189.396 32.7669 190.876 32.5073Z" fill="#738942"/>
</g>
<mask id="mask2_172_156" style="mask-type:luminance" maskUnits="userSpaceOnUse" x="271" y="11" width="12" height="20">
<path d="M271.962 11.8245H282.763V30.4057H271.962V11.8245Z" fill="white"/>
</mask>
<g mask="url(#mask2_172_156)">
<path d="M280.403 21.5276L282.764 21.1139L280.403 20.7002C278.924 20.4407 277.754 18.4289 277.604 15.8845L277.363 11.8245L277.122 15.8841C276.972 18.4284 275.802 20.4407 274.323 20.6998L271.962 21.1139L274.322 21.5276C275.801 21.7871 276.971 23.7989 277.122 26.3433L277.362 30.4029L277.603 26.3428C277.754 23.7989 278.924 21.7871 280.403 21.5276Z" fill="#738942"/>
</g>
<mask id="mask3_172_156" style="mask-type:luminance" maskUnits="userSpaceOnUse" x="279" y="11" width="4" height="7">
<path d="M279.563 11.8245H283V17.7367H279.563V11.8245Z" fill="white"/>
</mask>
<g mask="url(#mask3_172_156)">
<path d="M282.249 14.9118L283 14.7802L282.249 14.6486C281.779 14.566 281.406 13.9259 281.358 13.1163L281.282 11.8245L281.205 13.1162C281.157 13.9257 280.785 14.566 280.315 14.6484L279.563 14.7802L280.314 14.9118C280.785 14.9944 281.157 15.6345 281.205 16.4441L281.282 17.7358L281.358 16.4439C281.406 15.6345 281.779 14.9944 282.249 14.9118Z" fill="#738942"/>
</g>
<mask id="mask4_172_156" style="mask-type:luminance" maskUnits="userSpaceOnUse" x="0" y="2" width="5" height="7">
<path d="M0.844604 2.53369H4.28128V8.44591H0.844604V2.53369Z" fill="white"/>
</mask>
<g mask="url(#mask4_172_156)">
<path d="M3.53054 5.62104L4.28156 5.48942L3.53054 5.3578C3.05988 5.27521 2.68767 4.63509 2.63973 3.82553L2.56308 2.53369L2.48657 3.8254C2.43863 4.63495 2.06642 5.27521 1.59576 5.35766L0.844604 5.48942L1.59562 5.62104C2.06628 5.70363 2.43853 6.34375 2.48643 7.15331L2.56294 8.44501L2.63946 7.15317C2.68767 6.34375 3.05978 5.70363 3.53054 5.62104Z" fill="#738942"/>
</g>
</svg>
