<svg width="736" height="95" viewBox="0 0 736 95" fill="none" xmlns="http://www.w3.org/2000/svg">
<mask id="mask0_249_566" style="mask-type:luminance" maskUnits="userSpaceOnUse" x="0" y="27" width="273" height="41">
<path d="M0 67.3041L0 27.3154L272.396 27.3154V67.3041L0 67.3041Z" fill="white"/>
</mask>
<g mask="url(#mask0_249_566)">
<path d="M58.6054 27.7691C58.6467 29.7487 58.3456 31.7139 57.7373 33.5884C57.1331 35.4443 56.2381 37.1889 55.1081 38.7767C53.9863 40.3501 52.6232 41.7647 51.1034 42.9463C49.5775 44.13 47.8742 45.0971 46.0677 45.7652C44.2263 46.4437 42.2899 46.8355 40.3247 46.8767C40.0711 46.885 39.8257 46.885 39.5721 46.8767C37.6007 46.918 35.6499 46.6169 33.7754 46.0127C31.9278 45.4064 30.1812 44.5011 28.5995 43.367C27.0467 42.2472 25.6507 40.8862 24.4794 39.3685C23.2957 37.8364 22.3307 36.1186 21.6543 34.2978C20.9697 32.448 20.5655 30.4911 20.5098 28.5176C20.5036 28.2702 20.5036 28.0165 20.5036 27.7629C20.5036 27.4804 20.2912 27.3443 20.0726 27.3505C19.8602 27.3505 19.6417 27.4886 19.6478 27.7629C19.6829 29.7405 19.388 31.7057 18.7797 33.5822C18.1775 35.4381 17.2805 37.1827 16.1505 38.7705C15.0287 40.3439 13.6739 41.7585 12.1479 42.9401C10.6199 44.1217 8.91656 45.0909 7.11015 45.757C5.26867 46.4375 3.33234 46.8293 1.36714 46.8705C1.1135 46.8767 0.868105 46.8767 0.614464 46.8705C0.340202 46.8767 0.204102 47.0912 0.204102 47.3098C0.204102 47.5242 0.340202 47.7428 0.614464 47.7428C2.58585 47.7304 4.54899 48.0377 6.42552 48.6563C8.267 49.2626 10.0054 50.1679 11.5788 51.2958C13.146 52.4156 14.5565 53.7828 15.7339 55.3149C16.9114 56.8409 17.862 58.5504 18.5322 60.365C19.2107 62.2127 19.6004 64.1655 19.6478 66.1369C19.6561 66.3906 19.6561 66.638 19.6478 66.8917C19.6417 67.168 19.8602 67.3041 20.0726 67.3041C20.285 67.3041 20.5036 67.168 20.5036 66.8917C20.4892 64.8996 20.7985 62.9283 21.4213 61.0311C22.0234 59.1896 22.9204 57.4513 24.0422 55.8717C25.1578 54.3045 26.5065 52.9043 28.018 51.7289C29.5378 50.5473 31.2493 49.5781 33.0558 48.9038C34.9034 48.2171 36.8542 47.8129 38.8256 47.751C39.0792 47.7428 39.3246 47.7366 39.5782 47.7428C41.5496 47.7222 43.5004 48.0315 45.3687 48.6501C47.2163 49.2626 48.963 50.1679 50.5508 51.302C52.118 52.43 53.5264 53.7972 54.7122 55.3355C55.8814 56.8532 56.832 58.5586 57.496 60.3589C58.1806 62.2127 58.5704 64.1655 58.6116 66.1431C58.6199 66.3967 58.6199 66.6442 58.6116 66.8999C58.5992 67.168 58.8178 67.3041 59.0302 67.3041C59.2426 67.3041 59.4612 67.168 59.4612 66.8917C59.4468 64.8996 59.7623 62.9283 60.3789 61.0311C60.981 59.1896 61.878 57.4513 62.9998 55.8717C64.1072 54.3045 65.4641 52.9043 66.9756 51.7289C68.4954 50.5473 70.2069 49.5781 72.0072 48.9038C73.8548 48.2109 75.8056 47.8129 77.777 47.751C78.0286 47.7428 78.276 47.7366 78.5297 47.7428C79.9731 47.7428 81.4166 47.7428 82.8622 47.7428C86.7555 47.7428 90.6508 47.7428 94.5441 47.7428C100.32 47.7428 106.09 47.7428 111.868 47.7428C118.91 47.7428 125.958 47.7428 133.003 47.7428C140.694 47.7428 148.38 47.7428 156.074 47.7428C163.889 47.7428 171.707 47.7428 179.516 47.7428C186.75 47.7428 193.99 47.7428 201.226 47.7428C207.365 47.7428 213.495 47.7428 219.636 47.7428C224.049 47.7428 228.458 47.7428 232.873 47.7428C234.96 47.7428 237.047 47.7779 239.128 47.7428C239.216 47.7428 239.313 47.7428 239.402 47.7428C242.557 47.7366 245.5 49.8585 246.603 52.8136C246.916 53.6652 247.081 54.5519 247.075 55.4593C247.075 55.7418 247.285 55.8779 247.506 55.8717C247.718 55.8717 247.937 55.7335 247.929 55.4593C247.861 52.2774 250.03 49.3244 252.975 48.2171C253.816 47.9016 254.699 47.7366 255.602 47.7366C258.743 47.7304 261.728 49.873 262.803 52.828C263.11 53.6735 263.254 54.5519 263.234 55.4531C263.226 55.7273 263.438 55.8655 263.65 55.8655C263.869 55.8655 264.081 55.7335 264.081 55.4531C264.075 52.2918 266.176 49.3306 269.119 48.2171C269.96 47.9016 270.851 47.7304 271.755 47.7366C272.035 47.7366 272.171 47.516 272.165 47.3036C272.165 47.0912 272.029 46.8767 271.755 46.885C268.579 46.9674 265.649 44.7754 264.562 41.8204C264.253 40.9832 264.09 40.1026 264.09 39.2036C264.09 38.921 263.869 38.7829 263.657 38.7911C263.446 38.7911 263.234 38.9272 263.24 39.2036C263.323 42.3627 261.153 45.359 258.223 46.4437C257.382 46.753 256.505 46.9118 255.608 46.885C252.447 46.9736 249.469 44.7816 248.389 41.8348C248.079 40.9894 247.923 40.1088 247.943 39.2036C247.949 38.9272 247.739 38.7911 247.518 38.7911C247.3 38.7911 247.087 38.921 247.087 39.2036C247.108 42.3627 244.98 45.3652 242.029 46.4519C241.188 46.7612 240.311 46.9118 239.416 46.885C237.971 46.885 236.527 46.885 235.084 46.885C231.188 46.885 227.295 46.885 223.4 46.885C217.624 46.885 211.854 46.885 206.078 46.885C199.034 46.885 191.985 46.885 184.943 46.885C177.25 46.885 169.564 46.885 161.87 46.885C154.055 46.885 146.239 46.885 138.43 46.885C131.194 46.885 123.954 46.885 116.72 46.885C110.581 46.885 104.448 46.885 98.3095 46.885C93.8945 46.885 89.4857 46.885 85.0728 46.885C82.9838 46.885 80.897 46.8499 78.8163 46.885C78.7276 46.885 78.6307 46.885 78.542 46.885C76.5706 46.9262 74.6137 46.6231 72.7454 46.0189C70.8977 45.4147 69.1532 44.5073 67.5715 43.3732C66.0167 42.2534 64.6206 40.8924 63.4514 39.3747C62.2678 37.8426 61.3027 36.1248 60.6243 34.304C59.9396 32.4563 59.5355 30.4973 59.4757 28.5259C59.4674 28.2702 59.4674 28.0227 59.4674 27.7691C59.4674 27.4886 59.255 27.3505 59.0364 27.3567C58.8178 27.3567 58.5992 27.4948 58.6054 27.7691Z" fill="#738942"/>
</g>
<mask id="mask1_249_566" style="mask-type:luminance" maskUnits="userSpaceOnUse" x="463" y="27" width="273" height="41">
<path d="M736 27.3154V67.3041L463.604 67.3041V27.3154L736 27.3154Z" fill="white"/>
</mask>
<g mask="url(#mask1_249_566)">
<path d="M677.394 66.8503C677.353 64.8707 677.654 62.9055 678.262 61.031C678.867 59.1751 679.762 57.4305 680.892 55.8427C682.013 54.2693 683.377 52.8547 684.896 51.6731C686.422 50.4894 688.126 49.5223 689.932 48.8542C691.773 48.1757 693.71 47.7839 695.675 47.7427C695.929 47.7344 696.174 47.7344 696.428 47.7427C698.399 47.7014 700.35 48.0025 702.224 48.6067C704.072 49.213 705.819 50.1182 707.4 51.2524C708.953 52.3721 710.349 53.7331 711.52 55.2509C712.704 56.783 713.669 58.5008 714.345 60.3216C715.03 62.1713 715.434 64.1283 715.49 66.1017C715.496 66.3492 715.496 66.6028 715.496 66.8565C715.496 67.139 715.709 67.2751 715.927 67.2689C716.14 67.2689 716.358 67.1307 716.352 66.8565C716.317 64.8789 716.612 62.9137 717.22 61.0372C717.822 59.1813 718.719 57.4367 719.849 55.8489C720.971 54.2755 722.326 52.8609 723.852 51.6793C725.38 50.4977 727.083 49.5285 728.89 48.8624C730.731 48.1819 732.667 47.7901 734.633 47.7489C734.886 47.7427 735.132 47.7427 735.385 47.7489C735.66 47.7427 735.796 47.5282 735.796 47.3096C735.796 47.0952 735.66 46.8766 735.385 46.8766C733.414 46.889 731.451 46.5817 729.574 45.9631C727.733 45.3568 725.994 44.4515 724.421 43.3236C722.854 42.2038 721.443 40.8366 720.266 39.3045C719.088 37.7785 718.138 36.069 717.468 34.2543C716.789 32.4067 716.399 30.4539 716.352 28.4825C716.344 28.2288 716.344 27.9814 716.352 27.7277C716.358 27.4514 716.14 27.3153 715.927 27.3153C715.715 27.3153 715.496 27.4514 715.496 27.7277C715.511 29.7197 715.201 31.6911 714.578 33.5883C713.976 35.4298 713.079 37.1681 711.958 38.7477C710.842 40.3149 709.493 41.7151 707.982 42.8905C706.462 44.0721 704.75 45.0413 702.944 45.7156C701.096 46.4023 699.146 46.8065 697.174 46.8683C696.921 46.8766 696.675 46.8828 696.422 46.8766C694.45 46.8972 692.499 46.5879 690.631 45.9693C688.783 45.3568 687.037 44.4515 685.449 43.3174C683.882 42.1894 682.473 40.8222 681.288 39.2839C680.118 37.7661 679.168 36.0608 678.504 34.2605C677.819 32.4067 677.429 30.4539 677.388 28.4763C677.38 28.2226 677.38 27.9752 677.388 27.7195C677.401 27.4514 677.182 27.3153 676.97 27.3153C676.757 27.3153 676.539 27.4514 676.539 27.7277C676.553 29.7197 676.237 31.6911 675.621 33.5883C675.019 35.4298 674.122 37.1681 673 38.7477C671.893 40.3149 670.536 41.7151 669.024 42.8905C667.504 44.0721 665.793 45.0413 663.993 45.7156C662.145 46.4085 660.194 46.8065 658.223 46.8683C657.971 46.8766 657.724 46.8828 657.47 46.8766C656.027 46.8766 654.583 46.8766 653.138 46.8766C649.244 46.8766 645.349 46.8766 641.456 46.8766C635.68 46.8766 629.91 46.8766 624.132 46.8766C617.09 46.8766 610.041 46.8766 602.997 46.8766C595.305 46.8766 587.62 46.8766 579.926 46.8766C572.111 46.8766 564.293 46.8766 556.484 46.8766C549.25 46.8766 542.01 46.8766 534.774 46.8766C528.635 46.8766 522.504 46.8766 516.363 46.8766C511.95 46.8766 507.542 46.8766 503.127 46.8766C501.04 46.8766 498.953 46.8415 496.872 46.8766C496.783 46.8766 496.687 46.8766 496.598 46.8766C493.443 46.8828 490.5 44.7609 489.397 41.8058C489.083 40.9542 488.919 40.0675 488.925 39.1601C488.925 38.8776 488.714 38.7415 488.494 38.7477C488.281 38.7477 488.063 38.8859 488.071 39.1601C488.139 42.342 485.97 45.2949 483.025 46.4023C482.184 46.7178 481.301 46.8828 480.398 46.8828C477.257 46.889 474.271 44.7464 473.197 41.7914C472.89 40.9459 472.745 40.0675 472.766 39.1663C472.774 38.8921 472.562 38.7539 472.349 38.7539C472.131 38.7539 471.918 38.8859 471.918 39.1663C471.925 42.3275 469.823 45.2888 466.881 46.4023C466.039 46.7178 465.148 46.889 464.245 46.8828C463.965 46.8828 463.829 47.1034 463.835 47.3158C463.835 47.5282 463.971 47.7427 464.245 47.7344C467.421 47.6519 470.351 49.844 471.438 52.799C471.747 53.6362 471.91 54.5167 471.91 55.4158C471.91 55.6983 472.131 55.8365 472.343 55.8283C472.554 55.8283 472.766 55.6922 472.76 55.4158C472.677 52.2567 474.847 49.2604 477.777 48.1757C478.618 47.8664 479.495 47.7076 480.392 47.7344C483.553 47.6458 486.531 49.8378 487.611 52.7846C487.92 53.63 488.077 54.5106 488.057 55.4158C488.05 55.6922 488.261 55.8283 488.481 55.8283C488.7 55.8283 488.912 55.6983 488.912 55.4158C488.892 52.2567 491.02 49.2542 493.971 48.1675C494.812 47.8582 495.688 47.7076 496.583 47.7344C498.029 47.7344 499.472 47.7344 500.916 47.7344C504.811 47.7344 508.705 47.7344 512.6 47.7344C518.376 47.7344 524.146 47.7344 529.922 47.7344C536.966 47.7344 544.014 47.7344 551.056 47.7344C558.75 47.7344 566.436 47.7344 574.129 47.7344C581.945 47.7344 589.76 47.7344 597.57 47.7344C604.806 47.7344 612.046 47.7344 619.28 47.7344C625.419 47.7344 631.551 47.7344 637.69 47.7344C642.105 47.7344 646.514 47.7344 650.927 47.7344C653.016 47.7344 655.103 47.7695 657.183 47.7344C657.272 47.7344 657.369 47.7344 657.458 47.7344C659.429 47.6932 661.386 47.9963 663.254 48.6005C665.102 49.2047 666.847 50.1121 668.428 51.2462C669.983 52.366 671.379 53.727 672.548 55.2447C673.732 56.7768 674.697 58.4946 675.376 60.3154C676.06 62.1631 676.464 64.1221 676.524 66.0935C676.532 66.3492 676.532 66.5966 676.532 66.8503C676.532 67.1307 676.745 67.2689 676.963 67.2627C677.182 67.2627 677.401 67.1246 677.394 66.8503Z" fill="#738942"/>
</g>
<mask id="mask2_249_566" style="mask-type:luminance" maskUnits="userSpaceOnUse" x="339" y="7" width="52" height="88">
<path d="M339.167 7.64087H390.503V94.0866H339.167V7.64087Z" fill="white"/>
</mask>
<g mask="url(#mask2_249_566)">
<path d="M390.352 50.4292C365.681 51.4966 365.266 52.5629 364.754 94.0774C364.239 52.5493 363.824 51.4785 339.152 50.4292C363.824 50.4508 364.239 49.4231 364.754 7.89038C365.266 49.4231 365.681 50.4508 390.352 50.4292Z" fill="#738942"/>
</g>
<mask id="mask3_249_566" style="mask-type:luminance" maskUnits="userSpaceOnUse" x="375" y="10" width="22" height="35">
<path d="M375.693 10.2544H396.229V44.8109H375.693V10.2544Z" fill="white"/>
</mask>
<g mask="url(#mask3_249_566)">
<path d="M396.229 27.2672C386.475 27.6835 386.308 28.1066 386.105 44.5285C385.903 28.1066 385.75 27.6835 375.982 27.2672C385.74 27.2672 385.903 26.8691 386.105 10.4438C386.308 26.8589 386.475 27.2752 396.229 27.2672Z" fill="#738942"/>
</g>
<mask id="mask4_249_566" style="mask-type:luminance" maskUnits="userSpaceOnUse" x="342" y="0" width="14" height="24">
<path d="M342.007 0H355.946V23.0316H342.007V0Z" fill="white"/>
</mask>
<g mask="url(#mask4_249_566)">
<path d="M355.855 11.3649C349.265 11.6462 349.155 11.9309 349.016 23.0248C348.881 11.9309 348.768 11.6428 342.181 11.3649C348.768 11.3649 348.881 11.0949 349.016 0.00561523C349.145 11.0949 349.265 11.3728 355.855 11.3649Z" fill="#738942"/>
</g>
<mask id="mask5_249_566" style="mask-type:luminance" maskUnits="userSpaceOnUse" x="339" y="7" width="52" height="88">
<path d="M339.167 7.64087H390.503V94.0866H339.167V7.64087Z" fill="white"/>
</mask>
<g mask="url(#mask5_249_566)">
<path d="M390.352 50.4292C365.681 51.4966 365.266 52.5629 364.754 94.0774C364.239 52.5493 363.824 51.4785 339.152 50.4292C363.824 50.4508 364.239 49.4231 364.754 7.89038C365.266 49.4231 365.681 50.4508 390.352 50.4292Z" fill="#738942"/>
</g>
<mask id="mask6_249_566" style="mask-type:luminance" maskUnits="userSpaceOnUse" x="339" y="7" width="52" height="88">
<path d="M339.167 7.64087H390.503V94.0866H339.167V7.64087Z" fill="white"/>
</mask>
<g mask="url(#mask6_249_566)">
<path d="M390.352 50.4292C365.681 51.4966 365.266 52.5629 364.754 94.0774C364.239 52.5493 363.824 51.4785 339.152 50.4292C363.824 50.4508 364.239 49.4231 364.754 7.89038C365.266 49.4231 365.681 50.4508 390.352 50.4292Z" fill="#738942"/>
</g>
</svg>
