<svg width="430" height="246" viewBox="0 0 430 246" fill="none" xmlns="http://www.w3.org/2000/svg">
<g clip-path="url(#clip0_191_97)">
<rect width="430" height="246" rx="40" fill="#F7EFDA"/>
<mask id="mask0_191_97" style="mask-type:luminance" maskUnits="userSpaceOnUse" x="316" y="192" width="29" height="31">
<path d="M344.663 223H316.068V192.617H344.663V223Z" fill="white"/>
</mask>
<g mask="url(#mask0_191_97)">
<path d="M318.199 196.508C329.223 206.863 329.038 209.166 316.068 222.993C329.038 209.166 331.322 208.834 342.346 219.19C331.322 208.834 331.507 206.532 344.477 192.705C331.507 206.532 329.223 206.863 318.199 196.508Z" fill="#738942"/>
</g>
<path d="M360.789 178.372C361.796 181.919 361.468 182.378 357.024 183.64C361.468 182.378 361.988 182.596 362.993 186.144C361.988 182.596 362.314 182.137 366.759 180.875C362.314 182.137 361.796 181.919 360.789 178.372Z" fill="#738942"/>
<mask id="mask1_191_97" style="mask-type:luminance" maskUnits="userSpaceOnUse" x="369" y="115" width="97" height="67">
<path d="M465.813 181.009H369.206L369.206 115.542H465.813L465.813 181.009Z" fill="white"/>
</mask>
<g mask="url(#mask1_191_97)">
<path d="M369.366 180.779C370.617 180.265 371.913 179.907 373.251 179.708C377.205 178.994 381.225 178.639 385.196 178.109C387.839 177.776 390.456 177.298 393.047 176.676C400.66 174.777 408.104 170.586 412.405 163.862C416.801 156.999 416.543 148.543 418.638 140.88C421.783 128.813 431.301 124.353 442.479 121.503C449.983 119.58 458.329 117.4 465.813 115.537C458.403 117.625 450.089 119.945 442.614 122C435.072 124.061 427.036 127.068 422.574 133.883C418.047 140.686 418.436 149.198 416.352 156.86C413.713 167.861 403.793 174.912 393.231 177.424C388.004 178.715 382.619 179.03 377.304 179.673C374.637 179.927 372.036 180.591 369.366 180.779Z" fill="#738942"/>
</g>
<path d="M344.154 193.051C347.865 189.392 352.232 185.945 355.979 184.108C355.979 184.108 336.442 200.656 344.154 193.051Z" fill="#738942"/>
<mask id="mask2_191_97" style="mask-type:luminance" maskUnits="userSpaceOnUse" x="85" y="42" width="29" height="31">
<path d="M85.1499 42H113.745V72.3834H85.1499V42Z" fill="white"/>
</mask>
<g mask="url(#mask2_191_97)">
<path d="M111.614 68.4916C100.59 58.1375 100.775 55.834 113.745 42.0066C100.775 55.834 98.4914 56.1657 87.4675 45.8104C98.4914 56.1657 98.3061 58.4679 85.3363 72.2953C98.3061 58.4679 100.59 58.1375 111.614 68.4916Z" fill="#738942"/>
</g>
<path d="M69.0241 86.628C68.0175 83.0807 68.3452 82.6221 72.789 81.3602C68.3452 82.6221 67.8257 82.4045 66.8204 78.8559C67.8257 82.4045 67.4992 82.8631 63.0542 84.125C67.4992 82.8631 68.0175 83.0807 69.0241 86.628Z" fill="#738942"/>
<mask id="mask3_191_97" style="mask-type:luminance" maskUnits="userSpaceOnUse" x="-36" y="83" width="97" height="67">
<path d="M-36 83.9915H60.6068V149.458H-36L-36 83.9915Z" fill="white"/>
</mask>
<g mask="url(#mask3_191_97)">
<path d="M60.4474 84.2208C59.1959 84.7352 57.9004 85.0927 56.5621 85.2922C52.6081 86.0061 48.588 86.3611 44.6171 86.891C41.9742 87.2239 39.3571 87.702 36.766 88.3238C29.1534 90.2231 21.7091 94.4142 17.4079 101.138C13.0121 108.001 13.2699 116.457 11.175 124.12C8.03067 136.187 -1.48776 140.647 -12.6658 143.498C-20.1696 145.42 -28.5156 147.601 -36 149.464C-28.5894 147.375 -20.2759 145.055 -12.8005 143C-5.25912 140.939 2.7772 137.932 7.23908 131.117C11.7657 124.314 11.3771 115.803 13.4616 108.141C16.1007 97.1388 26.0207 90.0884 36.5821 87.5763C41.8096 86.2846 47.1939 85.9698 52.5096 85.3272C55.1758 85.0733 57.7773 84.4087 60.4474 84.2208Z" fill="#738942"/>
</g>
<path d="M85.659 71.9493C81.9485 75.608 77.5812 79.0554 73.8345 80.8925C73.8345 80.8925 93.3714 64.3444 85.659 71.9493Z" fill="#738942"/>
</g>
<defs>
<clipPath id="clip0_191_97">
<rect width="430" height="246" rx="40" fill="white"/>
</clipPath>
</defs>
</svg>
