<svg width="1440" height="700" viewBox="0 0 1440 700" fill="none" xmlns="http://www.w3.org/2000/svg">
<g clip-path="url(#clip0_193_4)">
<rect width="1440" height="700" fill="#F7EFDA"/>
<mask id="mask0_193_4" style="mask-type:luminance" maskUnits="userSpaceOnUse" x="1024" y="530" width="86" height="92">
<path d="M1109.93 621.924H1024V530.619H1109.93V621.924Z" fill="white"/>
</mask>
<g mask="url(#mask0_193_4)">
<path d="M1030.4 542.314C1063.53 573.429 1062.98 580.351 1024 621.904C1062.98 580.351 1069.84 579.354 1102.97 610.473C1069.84 579.354 1070.4 572.436 1109.37 530.883C1070.4 572.436 1063.53 573.429 1030.4 542.314Z" fill="#738942"/>
</g>
<path d="M1158.39 487.812C1161.42 498.472 1160.43 499.85 1147.08 503.642C1160.43 499.85 1161.99 500.504 1165.01 511.168C1161.99 500.504 1162.97 499.126 1176.33 495.334C1162.97 499.126 1161.42 498.472 1158.39 487.812Z" fill="#738942"/>
<mask id="mask1_193_4" style="mask-type:luminance" maskUnits="userSpaceOnUse" x="1183" y="299" width="291" height="197">
<path d="M1474 495.735H1183.69V299H1474V495.735Z" fill="white"/>
</mask>
<g mask="url(#mask1_193_4)">
<path d="M1184.17 495.046C1187.93 493.5 1191.82 492.426 1195.84 491.826C1207.72 489.681 1219.8 488.614 1231.74 487.022C1239.68 486.021 1247.54 484.585 1255.33 482.716C1278.21 477.008 1300.58 464.414 1313.5 444.208C1326.71 423.585 1325.94 398.173 1332.23 375.145C1341.68 338.883 1370.29 325.478 1403.88 316.913C1426.43 311.136 1451.51 304.583 1474 298.985C1451.73 305.261 1426.75 312.233 1404.28 318.408C1381.62 324.602 1357.47 333.639 1344.06 354.117C1330.46 374.561 1331.63 400.14 1325.36 423.164C1317.43 456.226 1287.62 477.413 1255.88 484.962C1240.17 488.844 1223.99 489.79 1208.02 491.721C1200.01 492.484 1192.19 494.481 1184.17 495.046Z" fill="#738942"/>
</g>
<path d="M1108.4 531.923C1119.55 520.928 1132.68 510.568 1143.94 505.048C1143.94 505.048 1085.23 554.776 1108.4 531.923Z" fill="#738942"/>
<mask id="mask2_193_4" style="mask-type:luminance" maskUnits="userSpaceOnUse" x="330" y="78" width="86" height="92">
<path d="M330.068 78.0001H416V169.305H330.068V78.0001Z" fill="white"/>
</mask>
<g mask="url(#mask2_193_4)">
<path d="M409.595 157.61C376.468 126.495 377.024 119.573 416 78.0198C377.024 119.573 370.161 120.569 337.033 89.4504C370.161 120.569 369.604 127.488 330.628 169.041C369.604 127.488 376.468 126.495 409.595 157.61Z" fill="#738942"/>
</g>
<path d="M281.608 212.112C278.583 201.452 279.568 200.074 292.922 196.282C279.568 200.074 278.007 199.42 274.986 188.756C278.007 199.42 277.026 200.798 263.668 204.59C277.026 200.798 278.583 201.452 281.608 212.112Z" fill="#738942"/>
<mask id="mask3_193_4" style="mask-type:luminance" maskUnits="userSpaceOnUse" x="-34" y="204" width="291" height="197">
<path d="M-34 204.189H256.313V400.923H-34L-34 204.189Z" fill="white"/>
</mask>
<g mask="url(#mask3_193_4)">
<path d="M255.834 204.878C252.074 206.424 248.18 207.498 244.159 208.098C232.276 210.243 220.195 211.31 208.263 212.902C200.32 213.903 192.456 215.339 184.669 217.208C161.793 222.916 139.422 235.51 126.496 255.716C113.286 276.339 114.061 301.75 107.766 324.779C98.3167 361.041 69.7128 374.446 36.1217 383.011C13.5719 388.788 -11.5086 395.341 -34 400.939C-11.7305 394.663 13.2526 387.69 35.7168 381.516C58.3795 375.322 82.5295 366.285 95.9379 345.807C109.541 325.363 108.373 299.784 114.637 276.759C122.568 243.698 152.379 222.511 184.117 214.962C199.826 211.08 216.006 210.134 231.98 208.203C239.993 207.44 247.81 205.443 255.834 204.878Z" fill="#738942"/>
</g>
<path d="M331.598 168.001C320.447 178.995 307.323 189.355 296.064 194.876C296.064 194.876 354.774 145.147 331.598 168.001Z" fill="#738942"/>
</g>
<defs>
<clipPath id="clip0_193_4">
<rect width="1440" height="700" fill="white"/>
</clipPath>
</defs>
</svg>
