<svg width="150" height="48" viewBox="0 0 150 48" fill="none" xmlns="http://www.w3.org/2000/svg">
<path d="M18.3179 32.1533C15.336 31.7486 12.9504 31.7805 11.1613 32.2491C11.502 31.248 11.7044 30.1405 11.7683 28.9264C11.9813 25.2629 12.0345 21.365 11.928 17.2329C11.8641 14.038 11.5659 11.9826 11.0335 11.0667C12.1836 10.9602 13.4723 10.7259 14.8993 10.3638C16.3477 10.0017 17.4659 9.63963 18.254 9.27754C17.828 10.3851 17.5831 12.9198 17.5192 16.8815C17.4979 18.1808 17.4979 19.5546 17.5192 21.0029C17.5405 24.1553 17.5831 26.2852 17.647 27.3928C17.7535 29.6719 17.9771 31.2587 18.3179 32.1533ZM37.4875 40.4601C36.9124 40.4388 36.3906 40.2364 35.922 39.853C35.4534 39.491 35.1126 39.0437 34.8996 38.5112C34.6866 38 34.5908 37.4355 34.6121 36.8179C34.6334 36.2002 34.7931 35.6464 35.0913 35.1565C35.6664 34.2406 36.5397 33.6442 37.7111 33.3673C38.9039 33.0904 40.086 33.1543 41.2575 33.559C42.4503 33.9637 43.3662 34.6027 44.0052 35.476C44.4951 36.1789 44.7826 36.935 44.8678 37.7444C44.953 38.5538 44.7932 39.459 44.3886 40.4601C44.0052 41.3121 43.3768 42.0469 42.5035 42.6646C41.6516 43.3036 40.6824 43.7828 39.5962 44.1023C38.5099 44.4218 37.3171 44.5389 36.0178 44.4537C34.7399 44.3899 33.4938 44.1236 32.2798 43.655C31.0657 43.1864 29.8836 42.4196 28.7334 41.3547C27.6045 40.311 26.6567 39.0224 25.8899 37.4888C25.3361 36.3812 24.8462 35.1139 24.4202 33.6868C24.0155 32.2598 23.6854 31.0244 23.4298 29.9807C23.1742 28.937 22.8654 27.9253 22.5033 26.9455C22.1412 25.9444 21.6193 25.1457 20.9377 24.5493C20.2775 23.9529 19.4148 23.5802 18.3499 23.4311V22.9199C19.7769 22.3661 20.9803 21.6419 21.9601 20.7473C22.9399 19.8315 23.6321 18.873 24.0368 17.8719C24.4628 16.8708 24.6545 15.8485 24.6119 14.8048C24.5693 13.7398 24.3137 12.7707 23.8451 11.8974C23.3765 11.0028 22.6843 10.236 21.7684 9.59703C20.8525 8.95805 19.7876 8.54271 18.5735 8.35101C17.5085 8.18061 16.4116 8.21256 15.2827 8.44686C14.1751 8.65985 13.1208 9.07519 12.1197 9.69288C11.1187 10.3106 10.2241 11.0774 9.43599 11.9932C8.66921 12.8878 8.08347 13.9847 7.67878 15.284C7.29539 16.562 7.16759 17.9358 7.29539 19.4055C7.40188 20.726 7.75333 21.9188 8.34971 22.9838C8.9674 24.0275 9.79808 24.8156 10.8418 25.3481C9.30819 25.8166 7.93437 25.9977 6.7203 25.8912C5.50622 25.7634 4.46255 25.4226 3.58926 24.8688C2.73728 24.2937 2.077 23.5589 1.60841 22.6643C1.13982 21.7697 0.884221 20.7686 0.841622 19.6611C0.799022 17.9358 1.12917 16.3277 1.83205 14.8367C2.53494 13.3458 3.51472 12.0678 4.77139 11.0028C6.04936 9.93783 7.51903 9.05389 9.1804 8.35101C10.8418 7.62682 12.6203 7.12628 14.5159 6.84939C16.4329 6.5725 18.3605 6.51925 20.2988 6.68965C21.6193 6.81744 22.8441 7.05174 23.9729 7.39253C25.1018 7.73332 26.0603 8.14866 26.8484 8.63855C27.6578 9.12844 28.3606 9.69288 28.957 10.3319C29.5747 10.9496 30.0327 11.5992 30.3308 12.2808C30.629 12.9624 30.8314 13.6759 30.9379 14.4214C31.0657 15.1456 31.0444 15.8698 30.874 16.5939C30.4267 18.4044 29.4895 19.8528 28.0624 20.939C26.6354 22.004 24.8888 22.7389 22.8228 23.1435C24.2285 23.6973 25.4746 24.4748 26.5608 25.4758C27.6471 26.4556 28.5097 27.51 29.1487 28.6388C29.7877 29.7677 30.3628 30.9605 30.874 32.2172C31.4065 33.4525 31.8964 34.6347 32.3437 35.7635C32.8122 36.8924 33.3128 37.9254 33.8453 38.8626C34.3778 39.7998 35.0594 40.5666 35.89 41.163C36.7207 41.7594 37.6898 42.0895 38.7974 42.1534C39.5429 42.196 40.3097 42.0788 41.0978 41.802C41.8859 41.5464 42.5248 41.1417 43.0147 40.5879C43.5046 40.0341 43.6324 39.4271 43.3981 38.7668C43.1851 38.213 42.823 37.7657 42.3118 37.4249C41.8007 37.0628 41.2469 36.8711 40.6505 36.8498C40.0754 36.8285 39.5216 36.9244 38.9891 37.1374C38.4566 37.3503 38.0413 37.7444 37.7431 38.3195C37.4662 38.9159 37.381 39.6294 37.4875 40.4601ZM31.2771 21.5461C31.8096 19.4374 32.9704 17.9039 34.7596 16.9454C36.5487 15.9869 38.4444 15.8804 40.4466 16.6259C42.47 17.3714 44.0036 18.7452 45.0473 20.7473C46.0909 22.7495 46.3465 24.8049 45.814 26.9136C45.2816 29.0009 44.1207 30.5238 42.3316 31.4823C40.5424 32.4408 38.6361 32.5473 36.6126 31.8018C34.6105 31.0563 33.0876 29.6825 32.0439 27.6804C31.0002 25.6782 30.7446 23.6334 31.2771 21.5461ZM40.1271 23.3672C39.2325 21.5993 38.3059 20.2042 37.3475 19.1818C36.4103 18.1595 35.7181 17.7654 35.2708 17.9997C34.8235 18.234 34.7596 19.0327 35.0791 20.3959C35.3986 21.7378 36.0162 23.2926 36.9321 25.0605C37.848 26.8071 38.7745 28.2022 39.7117 29.2459C40.6702 30.2682 41.3731 30.6623 41.8204 30.428C42.2464 30.1937 42.2996 29.395 41.9801 28.0318C41.6819 26.6686 41.0642 25.1138 40.1271 23.3672ZM71.1908 32.1533H64.2258C64.6944 31.0883 64.982 29.8423 65.0885 28.4152C65.195 26.9668 65.1524 25.6675 64.9607 24.5174C64.7903 23.3459 64.5453 22.4407 64.2258 21.8017C65.5251 21.8017 66.8031 21.6632 68.0598 21.3863C69.3377 21.1094 70.3814 20.6941 71.1908 20.1403C70.7222 21.3331 70.456 23.2181 70.3921 25.7953C70.3495 28.3513 70.6157 30.4706 71.1908 32.1533ZM61.9255 36.0191C61.0522 36.7859 59.6251 37.3397 57.6443 37.6805C55.6847 38 53.7358 38.0426 51.7976 37.8083C49.8806 37.5527 48.5281 37.0628 47.74 36.3386C47.314 35.9552 47.0158 35.5079 46.8454 34.9967C46.675 34.4856 46.675 33.9744 46.8454 33.4632C47.0371 32.952 47.4205 32.5366 47.9956 32.2172C48.4003 32.0042 48.8689 31.8764 49.4014 31.8338C49.9551 31.7912 50.4876 31.8338 50.9988 31.9616C51.51 32.0894 51.9679 32.345 52.3726 32.7283C52.7986 33.0904 53.0862 33.5377 53.2353 34.0702C52.5324 34.2832 52.1703 34.656 52.149 35.1884C52.149 35.7848 52.575 36.2215 53.427 36.4984C53.9595 36.6688 54.5984 36.7433 55.3439 36.722C56.2598 36.7007 56.9307 36.4451 57.3567 35.9552C57.804 35.444 57.9425 34.8903 57.7721 34.2939C57.6017 33.6762 57.1757 33.1969 56.4941 32.8561C56.0255 32.6218 55.3546 32.4089 54.4813 32.2172C53.608 32.0042 52.8093 31.8338 52.0851 31.706C51.3822 31.5569 50.6793 31.2906 49.9764 30.9072C49.2736 30.5238 48.7624 30.0233 48.4429 29.4056C48.1234 28.8305 48.0701 28.2128 48.2831 27.5526C48.4961 26.8923 48.9647 26.3491 49.6889 25.9231C48.7091 25.2842 47.9743 24.4961 47.4844 23.5589C46.9945 22.6004 46.7815 21.6632 46.8454 20.7473C46.9306 19.8315 47.3779 18.9795 48.1873 18.1914C49.018 17.382 50.1575 16.8069 51.6059 16.4661C54.3748 15.8059 56.771 16.2212 58.7945 17.7122C59.4547 16.988 60.4452 16.3383 61.7657 15.7633C63.0863 15.1669 64.4708 14.7941 65.9192 14.645C67.3888 14.4959 68.6881 14.7515 69.817 15.4118C70.7116 15.9443 71.1588 16.6365 71.1588 17.4885C71.1588 17.9571 70.9991 18.3937 70.6796 18.7984C70.3814 19.2031 69.9661 19.5226 69.4336 19.7569C68.9011 19.9699 68.326 20.0764 67.7083 20.0764C66.6433 20.0764 65.7594 19.7676 65.0565 19.1499C64.9713 19.0647 64.8861 18.9795 64.8009 18.8943C64.2471 18.3618 63.6934 17.9784 63.1396 17.7441C62.5858 17.4885 62.0746 17.3927 61.606 17.4566C61.1587 17.5205 60.7753 17.627 60.4558 17.7761C60.1363 17.9252 59.8381 18.1062 59.5612 18.3192V18.3511C60.0511 18.7984 60.5091 19.3096 60.9351 19.8847C61.3823 20.6302 61.6379 21.397 61.7018 22.1851C61.787 22.9519 61.6699 23.6867 61.3504 24.3896C61.0522 25.0925 60.4665 25.7101 59.5932 26.2426C58.7412 26.7538 57.6549 27.0946 56.3344 27.265C54.247 27.5206 52.3726 27.265 50.7113 26.4982C50.4344 26.7325 50.3279 27.0094 50.3918 27.3289C50.477 27.6484 50.7113 27.9146 51.0947 28.1276C51.4994 28.3406 52.0105 28.4578 52.6282 28.4791C53.2672 28.5004 53.9382 28.4684 54.641 28.3832C55.3652 28.2767 56.0894 28.1915 56.8136 28.1276C57.5591 28.0637 58.3259 28.085 59.1139 28.1915C59.9233 28.298 60.6475 28.543 61.2865 28.9264C62.5858 29.6932 63.31 30.8114 63.4591 32.2811C63.6082 33.7294 63.097 34.9754 61.9255 36.0191ZM51.8295 17.5524C51.3396 17.7015 51.1479 18.266 51.2544 19.2457C51.3609 20.2042 51.7124 21.2372 52.3087 22.3448C52.7986 23.3033 53.3098 24.0914 53.8423 24.7091C54.3961 25.3268 54.886 25.7421 55.312 25.9551C55.7593 26.1681 56.1214 26.2107 56.3983 26.0829C56.6751 25.9551 56.8562 25.6995 56.9414 25.3161C57.0266 24.9327 56.984 24.4109 56.8136 23.7506C56.6645 23.069 56.3663 22.3129 55.919 21.4822C55.3439 20.3533 54.6517 19.3842 53.8423 18.5748C53.0542 17.7441 52.3833 17.4033 51.8295 17.5524ZM90.7198 21.8336C91.0819 24.0062 92.3599 25.2735 94.5537 25.6356C93.5314 25.8273 92.6794 26.2533 91.9978 26.9136C91.3375 27.5739 90.9115 28.4045 90.7198 29.4056C90.5281 28.3832 90.1021 27.5419 89.4418 26.8816C88.7816 26.2 87.9402 25.7847 86.9178 25.6356C89.0904 25.2522 90.3577 23.9849 90.7198 21.8336ZM113.084 39.246C111.977 39.1821 111.167 38.639 110.656 37.6166C110.124 36.5303 110.166 35.5186 110.784 34.5814C111.508 33.5803 112.744 33.0585 114.49 33.0159C115.236 33.0159 115.938 33.2182 116.599 33.6229C117.28 34.0063 117.813 34.5069 118.196 35.1245C118.58 35.7422 118.846 36.4238 118.995 37.1693C119.165 37.9148 119.101 38.6283 118.803 39.3099C118.441 40.2897 117.706 41.0565 116.599 41.6103C115.512 42.1853 113.979 42.3877 111.998 42.2173C108.761 41.9404 105.917 40.5453 103.468 38.0319C101.018 35.5399 98.803 31.5995 96.8221 26.2107C94.6496 20.2681 92.9137 15.6674 91.6144 12.4086C91.5931 12.3873 91.5825 12.3553 91.5825 12.3127C91.3695 11.8015 91.1778 11.3862 91.0074 11.0667C90.8583 10.7259 90.6027 10.3106 90.2406 9.82068C89.8998 9.30949 89.4844 8.95805 88.9946 8.76635C88.526 8.57466 88.0148 8.564 87.461 8.7344C86.2895 9.05389 85.576 9.95913 85.3204 11.4501C85.0861 12.9198 85.5121 14.3042 86.5984 15.6035C87.7059 16.9028 89.3247 17.4672 91.4547 17.2968C90.9222 18.0849 90.2193 18.7132 89.346 19.1818C88.4727 19.6291 87.5781 19.8741 86.6623 19.9167C85.7677 19.9593 84.8837 19.8741 84.0105 19.6611C83.1585 19.4268 82.413 19.0434 81.774 18.5109C81.135 17.9571 80.7197 17.3075 80.528 16.562C80.2298 15.4544 80.2298 14.3575 80.528 13.2712C80.8262 12.1636 81.3587 11.2051 82.1254 10.3958C82.8922 9.56508 83.8294 8.85155 84.937 8.25516C86.0659 7.63747 87.2906 7.25408 88.6112 7.10498C89.953 6.95589 91.3482 7.01979 92.7965 7.29668C93.7976 7.55228 94.6709 7.90372 95.4164 8.35101C96.1832 8.777 96.8221 9.30949 97.3333 9.94848C97.8445 10.5875 98.2492 11.2158 98.5474 11.8335C98.8669 12.4512 99.2077 13.2073 99.5698 14.1019C99.7402 14.6131 100.326 16.2531 101.327 19.0221C102.349 21.7697 103.34 24.4215 104.298 26.9775C104.383 27.1905 104.501 27.5206 104.65 27.9679C104.927 28.6921 105.14 29.2672 105.289 29.6932C105.459 30.0979 105.704 30.7155 106.024 31.5462C106.364 32.3556 106.652 33.0159 106.886 33.5271C107.142 34.0383 107.472 34.6666 107.877 35.4121C108.281 36.1363 108.654 36.7327 108.995 37.2013C109.357 37.6698 109.772 38.1597 110.241 38.6709C110.731 39.2034 111.21 39.6081 111.679 39.885C112.147 40.1832 112.658 40.4175 113.212 40.5879C113.787 40.7796 114.373 40.8435 114.969 40.7796C115.757 40.7157 116.492 40.3962 117.174 39.8211C117.877 39.246 118.164 38.6283 118.036 37.968C117.887 37.0096 117.355 36.3706 116.439 36.0511C115.544 35.7103 114.714 35.8381 113.947 36.4345C113.18 37.0096 112.893 37.9467 113.084 39.246ZM84.4578 26.626C84.0105 27.8401 83.7975 28.8305 83.8188 29.5973C83.8401 30.3428 84.2128 31.1841 84.937 32.1213L78.8027 32.1533C79.889 31.706 80.7942 31.0776 81.5184 30.2682C82.2639 29.4589 82.8816 28.2341 83.3715 26.5941L85.1606 20.7473C85.5227 20.7686 85.8848 20.7686 86.2469 20.7473L84.4578 26.626ZM113.167 24.8049C113.167 28.3619 113.444 30.8114 113.998 32.1533H106.745C107.107 31.3439 107.363 30.2043 107.512 28.7347C107.682 27.265 107.746 25.8166 107.704 24.3896C107.661 22.9412 107.555 21.5993 107.384 20.364C107.214 19.1286 107.001 18.2873 106.745 17.84C108.96 17.627 111.101 17.1584 113.167 16.4342V22.1531C113.955 19.2564 114.988 17.4246 116.266 16.6578C116.671 16.4235 117.118 16.2744 117.608 16.2105C118.098 16.1253 118.598 16.1573 119.11 16.3064C119.642 16.4342 120.121 16.6791 120.547 17.0412C120.973 17.382 121.325 17.9145 121.602 18.6387C121.878 19.3416 122.017 20.1829 122.017 21.1627C122.017 21.2266 122.006 21.5993 121.985 22.2809C121.985 22.9625 121.985 23.5163 121.985 23.9423C122.006 24.347 122.017 24.9434 122.017 25.7314C122.038 26.4982 122.06 27.1585 122.081 27.7123C122.123 28.2661 122.177 28.8518 122.241 29.4695C122.304 30.0872 122.379 30.6303 122.464 31.0989C122.571 31.5462 122.699 31.8977 122.848 32.1533H115.851C116.064 31.8764 116.245 31.0883 116.394 29.789C116.543 28.4684 116.639 27.084 116.681 25.6356C116.724 24.1659 116.649 22.8454 116.458 21.6739C116.287 20.4811 115.989 19.8634 115.563 19.8208C115.095 19.7995 114.679 20.1936 114.317 21.0029C113.955 21.8123 113.604 22.9093 113.263 24.2937C113.22 24.4641 113.188 24.6345 113.167 24.8049ZM129.828 24.8049C129.828 28.3619 130.105 30.8114 130.659 32.1533H123.406C123.768 31.3439 124.024 30.2043 124.173 28.7347C124.343 27.265 124.407 25.8166 124.365 24.3896C124.322 22.9412 124.216 21.5993 124.045 20.364C123.875 19.1286 123.662 18.2873 123.406 17.84C125.621 17.627 127.762 17.1584 129.828 16.4342V22.1531C130.616 19.2564 131.649 17.4246 132.927 16.6578C133.332 16.4235 133.779 16.2744 134.269 16.2105C134.759 16.1253 135.259 16.1573 135.771 16.3064C136.303 16.4342 136.782 16.6791 137.208 17.0412C137.634 17.382 137.986 17.9145 138.263 18.6387C138.54 19.3416 138.678 20.1829 138.678 21.1627C138.678 21.2266 138.667 21.5993 138.646 22.2809C138.646 22.9625 138.646 23.5163 138.646 23.9423C138.667 24.347 138.678 24.9434 138.678 25.7314C138.699 26.4982 138.721 27.1585 138.742 27.7123C138.785 28.2661 138.838 28.8518 138.902 29.4695C138.966 30.0872 139.04 30.6303 139.125 31.0989C139.232 31.5462 139.36 31.8977 139.509 32.1533H132.512C132.725 31.8764 132.906 31.0883 133.055 29.789C133.204 28.4684 133.3 27.084 133.342 25.6356C133.385 24.1659 133.311 22.8454 133.119 21.6739C132.948 20.4811 132.65 19.8634 132.224 19.8208C131.756 19.7995 131.34 20.1936 130.978 21.0029C130.616 21.8123 130.265 22.9093 129.924 24.2937C129.881 24.4641 129.849 24.6345 129.828 24.8049Z" fill="#F7EFDA"/>
<mask id="mask0_283_330" style="mask-type:luminance" maskUnits="userSpaceOnUse" x="40" y="8" width="16" height="14">
<path d="M40.9421 8.55434H55.3078V21.9984H40.9421V8.55434Z" fill="white"/>
</mask>
<g mask="url(#mask0_283_330)">
<path d="M47.648 19.2702L47.3622 21.9983L47.0764 19.2702C46.8971 17.5607 45.5073 16.2089 43.7495 16.0345L40.9446 15.7565L43.7495 15.4786C45.5073 15.3042 46.8971 13.9524 47.0764 12.2427L47.3622 9.51464L47.648 12.2427C47.8274 13.9524 49.2172 15.3042 50.9748 15.4786L53.7798 15.7565L50.9748 16.0345C49.2172 16.2089 47.8274 17.5607 47.648 19.2702ZM54.0503 11.4648L55.3022 11.3408L54.0503 11.2169C53.2657 11.1389 52.6455 10.5357 52.5654 9.77254L52.4379 8.55494L52.3104 9.77254C52.2303 10.5357 51.61 11.1389 50.8255 11.2169L49.5736 11.3408L50.8255 11.4648C51.61 11.5428 52.2303 12.1459 52.3104 12.9091L52.4379 14.1267L52.5654 12.9091C52.6455 12.1459 53.2657 11.5428 54.0503 11.4648Z" fill="#F7EFDA"/>
</g>
<mask id="mask1_283_330" style="mask-type:luminance" maskUnits="userSpaceOnUse" x="0" y="26" width="12" height="12">
<path d="M0 26.3618H11.5662V37.186H0V26.3618Z" fill="white"/>
</mask>
<g mask="url(#mask1_283_330)">
<path d="M5.39892 34.9895L5.16883 37.1859L4.93873 34.9895C4.79438 33.6131 3.67542 32.5247 2.26017 32.3843L0.00192261 32.1605L2.26017 31.9367C3.67542 31.7963 4.79438 30.7079 4.93873 29.3314L5.16883 27.135L5.39892 29.3314C5.54336 30.7079 6.66233 31.7963 8.07748 31.9367L10.3358 32.1605L8.07748 32.3843C6.66233 32.5247 5.54336 33.6131 5.39892 34.9895ZM10.5536 28.7051L11.5615 28.6053L10.5536 28.5055C9.92188 28.4427 9.42255 27.9571 9.35807 27.3426L9.25542 26.3623L9.15276 27.3426C9.08828 27.9571 8.58886 28.4427 7.95726 28.5055L6.94931 28.6053L7.95726 28.7051C8.58886 28.7679 9.08828 29.2535 9.15276 29.8679L9.25542 30.8483L9.35807 29.8679C9.42255 29.2535 9.92188 28.7679 10.5536 28.7051Z" fill="#F7EFDA"/>
</g>
<mask id="mask2_283_330" style="mask-type:luminance" maskUnits="userSpaceOnUse" x="118" y="37" width="12" height="11">
<path d="M118.517 37.8843H129.291V47.9673H118.517V37.8843Z" fill="white"/>
</mask>
<g mask="url(#mask2_283_330)">
<path d="M123.546 45.9212L123.332 47.9672L123.118 45.9212C122.983 44.639 121.941 43.6252 120.622 43.4944L118.519 43.2859L120.622 43.0774C121.941 42.9466 122.983 41.9328 123.118 40.6505L123.332 38.6045L123.546 40.6505C123.681 41.9328 124.723 42.9466 126.042 43.0774L128.145 43.2859L126.042 43.4944C124.723 43.6252 123.681 44.639 123.546 45.9212ZM128.348 40.0671L129.287 39.9741L128.348 39.8811C127.76 39.8227 127.294 39.3703 127.234 38.7979L127.139 37.8847L127.043 38.7979C126.983 39.3703 126.518 39.8227 125.93 39.8811L124.991 39.9741L125.93 40.0671C126.518 40.1256 126.983 40.578 127.043 41.1503L127.139 42.0635L127.234 41.1503C127.294 40.578 127.76 40.1256 128.348 40.0671Z" fill="#F7EFDA"/>
</g>
<mask id="mask3_283_330" style="mask-type:luminance" maskUnits="userSpaceOnUse" x="138" y="10" width="12" height="11">
<path d="M138.369 10.0984H149.143V20.1814H138.369V10.0984Z" fill="white"/>
</mask>
<g mask="url(#mask3_283_330)">
<path d="M143.398 18.1354L143.184 20.1815L142.97 18.1354C142.835 16.8533 141.793 15.8394 140.474 15.7086L138.371 15.5001L140.474 15.2917C141.793 15.1608 142.835 14.147 142.97 12.8648L143.184 10.8187L143.398 12.8648C143.533 14.147 144.575 15.1608 145.894 15.2917L147.997 15.5001L145.894 15.7086C144.575 15.8394 143.533 16.8533 143.398 18.1354ZM148.2 12.2813L149.139 12.1883L148.2 12.0954C147.612 12.0369 147.146 11.5845 147.086 11.0121L146.991 10.0989L146.895 11.0121C146.835 11.5845 146.37 12.0369 145.782 12.0954L144.843 12.1883L145.782 12.2813C146.37 12.3398 146.835 12.7922 146.895 13.3645L146.991 14.2777L147.086 13.3645C147.146 12.7922 147.612 12.3398 148.2 12.2813Z" fill="#F7EFDA"/>
</g>
</svg>
