<svg width="318" height="64" viewBox="0 0 318 64" fill="none" xmlns="http://www.w3.org/2000/svg">
<path d="M40.4421 33.3799L49.8592 10.7889H61.129C60.4772 12.1955 60.0483 15.6948 59.8425 21.2868C59.6709 26.8444 59.7053 32.3335 59.9454 37.754C60.2199 43.1401 60.6144 46.4164 61.129 47.5828H48.2125C49.4819 45.0784 50.0308 37.9598 49.8592 26.2269V15.1116L36.2738 47.5828H34.5242L26.3935 18.8167C26.1533 18.1305 25.9646 17.6159 25.8274 17.2729C25.7245 16.9298 25.4844 16.3981 25.107 15.6776C24.7639 14.9229 24.4037 14.3568 24.0263 13.9794C23.6489 13.6021 23.1515 13.2933 22.534 13.0532C21.9165 12.7787 21.2475 12.7101 20.527 12.8473C19.292 13.1561 18.3486 13.9623 17.6967 15.2659C17.0792 16.5353 16.8734 17.9762 17.0792 19.5886C17.3194 21.647 18.1942 23.3966 19.7037 24.8375C21.2132 26.2784 23.2887 26.9645 25.9303 26.8959C24.9011 28.474 23.4431 29.5718 21.5562 30.1893C19.6694 30.8069 17.834 30.9441 16.05 30.601C14.2661 30.2236 12.6708 29.4003 11.2642 28.1309C9.89197 26.8273 9.12007 25.232 8.94854 23.3452C8.77701 21.5269 9.13723 19.6915 10.0292 17.8389C10.9212 15.9521 12.1391 14.5112 13.6829 13.5163C14.9522 12.6586 16.4445 12.024 18.1599 11.6123C19.9095 11.1663 21.6249 10.9433 23.3059 10.9433C24.9869 10.9433 26.788 10.9433 28.7092 10.9433C30.6647 10.9433 32.5001 10.9433 34.2154 10.9433L40.4421 33.3799ZM26.7022 47.5314L17.2336 47.5828C19.8752 46.2792 21.196 43.5518 21.196 39.4007V32.1448C21.7792 31.939 22.3453 31.6988 22.8942 31.4244V39.4007C22.8942 40.7729 23.0486 42.008 23.3573 43.1058C23.6661 44.2036 24.0949 45.1127 24.6438 45.8332C25.2271 46.5536 25.9132 47.1197 26.7022 47.5314ZM86.0533 38.9375C85.9504 39.7952 85.7274 40.6186 85.3843 41.4076C85.0756 42.1624 84.681 42.8657 84.2007 43.5175C83.7205 44.1693 83.1544 44.7697 82.5026 45.3186C81.885 45.8675 81.1818 46.3478 80.3927 46.7595C79.638 47.1711 78.8318 47.4971 77.9741 47.7372C74.5434 48.6635 71.3357 48.2175 68.3511 46.3992C66.6357 45.37 65.2635 44.0321 64.2343 42.3854C63.2394 40.7043 62.6219 38.9718 62.3817 37.1879C62.1759 35.404 62.2959 33.6029 62.7419 31.7846C63.1879 29.932 63.9084 28.2853 64.9032 26.8444C65.9324 25.3693 67.2876 24.1857 68.9686 23.2937C70.6496 22.3674 72.485 21.9043 74.4748 21.9043C77.5624 21.9043 80.2212 23.0021 82.4511 25.1977C84.681 27.3933 85.9332 30.1207 86.2077 33.3799H69.2259C70.0836 35.0609 71.2843 36.4846 72.8281 37.651C74.4062 38.7832 76.3274 39.5379 78.5916 39.9153C80.8558 40.2927 83.3431 39.9667 86.0533 38.9375ZM68.6084 25.1977C67.9565 25.3349 67.5963 26.0039 67.5277 27.2047C67.4591 28.3711 67.7679 29.8463 68.454 31.6302H75.4011C74.7493 29.7434 73.7029 28.1481 72.262 26.8444C70.8211 25.5408 69.6033 24.9919 68.6084 25.1977ZM106.712 26.124C106.746 27.0846 106.454 27.8908 105.837 28.5426C105.254 29.1601 104.55 29.5204 103.727 29.6233C102.904 29.7262 102.046 29.5375 101.154 29.0572C100.296 28.5426 99.6445 27.7707 99.1985 26.7415C100.193 26.4671 100.794 26.0554 101 25.5065C101.24 24.9233 101.12 24.4087 100.639 23.9627C100.159 23.5167 99.5244 23.2765 98.7354 23.2422C97.8091 23.2079 97.1401 23.5167 96.7284 24.1685C96.3168 24.786 96.1795 25.4207 96.3168 26.0725C96.3511 26.2441 96.3854 26.3985 96.4197 26.5357C96.4883 26.6729 96.5741 26.8273 96.677 26.9988C96.8142 27.136 96.9171 27.2733 96.9857 27.4105C97.0887 27.5134 97.2259 27.6335 97.3974 27.7707C97.569 27.9079 97.689 28.028 97.7576 28.1309C97.8606 28.1996 98.0321 28.3196 98.2722 28.4912C98.5124 28.6627 98.6668 28.7828 98.7354 28.8514C98.8383 28.8857 99.027 28.9886 99.3014 29.1601C99.5759 29.3317 99.7474 29.4517 99.816 29.5204C103.761 32.0934 106.163 33.7058 107.02 34.3576C108.324 35.3182 109.319 36.2445 110.005 37.1364C110.726 38.0284 111.172 39.0405 111.343 40.1726C111.549 41.5448 111.326 42.7799 110.674 43.8777C110.057 44.9412 109.13 45.7989 107.895 46.4507C106.66 47.1025 105.305 47.6 103.83 47.943C102.355 48.2518 100.811 48.4233 99.1985 48.4576C94.773 48.5263 91.5824 47.9259 89.627 46.6565C87.6715 45.3872 86.728 43.8262 86.7967 41.9737C86.831 40.8759 87.2598 39.9667 88.0832 39.2463C88.9408 38.5259 90.0729 38.1485 91.4795 38.1142C92.9204 38.0799 94.5843 38.5773 96.4711 39.6065C95.6821 40.224 95.2018 40.9788 95.0303 41.8708C94.8587 42.7284 94.9445 43.5175 95.2876 44.2379C95.6649 44.9584 96.2825 45.5759 97.1401 46.0905C97.9978 46.5708 98.9584 46.7938 100.022 46.7595C101.291 46.6908 102.183 46.1591 102.698 45.1642C102.972 44.7525 103.058 44.3237 102.955 43.8777C102.886 43.3974 102.749 42.9857 102.543 42.6427C102.338 42.2653 102.012 41.8708 101.566 41.4591C101.154 41.0474 100.725 40.67 100.279 40.327C99.8332 39.9839 99.3186 39.6408 98.7354 39.2978C98.1522 38.9204 97.6204 38.5945 97.1401 38.32C96.6941 38.0456 96.2138 37.7711 95.6992 37.4967C95.2189 37.1879 94.8244 36.9134 94.5157 36.6733C93.1434 35.6784 92.0799 34.5463 91.3251 33.2769C90.6047 32.0076 90.2273 30.7897 90.193 29.6233C90.193 28.4225 90.4503 27.2561 90.9649 26.124C91.5481 24.9233 92.4744 23.9284 93.7438 23.1393C95.0131 22.3503 96.3511 21.87 97.7576 21.6984C99.1985 21.4926 100.588 21.4926 101.926 21.6984C103.264 21.9043 104.379 22.4017 105.271 23.1908C106.163 23.9798 106.643 24.9576 106.712 26.124ZM123.796 26.124C123.831 27.0846 123.539 27.8908 122.922 28.5426C122.338 29.1601 121.635 29.5204 120.812 29.6233C119.988 29.7262 119.131 29.5375 118.239 29.0572C117.381 28.5426 116.729 27.7707 116.283 26.7415C117.278 26.4671 117.879 26.0554 118.084 25.5065C118.324 24.9233 118.204 24.4087 117.724 23.9627C117.244 23.5167 116.609 23.2765 115.82 23.2422C114.894 23.2079 114.225 23.5167 113.813 24.1685C113.401 24.786 113.264 25.4207 113.401 26.0725C113.436 26.2441 113.47 26.3985 113.504 26.5357C113.573 26.6729 113.659 26.8273 113.762 26.9988C113.899 27.136 114.002 27.2733 114.07 27.4105C114.173 27.5134 114.311 27.6335 114.482 27.7707C114.654 27.9079 114.791 28.028 114.894 28.1309C114.997 28.1996 115.151 28.3196 115.357 28.4912C115.597 28.6627 115.751 28.7828 115.82 28.8514C115.923 28.8857 116.112 28.9886 116.386 29.1601C116.661 29.3317 116.832 29.4517 116.901 29.5204C120.846 32.1277 123.247 33.7401 124.105 34.3576C125.409 35.3182 126.404 36.2445 127.09 37.1364C127.81 38.0284 128.256 39.0233 128.428 40.1211C128.634 41.5277 128.411 42.7799 127.759 43.8777C127.141 44.9412 126.215 45.7989 124.98 46.4507C123.745 47.1025 122.39 47.6 120.915 47.943C119.439 48.2518 117.896 48.4233 116.283 48.4576C113.504 48.4919 111.172 48.2346 109.285 47.6857C110.657 46.8281 111.669 45.7817 112.321 44.5467C112.389 44.4438 112.441 44.358 112.475 44.2894C112.887 45.0441 113.487 45.6616 114.276 46.1419C115.1 46.5879 116.043 46.7938 117.107 46.7595C118.376 46.6908 119.268 46.1591 119.783 45.1642C120.057 44.7525 120.143 44.3237 120.04 43.8777C119.971 43.3974 119.834 42.9857 119.628 42.6427C119.422 42.2653 119.096 41.8708 118.65 41.4591C118.239 41.0474 117.81 40.67 117.364 40.327C116.918 39.9839 116.403 39.6408 115.82 39.2978C115.237 38.9204 114.705 38.5945 114.225 38.32C113.779 38.0456 113.299 37.7711 112.784 37.4967C112.304 37.1879 111.909 36.9134 111.6 36.6733C110.228 35.6784 109.165 34.5463 108.41 33.2769C107.689 32.0076 107.312 30.7897 107.278 29.6233C107.278 28.4225 107.535 27.2561 108.05 26.124C108.633 24.9233 109.559 23.9284 110.828 23.1393C112.098 22.3503 113.436 21.87 114.842 21.6984C116.283 21.4926 117.673 21.4926 119.011 21.6984C120.349 21.9043 121.464 22.4017 122.356 23.1908C123.247 23.9798 123.728 24.9576 123.796 26.124ZM159.715 36.6733C158.685 35.7813 157.862 34.7864 157.245 33.6886C156.661 32.5908 156.353 31.4758 156.318 30.3437C156.318 29.1773 156.558 28.0795 157.039 27.0503C157.519 25.9868 158.342 25.0433 159.509 24.22C160.71 23.3623 162.202 22.7276 163.986 22.316C168.034 21.3554 171.688 21.87 174.947 23.8598C176.182 22.0758 177.674 20.9094 179.424 20.3605C181.208 19.7773 182.803 20.1032 184.21 21.3382C184.861 22.0244 185.187 22.8134 185.187 23.7054C185.187 24.5974 184.896 25.3349 184.313 25.9182C183.764 26.5014 183.043 26.9302 182.151 27.2047C181.294 27.4448 180.333 27.2904 179.269 26.7415C179.613 26.0897 179.733 25.5579 179.63 25.1463C179.527 24.7003 179.321 24.3744 179.012 24.1685C178.703 23.9284 178.309 23.8255 177.829 23.8598C177.383 23.8941 176.971 24.0656 176.594 24.3744C176.456 24.5116 176.336 24.6488 176.233 24.786C177.434 25.7123 178.395 26.7758 179.115 27.9766C179.836 29.1773 180.23 30.3952 180.299 31.6302C180.402 32.8653 180.196 34.0488 179.681 35.181C179.201 36.2788 178.257 37.2394 176.851 38.0627C175.479 38.8861 173.729 39.435 171.602 39.7094C168.823 40.0525 166.25 39.8295 163.883 39.0405C163.711 38.9718 163.54 38.9032 163.368 38.8346C162.785 39.0748 162.442 39.4521 162.339 39.9667C162.236 40.4813 162.339 40.8244 162.648 40.9959C163.3 41.5105 164.329 41.7678 165.736 41.7678C167.176 41.7678 168.617 41.6649 170.058 41.4591C171.533 41.2532 173.163 41.2189 174.947 41.3562C176.765 41.4934 178.292 41.9222 179.527 42.6427C180.796 43.3974 181.722 44.3408 182.306 45.473C182.889 46.6051 183.095 47.7887 182.923 49.0237C182.752 50.2587 182.203 51.3566 181.276 52.3171C180.384 53.2434 179.201 54.0153 177.726 54.6328C176.285 55.2161 174.707 55.6963 172.991 56.0737C171.276 56.4168 169.423 56.6569 167.434 56.7942C156.01 57.5832 149.011 53.4493 146.438 44.3923C145.546 41.2018 145.031 39.2806 144.894 38.6288C144.585 39.6237 144.26 40.5671 143.916 41.4591C143.573 42.3167 143.145 43.1744 142.63 44.0321C142.15 44.8554 141.618 45.5759 141.035 46.1934C140.451 46.7766 139.765 47.2569 138.976 47.6343C138.222 47.9773 137.415 48.1317 136.558 48.0974C134.602 48.0974 133.058 47.4284 131.926 46.0905C130.828 44.7182 130.348 43.1058 130.485 41.2532C130.623 39.3664 131.343 37.7368 132.647 36.3645C133.573 35.404 134.671 34.5977 135.94 33.9459C137.244 33.2941 138.565 32.7109 139.903 32.1963C141.275 31.6817 142.287 31.2185 142.939 30.8069C142.767 29.9149 142.544 29.0744 142.27 28.2853C141.995 27.4963 141.652 26.7244 141.241 25.9696C140.829 25.1806 140.314 24.6317 139.697 24.3229C139.079 23.9798 138.41 23.9455 137.69 24.22C137.141 24.4258 136.746 24.8718 136.506 25.5579C136.3 26.2441 136.369 26.9817 136.712 27.7707C137.089 28.5598 137.758 29.1773 138.719 29.6233C138.513 30.3437 138.101 30.9955 137.484 31.5788C136.901 32.162 136.232 32.5908 135.477 32.8653C133.865 33.5171 132.492 33.4656 131.36 32.7109C130.228 31.9218 129.748 30.7554 129.919 29.2116C130.091 27.6335 131 26.1755 132.647 24.8375C133.436 24.1857 134.362 23.6196 135.426 23.1393C136.523 22.6247 137.673 22.2302 138.873 21.9557C140.074 21.6813 141.275 21.5269 142.476 21.4926C144.019 21.4926 145.323 21.6641 146.387 22.0072C147.484 22.316 148.393 22.8477 149.114 23.6025C149.834 24.3572 150.418 25.2149 150.864 26.1755C151.31 27.136 151.721 28.3711 152.099 29.8806L154.877 40.224C155.392 42.1795 155.941 43.9292 156.524 45.473C157.142 47.0168 157.776 48.2861 158.428 49.281C159.08 50.2759 159.732 51.1336 160.384 51.854C161.035 52.5401 161.722 53.0719 162.442 53.4493C163.197 53.8266 163.883 54.1182 164.5 54.3241C165.118 54.4956 165.787 54.6157 166.507 54.6843C168.909 54.8901 170.864 54.4098 172.374 53.2434C173.643 52.2828 173.9 51.3222 173.146 50.3617C172.871 50.0186 172.477 49.7098 171.962 49.4354C171.173 49.058 170.024 48.6978 168.514 48.3547C167.039 48.0117 165.667 47.7372 164.398 47.5314C163.128 47.2912 161.91 46.9138 160.744 46.3992C159.612 45.8503 158.857 45.1814 158.48 44.3923C158.205 43.8434 158.051 43.2773 158.017 42.6941C158.017 42.1109 158.137 41.5448 158.377 40.9959C158.617 40.4127 159.011 39.8638 159.56 39.3492C160.109 38.8346 160.795 38.3715 161.619 37.9598C160.933 37.5824 160.298 37.1536 159.715 36.6733ZM143.556 32.9682C142.596 33.9631 141.807 34.958 141.189 35.9529C140.606 36.9478 140.194 38.1142 139.954 39.4521C139.817 40.2755 139.834 40.9273 140.006 41.4076C140.177 41.8879 140.451 42.1281 140.829 42.1281C142.064 42.0594 143.196 39.9839 144.225 35.9014C143.916 34.5291 143.693 33.5514 143.556 32.9682ZM170.933 30.3952C170.35 29.2631 169.664 28.1996 168.875 27.2047C168.12 26.1755 167.314 25.3521 166.456 24.7346C165.633 24.1171 164.929 23.8941 164.346 24.0656C163.557 24.3057 163.248 25.2149 163.42 26.793C163.591 28.3368 164.157 30.0007 165.118 31.7846C166.319 34.0488 167.537 35.6956 168.772 36.7248C170.007 37.754 170.984 38.1142 171.705 37.8054C172.151 37.5996 172.442 37.1879 172.58 36.5704C172.717 35.9529 172.648 35.1123 172.374 34.0488C172.099 32.951 171.619 31.7331 170.933 30.3952ZM206.914 38.9375C206.811 39.7952 206.588 40.6186 206.245 41.4076C205.936 42.1624 205.542 42.8657 205.061 43.5175C204.581 44.1693 204.015 44.7697 203.363 45.3186C202.746 45.8675 202.042 46.3478 201.253 46.7595C200.499 47.1711 199.692 47.4971 198.835 47.7372C195.404 48.6635 192.196 48.2175 189.212 46.3992C187.496 45.37 186.124 44.0321 185.095 42.3854C184.1 40.7043 183.483 38.9718 183.242 37.1879C183.037 35.404 183.157 33.6029 183.603 31.7846C184.049 29.932 184.769 28.2853 185.764 26.8444C186.793 25.3693 188.148 24.1857 189.829 23.2937C191.51 22.3674 193.346 21.9043 195.335 21.9043C198.423 21.9043 201.082 23.0021 203.312 25.1977C205.542 27.3933 206.794 30.1207 207.068 33.3799H190.087C190.944 35.0609 192.145 36.4846 193.689 37.651C195.267 38.7832 197.188 39.5379 199.452 39.9153C201.716 40.2927 204.204 39.9667 206.914 38.9375ZM189.469 25.1977C188.817 25.3349 188.457 26.0039 188.388 27.2047C188.32 28.3711 188.629 29.8463 189.315 31.6302H196.262C195.61 29.7434 194.564 28.1481 193.123 26.8444C191.682 25.5408 190.464 24.9919 189.469 25.1977ZM247.548 10.9433C247.274 13.1389 247.034 17.1528 246.828 22.9849C246.656 28.8171 246.622 33.9974 246.725 38.5259C246.759 39.5208 246.777 40.2755 246.777 40.7901C246.811 41.3047 246.862 41.9908 246.931 42.8485C247.034 43.6719 247.137 44.3065 247.24 44.7525C247.377 45.1985 247.566 45.7474 247.806 46.3992C248.046 47.0168 248.32 47.4799 248.629 47.7887C248.938 48.0974 249.332 48.4233 249.813 48.7664C250.293 49.1095 250.842 49.3325 251.459 49.4354C252.077 49.504 252.797 49.5383 253.621 49.5383C254.444 49.504 255.37 49.3839 256.4 49.1781C257.497 48.9722 258.441 48.5434 259.23 47.8916C260.053 47.2054 260.396 46.4335 260.259 45.5759C260.019 44.2379 259.144 43.3631 257.635 42.9514C256.159 42.5397 254.77 42.7627 253.466 43.6204C252.163 44.4781 251.631 45.7989 251.871 47.5828C250.396 47.4799 249.384 46.6908 248.835 45.2157C248.217 43.6376 248.44 42.1624 249.504 40.7901C250.602 39.4178 252.317 38.7145 254.65 38.6802C255.954 38.6802 257.171 39.0233 258.304 39.7094C259.47 40.3956 260.413 41.2532 261.134 42.2824C261.854 43.3116 262.42 44.4438 262.832 45.6788C263.072 46.6394 263.192 47.6343 263.192 48.6635C263.227 49.6584 263.055 50.6533 262.678 51.6482C262.3 52.6431 261.803 53.535 261.185 54.3241C260.568 55.0788 259.744 55.6963 258.715 56.1766C257.72 56.6226 256.623 56.8456 255.422 56.8456C254.29 56.8113 253.123 56.4854 251.923 55.8679C250.722 55.2504 249.675 54.5642 248.783 53.8095C247.926 53.0204 246.879 52.1799 245.644 51.2879C244.409 50.3617 243.26 49.6755 242.197 49.2295C239.589 48.166 237.462 47.943 235.816 48.5606C236.399 46.9481 236.759 45.1814 236.896 43.2602C236.999 41.4076 237.119 34.9237 237.256 23.8083C237.291 19.6229 237.051 16.2437 236.536 13.6707C234.375 15.2831 232.711 17.3243 231.544 19.7944C230.378 22.2645 229.932 25.009 230.206 28.028C230.378 30.155 230.944 32.0591 231.905 33.7401C232.9 35.4211 234.255 36.6905 235.97 37.5481C232.642 38.543 229.795 38.7317 227.428 38.1142C225.06 37.4624 223.208 36.2959 221.87 34.6149C220.566 32.8996 219.88 30.8583 219.812 28.4912C219.64 22.5904 222.007 18.1305 226.913 15.1116C231.853 12.0926 238.732 10.7032 247.548 10.9433ZM260.893 30.4981C261.751 27.1017 263.62 24.6317 266.502 23.0879C269.384 21.5441 272.437 21.3725 275.662 22.5733C278.921 23.774 281.391 25.9868 283.072 29.2116C284.753 32.4364 285.165 35.747 284.307 39.1434C283.45 42.5054 281.58 44.9584 278.698 46.5022C275.816 48.046 272.746 48.2175 269.487 47.0168C266.262 45.816 263.809 43.6032 262.128 40.3784C260.447 37.1536 260.035 33.8602 260.893 30.4981ZM275.148 33.4313C273.707 30.5839 272.214 28.3368 270.67 26.6901C269.161 25.0433 268.046 24.4087 267.326 24.786C266.605 25.1634 266.502 26.4499 267.017 28.6455C267.531 30.8069 268.526 33.3112 270.002 36.1587C271.477 38.9718 272.969 41.2189 274.479 42.9C276.022 44.5467 277.154 45.1814 277.875 44.804C278.561 44.4266 278.647 43.1401 278.132 40.9445C277.652 38.7489 276.657 36.2445 275.148 33.4313ZM287.409 54.3241C286.723 53.7066 286.243 52.9861 285.969 52.1628C285.694 51.3394 285.694 50.516 285.969 49.6927C286.277 48.8693 286.895 48.2003 287.821 47.6857C288.473 47.3427 289.228 47.1368 290.085 47.0682C290.977 46.9996 291.835 47.0682 292.658 47.2741C293.482 47.4799 294.219 47.8916 294.871 48.5091C295.557 49.0923 296.02 49.8128 296.261 50.6704C295.128 51.0135 294.545 51.6139 294.511 52.4715C294.511 53.4321 295.197 54.1354 296.569 54.5814C297.427 54.8558 298.456 54.9759 299.657 54.9416C301.132 54.9073 302.213 54.4956 302.899 53.7066C303.619 52.8832 303.842 51.9912 303.568 51.0306C303.293 50.0357 302.607 49.2638 301.509 48.7149C300.755 48.3376 299.674 47.9945 298.268 47.6857C296.861 47.3427 295.574 47.0682 294.408 46.8624C293.276 46.6222 292.144 46.1934 291.012 45.5759C289.88 44.9584 289.056 44.1522 288.542 43.1573C288.027 42.231 287.941 41.2361 288.284 40.1726C288.627 39.1091 289.382 38.2343 290.549 37.5481C288.97 36.5189 287.787 35.2496 286.998 33.7401C286.209 32.1963 285.866 30.6868 285.969 29.2116C286.106 27.7364 286.826 26.3641 288.13 25.0948C289.468 23.7911 291.303 22.8649 293.636 22.316C297.684 21.3554 301.338 21.87 304.597 23.8598C305.832 22.0758 307.324 20.9094 309.074 20.3605C310.858 19.7773 312.453 20.1032 313.86 21.3382C314.512 22.0244 314.838 22.8134 314.838 23.7054C314.838 24.5974 314.546 25.3349 313.963 25.9182C313.414 26.5014 312.693 26.9302 311.801 27.2047C310.944 27.4448 309.983 27.2904 308.92 26.7415C309.331 25.9525 309.4 25.2835 309.126 24.7346C308.885 24.1857 308.474 23.9112 307.891 23.9112C307.342 23.8769 306.793 24.0313 306.244 24.3744C306.107 24.5116 305.987 24.6488 305.884 24.786C307.084 25.7123 308.045 26.7758 308.765 27.9766C309.486 29.1773 309.88 30.3952 309.949 31.6302C310.052 32.8653 309.846 34.0488 309.331 35.181C308.851 36.2788 307.908 37.2394 306.501 38.0627C305.129 38.8861 303.379 39.435 301.252 39.7094C297.89 40.1211 294.871 39.7094 292.195 38.4744C291.749 38.8518 291.578 39.2978 291.681 39.8124C291.818 40.327 292.195 40.7558 292.813 41.0989C293.362 41.4076 294.048 41.5963 294.871 41.6649C295.695 41.7335 296.535 41.7164 297.393 41.6135C298.25 41.5105 299.211 41.4076 300.274 41.3047C301.338 41.2018 302.35 41.1332 303.311 41.0989C304.271 41.0302 305.283 41.0989 306.347 41.3047C307.41 41.5105 308.371 41.8708 309.228 42.3854C311.321 43.6204 312.488 45.4215 312.728 47.7887C312.968 50.1215 312.145 52.1285 310.258 53.8095C308.851 55.0445 306.553 55.9365 303.362 56.4854C300.206 57 297.067 57.0686 293.945 56.6912C290.857 56.2796 288.679 55.4905 287.409 54.3241ZM300.583 30.3952C299.657 28.5769 298.542 27.016 297.238 25.7123C295.969 24.3744 294.888 23.8255 293.996 24.0656C293.207 24.3057 292.899 25.2149 293.07 26.793C293.242 28.3368 293.808 30.0007 294.768 31.7846C295.969 34.0488 297.187 35.6956 298.422 36.7248C299.657 37.754 300.635 38.1142 301.355 37.8054C301.801 37.5996 302.093 37.1879 302.23 36.5704C302.367 35.9529 302.299 35.1123 302.024 34.0488C301.75 32.951 301.269 31.7331 300.583 30.3952Z" fill="#738942"/>
<path d="M9.97633 11.4673L12.7658 10.9784L9.97633 10.4895C8.22818 10.1828 6.84567 7.80519 6.66763 4.79827L6.38292 0L6.09872 4.79776C5.92068 7.80468 4.53816 10.1828 2.79001 10.489L0 10.9784L2.7895 11.4673C4.53765 11.7741 5.92029 14.1517 6.09821 17.1586L6.38241 21.9563L6.66661 17.1581C6.84567 14.1517 8.2278 11.7741 9.97633 11.4673Z" fill="#738942"/>
<path d="M3.34446 5.69484L4 5.57996L3.34446 5.46507C2.93364 5.39298 2.60875 4.83424 2.56691 4.12761L2.5 3L2.43321 4.12749C2.39137 4.83412 2.06648 5.39298 1.65566 5.46495L1 5.57996L1.65554 5.69484C2.06636 5.76693 2.39128 6.32567 2.43309 7.0323L2.49988 8.15979L2.56667 7.03219C2.60875 6.32567 2.93355 5.76693 3.34446 5.69484Z" fill="#738942"/>
<path d="M211.976 22.4673L214.766 21.9784L211.976 21.4895C210.228 21.1828 208.846 18.8052 208.668 15.7983L208.383 11L208.099 15.7978C207.921 18.8047 206.538 21.1828 204.79 21.489L202 21.9784L204.79 22.4673C206.538 22.7741 207.92 25.1517 208.098 28.1586L208.382 32.9563L208.667 28.1581C208.846 25.1517 210.228 22.7741 211.976 22.4673Z" fill="#738942"/>
<path d="M267.25 56.3336L269.277 55.9784L267.25 55.6231C265.98 55.4001 264.975 53.6723 264.846 51.4871L264.639 48L264.432 51.4867C264.303 53.6719 263.298 55.4001 262.028 55.6227L260 55.9784L262.027 56.3336C263.298 56.5566 264.302 58.2844 264.432 60.4697L264.638 63.9563L264.845 60.4693C264.975 58.2844 265.979 56.5566 267.25 56.3336Z" fill="#738942"/>
<path d="M315.887 41.7668L317.533 41.4783L315.887 41.1898C314.855 41.0088 314.04 39.6058 313.935 37.8314L313.767 35L313.599 37.8311C313.494 39.6055 312.678 41.0088 311.646 41.1895L310 41.4783L311.646 41.7668C312.678 41.9478 313.494 43.3508 313.599 45.1252L313.766 47.9563L313.934 45.1249C314.04 43.3508 314.855 41.9478 315.887 41.7668Z" fill="#738942"/>
<path d="M316.817 38.0891L317.326 38L316.817 37.911C316.499 37.8551 316.247 37.4219 316.215 36.8741L316.163 36L316.111 36.8741C316.079 37.4219 315.827 37.8551 315.508 37.9109L315 38L315.508 38.0891C315.827 38.145 316.079 38.5781 316.111 39.1259L316.163 40L316.215 39.1259C316.247 38.5781 316.499 38.145 316.817 38.0891Z" fill="#738942"/>
<path d="M146.452 49.2673L147.977 49.0001L146.452 48.7329C145.497 48.5653 144.741 47.2658 144.644 45.6224L144.489 43L144.333 45.6222C144.236 47.2656 143.48 48.5653 142.525 48.7327L141 49.0001L142.525 49.2673C143.48 49.435 144.236 50.7344 144.333 52.3778L144.488 55L144.644 52.3776C144.741 50.7344 145.497 49.435 146.452 49.2673Z" fill="#738942"/>
<path d="M89.4525 25.2673L90.977 25.0001L89.4525 24.7329C88.497 24.5653 87.7414 23.2658 87.6441 21.6224L87.4885 19L87.3332 21.6222C87.2359 23.2656 86.4803 24.5653 85.5249 24.7327L84 25.0001L85.5246 25.2673C86.48 25.435 87.2357 26.7344 87.3329 28.3778L87.4882 31L87.6436 28.3776C87.7414 26.7344 88.4968 25.435 89.4525 25.2673Z" fill="#738942"/>
</svg>
