<svg width="1120" height="210" viewBox="0 0 1120 210" fill="none" xmlns="http://www.w3.org/2000/svg">
<path d="M103.278 142.425C90.2337 140.654 79.7987 140.794 71.9724 142.844C73.4631 138.465 74.3482 133.62 74.6277 128.309C75.5594 112.284 75.7923 95.2339 75.3265 77.1589C75.047 63.1833 73.7426 54.1924 71.4133 50.1861C76.4445 49.7202 82.0813 48.6953 88.3238 47.1114C94.6593 45.5276 99.5508 43.9437 102.998 42.3598C101.135 47.2046 100.063 58.2919 99.7837 75.6216C99.6905 81.305 99.6905 87.3145 99.7837 93.6501C99.8769 107.439 100.063 116.756 100.343 121.601C100.809 131.57 101.787 138.512 103.278 142.425ZM187.131 178.761C184.615 178.668 182.333 177.783 180.283 176.106C178.233 174.522 176.742 172.565 175.811 170.236C174.879 168 174.46 165.531 174.553 162.829C174.646 160.127 175.345 157.705 176.649 155.562C179.165 151.555 182.985 148.947 188.109 147.735C193.327 146.524 198.498 146.804 203.622 148.574C208.84 150.344 212.846 153.139 215.641 156.959C217.784 160.034 219.042 163.341 219.414 166.882C219.787 170.422 219.088 174.382 217.318 178.761C215.641 182.488 212.893 185.702 209.073 188.404C205.346 191.199 201.106 193.296 196.355 194.693C191.603 196.091 186.386 196.603 180.702 196.231C175.112 195.951 169.661 194.786 164.351 192.737C159.04 190.687 153.869 187.333 148.838 182.674C143.9 178.109 139.754 172.472 136.4 165.764C133.977 160.919 131.834 155.375 129.971 149.133C128.201 142.891 126.757 137.487 125.638 132.921C124.52 128.356 123.169 123.93 121.586 119.645C120.002 115.266 117.719 111.772 114.738 109.163C111.849 106.554 108.076 104.924 103.417 104.271V102.035C109.66 99.613 114.924 96.4452 119.21 92.532C123.496 88.5257 126.524 84.333 128.294 79.954C130.157 75.575 130.996 71.1028 130.809 66.5375C130.623 61.879 129.505 57.6397 127.455 53.8197C125.406 49.9066 122.378 46.5524 118.371 43.7573C114.365 40.9622 109.706 39.1454 104.396 38.3069C99.7371 37.5615 94.9389 37.7012 90.0008 38.7261C85.156 39.6578 80.544 41.4746 76.165 44.1766C71.786 46.8785 67.8729 50.2327 64.4256 54.239C61.0714 58.1521 58.5092 62.9504 56.739 68.6338C55.0619 74.224 54.5029 80.2335 55.0619 86.6623C55.5278 92.4388 57.0651 97.6564 59.6739 102.315C62.3758 106.88 66.0095 110.328 70.5748 112.657C63.8665 114.707 57.857 115.499 52.5463 115.033C47.2356 114.474 42.6703 112.983 38.8503 110.56C35.1235 108.045 32.2352 104.83 30.1854 100.917C28.1357 97.0042 27.0177 92.6252 26.8313 87.7803C26.645 80.2335 28.0891 73.1992 31.1637 66.6772C34.2384 60.1553 38.5242 54.5651 44.0212 49.9066C49.6115 45.248 56.0402 41.3815 63.3075 38.3069C70.5748 35.1391 78.3545 32.9496 86.6467 31.7383C95.032 30.5271 103.464 30.2942 111.942 31.0396C117.719 31.5986 123.076 32.6235 128.014 34.1142C132.952 35.6049 137.145 37.4217 140.592 39.5647C144.133 41.7076 147.207 44.1766 149.816 46.9717C152.518 49.6736 154.521 52.5153 155.826 55.4968C157.13 58.4782 158.015 61.5994 158.481 64.8604C159.04 68.0282 158.947 71.196 158.202 74.3638C156.245 82.2833 152.145 88.6188 145.903 93.3705C139.661 98.0291 132.021 101.243 122.983 103.014C129.132 105.436 134.583 108.837 139.335 113.216C144.086 117.502 147.86 122.114 150.655 127.052C153.45 131.99 155.965 137.207 158.202 142.704C160.531 148.108 162.674 153.279 164.63 158.217C166.68 163.155 168.87 167.674 171.199 171.773C173.528 175.873 176.51 179.227 180.143 181.836C183.777 184.445 188.016 185.889 192.861 186.168C196.122 186.355 199.476 185.842 202.923 184.631C206.371 183.513 209.166 181.743 211.309 179.32C213.452 176.898 214.011 174.242 212.986 171.354C212.054 168.932 210.47 166.975 208.234 165.484C205.998 163.901 203.575 163.062 200.967 162.969C198.451 162.876 196.029 163.295 193.699 164.227C191.37 165.158 189.553 166.882 188.249 169.398C187.038 172.006 186.665 175.128 187.131 178.761ZM159.965 96.0259C162.294 86.802 167.372 80.0938 175.198 75.9011C183.025 71.7084 191.317 71.2426 200.075 74.5035C208.926 77.7645 215.634 83.774 220.199 92.532C224.765 101.29 225.883 110.281 223.554 119.505C221.224 128.636 216.147 135.297 208.32 139.49C200.494 143.683 192.155 144.148 183.304 140.887C174.546 137.626 167.884 131.617 163.319 122.859C158.754 114.101 157.636 105.157 159.965 96.0259ZM198.677 103.992C194.764 96.2588 190.711 90.1562 186.518 85.684C182.419 81.2118 179.391 79.4882 177.434 80.513C175.478 81.5379 175.198 85.0318 176.596 90.9947C177.993 96.8644 180.695 103.666 184.702 111.399C188.708 119.039 192.761 125.142 196.86 129.707C201.053 134.179 204.128 135.903 206.084 134.878C207.948 133.853 208.181 130.359 206.783 124.396C205.479 118.433 202.777 111.632 198.677 103.992ZM334.559 142.425H304.092C306.142 137.766 307.4 132.316 307.866 126.073C308.331 119.738 308.145 114.054 307.306 109.023C306.561 103.899 305.49 99.939 304.092 97.1439C309.776 97.1439 315.366 96.5383 320.863 95.3271C326.453 94.1159 331.018 92.2991 334.559 89.8767C332.509 95.0942 331.344 103.34 331.065 114.613C330.879 125.794 332.043 135.064 334.559 142.425ZM294.03 159.335C290.21 162.689 283.967 165.112 275.302 166.602C266.731 168 258.206 168.186 249.727 167.161C241.342 166.043 235.426 163.901 231.978 160.733C230.115 159.056 228.81 157.099 228.065 154.863C227.32 152.627 227.32 150.391 228.065 148.155C228.904 145.919 230.581 144.102 233.096 142.704C234.867 141.773 236.916 141.214 239.246 141.027C241.668 140.841 243.997 141.027 246.233 141.586C248.469 142.145 250.473 143.263 252.243 144.94C254.106 146.524 255.364 148.481 256.016 150.81C252.942 151.742 251.358 153.372 251.265 155.702C251.265 158.31 253.128 160.22 256.855 161.431C259.184 162.177 261.979 162.503 265.24 162.41C269.246 162.317 272.181 161.199 274.045 159.056C276.001 156.82 276.607 154.397 275.861 151.788C275.116 149.086 273.253 146.99 270.271 145.499C268.222 144.474 265.287 143.543 261.467 142.704C257.647 141.773 254.153 141.027 250.985 140.468C247.91 139.816 244.836 138.651 241.761 136.974C238.687 135.297 236.45 133.108 235.053 130.406C233.655 127.89 233.422 125.188 234.354 122.3C235.286 119.412 237.336 117.036 240.503 115.172C236.218 112.377 233.003 108.93 230.86 104.83C228.717 100.638 227.786 96.5383 228.065 92.532C228.438 88.5257 230.394 84.7989 233.935 81.3516C237.568 77.8111 242.553 75.2955 248.889 73.8048C261.001 70.9165 271.482 72.7333 280.334 79.2552C283.222 76.0874 287.554 73.2457 293.331 70.7301C299.107 68.1214 305.164 66.4909 311.499 65.8387C317.928 65.1865 323.611 66.3045 328.549 69.1928C332.462 71.5221 334.419 74.5501 334.419 78.2769C334.419 80.3267 333.72 82.2367 332.323 84.0069C331.018 85.7772 329.202 87.1747 326.872 88.1996C324.543 89.1313 322.027 89.5971 319.325 89.5971C314.667 89.5971 310.8 88.2462 307.726 85.5442C307.353 85.1715 306.98 84.7989 306.608 84.4262C304.185 82.0969 301.763 80.4199 299.34 79.395C296.918 78.2769 294.682 77.8577 292.632 78.1372C290.676 78.4167 288.999 78.8825 287.601 79.5347C286.203 80.1869 284.899 80.9789 283.688 81.9106V82.0503C285.831 84.0069 287.834 86.243 289.697 88.7586C291.654 92.0196 292.772 95.3737 293.051 98.821C293.424 102.175 292.912 105.39 291.514 108.464C290.21 111.539 287.648 114.241 283.828 116.57C280.101 118.806 275.349 120.297 269.572 121.042C260.442 122.16 252.243 121.042 244.976 117.688C243.764 118.713 243.298 119.924 243.578 121.322C243.951 122.719 244.976 123.884 246.653 124.816C248.423 125.747 250.659 126.26 253.361 126.353C256.156 126.446 259.091 126.306 262.165 125.934C265.333 125.468 268.501 125.095 271.669 124.816C274.93 124.536 278.284 124.629 281.731 125.095C285.272 125.561 288.439 126.632 291.235 128.309C296.918 131.664 300.086 136.555 300.738 142.984C301.39 149.319 299.154 154.77 294.03 159.335ZM249.867 78.5564C247.724 79.2086 246.886 81.6777 247.351 85.9635C247.817 90.1562 249.355 94.6749 251.963 99.5198C254.106 103.712 256.342 107.16 258.672 109.862C261.094 112.564 263.237 114.38 265.1 115.312C267.057 116.244 268.641 116.43 269.852 115.871C271.063 115.312 271.855 114.194 272.228 112.517C272.601 110.84 272.414 108.557 271.669 105.669C271.017 102.688 269.712 99.38 267.756 95.7464C265.24 90.8084 262.212 86.5691 258.672 83.0286C255.224 79.395 252.289 77.9043 249.867 78.5564ZM419.984 97.2837C421.568 106.787 427.159 112.331 436.755 113.915C432.283 114.753 428.556 116.617 425.575 119.505C422.686 122.393 420.823 126.027 419.984 130.406C419.146 125.934 417.282 122.253 414.394 119.365C411.506 116.384 407.826 114.567 403.353 113.915C412.857 112.238 418.4 106.694 419.984 97.2837ZM517.813 173.45C512.968 173.171 509.428 170.795 507.192 166.323C504.863 161.571 505.049 157.146 507.751 153.046C510.919 148.667 516.323 146.384 523.963 146.198C527.223 146.198 530.298 147.083 533.186 148.853C536.168 150.531 538.497 152.72 540.174 155.422C541.851 158.124 543.016 161.105 543.668 164.366C544.413 167.627 544.134 170.749 542.83 173.73C541.246 178.016 538.031 181.37 533.186 183.792C528.435 186.308 521.726 187.193 513.062 186.448C498.9 185.237 486.461 179.134 475.747 168.14C465.032 157.239 455.343 140.002 446.678 116.43C437.174 90.4357 429.581 70.3109 423.898 56.0558C423.804 55.9626 423.758 55.8229 423.758 55.6365C422.826 53.4005 421.988 51.5836 421.242 50.1861C420.59 48.6953 419.472 46.8785 417.888 44.7356C416.397 42.4995 414.581 40.9622 412.438 40.1237C410.388 39.2851 408.152 39.2386 405.729 39.9839C400.605 41.3815 397.484 45.3412 396.366 51.8631C395.341 58.2919 397.204 64.348 401.956 70.0314C406.801 75.7148 413.882 78.1838 423.199 77.4384C420.87 80.8857 417.795 83.6342 413.975 85.684C410.155 87.6406 406.242 88.712 402.235 88.8984C398.322 89.0847 394.456 88.712 390.636 87.7803C386.909 86.7554 383.648 85.0784 380.853 82.7491C378.058 80.3267 376.241 77.485 375.402 74.224C374.098 69.3792 374.098 64.5809 375.402 59.8292C376.707 54.9843 379.036 50.7917 382.39 47.2512C385.744 43.6176 389.844 40.4964 394.689 37.8876C399.627 35.1856 404.984 33.5086 410.761 32.8564C416.63 32.2042 422.733 32.4837 429.068 33.6949C433.448 34.813 437.267 36.3503 440.528 38.3069C443.883 40.1703 446.678 42.4995 448.914 45.2946C451.15 48.0897 452.92 50.8383 454.225 53.5402C455.622 56.2421 457.113 59.5497 458.697 63.4629C459.442 65.6989 462.004 72.8731 466.383 84.9852C470.855 97.0042 475.188 108.604 479.38 119.784C479.753 120.716 480.266 122.16 480.918 124.117C482.129 127.285 483.061 129.8 483.713 131.664C484.458 133.434 485.53 136.136 486.927 139.769C488.418 143.31 489.676 146.198 490.701 148.434C491.819 150.67 493.263 153.419 495.033 156.68C496.803 159.848 498.434 162.456 499.925 164.506C501.508 166.556 503.325 168.699 505.375 170.935C507.518 173.264 509.614 175.034 511.664 176.246C513.714 177.55 515.95 178.575 518.372 179.32C520.888 180.159 523.45 180.438 526.059 180.159C529.506 179.879 532.721 178.482 535.702 175.966C538.777 173.45 540.034 170.749 539.475 167.86C538.823 163.668 536.494 160.872 532.488 159.475C528.574 157.984 524.941 158.543 521.587 161.152C518.233 163.668 516.975 167.767 517.813 173.45ZM392.592 118.247C390.636 123.558 389.704 127.89 389.797 131.244C389.89 134.505 391.521 138.185 394.689 142.285L367.856 142.425C372.607 140.468 376.567 137.72 379.735 134.179C382.996 130.639 385.698 125.281 387.841 118.107L395.667 92.532C397.251 92.6252 398.835 92.6252 400.419 92.532L392.592 118.247ZM518.175 110.281C518.175 125.84 519.386 136.555 521.808 142.425H490.084C491.668 138.884 492.786 133.9 493.438 127.471C494.183 121.042 494.463 114.707 494.276 108.464C494.09 102.129 493.624 96.2588 492.879 90.8549C492.134 85.4511 491.202 81.7708 490.084 79.8142C499.774 78.8825 509.137 76.8328 518.175 73.665V98.6812C521.622 86.0101 526.141 77.9974 531.731 74.6433C533.501 73.6184 535.458 72.9662 537.601 72.6867C539.744 72.314 541.933 72.4538 544.169 73.106C546.498 73.665 548.595 74.7365 550.458 76.3204C552.322 77.8111 553.859 80.1403 555.07 83.3081C556.281 86.3828 556.887 90.063 556.887 94.3488C556.887 94.6283 556.84 96.2588 556.747 99.2403C556.747 102.222 556.747 104.644 556.747 106.508C556.84 108.278 556.887 110.887 556.887 114.334C556.98 117.688 557.073 120.576 557.166 122.999C557.353 125.421 557.586 127.983 557.865 130.685C558.145 133.387 558.471 135.763 558.844 137.813C559.309 139.769 559.868 141.307 560.521 142.425H529.914C530.846 141.214 531.638 137.766 532.29 132.083C532.942 126.306 533.361 120.25 533.548 113.915C533.734 107.486 533.408 101.709 532.57 96.5849C531.824 91.3674 530.52 88.6654 528.656 88.4791C526.607 88.3859 524.79 90.1096 523.206 93.6501C521.622 97.1905 520.085 101.989 518.594 108.045C518.408 108.79 518.268 109.536 518.175 110.281ZM591.055 110.281C591.055 125.84 592.266 136.555 594.689 142.425H562.964C564.548 138.884 565.666 133.9 566.318 127.471C567.064 121.042 567.343 114.707 567.157 108.464C566.97 102.129 566.505 96.2588 565.759 90.8549C565.014 85.4511 564.082 81.7708 562.964 79.8142C572.654 78.8825 582.017 76.8328 591.055 73.665V98.6812C594.502 86.0101 599.021 77.9974 604.611 74.6433C606.382 73.6184 608.338 72.9662 610.481 72.6867C612.624 72.314 614.813 72.4538 617.05 73.106C619.379 73.665 621.475 74.7365 623.339 76.3204C625.202 77.8111 626.739 80.1403 627.95 83.3081C629.162 86.3828 629.767 90.063 629.767 94.3488C629.767 94.6283 629.721 96.2588 629.628 99.2403C629.628 102.222 629.628 104.644 629.628 106.508C629.721 108.278 629.767 110.887 629.767 114.334C629.86 117.688 629.954 120.576 630.047 122.999C630.233 125.421 630.466 127.983 630.746 130.685C631.025 133.387 631.351 135.763 631.724 137.813C632.19 139.769 632.749 141.307 633.401 142.425H602.794C603.726 141.214 604.518 137.766 605.17 132.083C605.823 126.306 606.242 120.25 606.428 113.915C606.614 107.486 606.288 101.709 605.45 96.5849C604.704 91.3674 603.4 88.6654 601.537 88.4791C599.487 88.3859 597.67 90.1096 596.086 93.6501C594.502 97.1905 592.965 101.989 591.474 108.045C591.288 108.79 591.148 109.536 591.055 110.281ZM687.441 67.6555C686.416 60.3882 687.627 53.9129 691.074 48.2295C694.615 42.5461 699.646 38.2603 706.168 35.372C712.69 32.4837 719.91 31.2259 727.83 31.5986C740.128 32.1576 748.188 36.2105 752.008 43.7573C754.803 49.3475 754.663 55.0309 751.588 60.8075C748.7 66.2114 744.414 69.1928 738.731 69.7519C738.358 69.845 737.939 69.8916 737.473 69.8916C734.305 69.9848 731.37 69.0065 728.668 66.9567C726.06 64.8138 724.383 62.0653 723.637 58.7112C722.985 55.357 723.963 51.6302 726.572 47.5307C727.411 50.1395 728.948 52.1892 731.184 53.68C733.513 55.1707 735.843 55.8229 738.172 55.6365C742.551 55.1707 744.833 53.2607 745.02 49.9066C745.299 46.4593 743.669 43.4778 740.128 40.9622C736.961 38.7261 733.187 37.7478 728.808 38.0273C724.15 38.3069 720.05 40.0771 716.51 43.3381C713.062 46.599 711.525 50.6519 711.898 55.4968C712.27 58.7577 713.575 61.7858 715.811 64.5809C718.14 67.2828 721.587 69.3792 726.153 70.8699C726.991 71.1494 728.342 71.6153 730.206 72.2674C733.187 73.1992 735.47 73.9445 737.054 74.5035C738.638 75.0626 740.92 75.9011 743.902 77.0191C746.976 78.1372 749.399 79.1621 751.169 80.0938C752.939 80.9323 755.129 82.0969 757.738 83.5877C760.346 84.9852 762.443 86.3828 764.027 87.7803C765.61 89.0847 767.288 90.7152 769.058 92.6718C770.828 94.5352 772.132 96.4917 772.971 98.5415C773.903 100.498 774.601 102.734 775.067 105.25C775.533 107.765 775.626 110.374 775.347 113.076C774.788 118.573 773.157 123.511 770.455 127.89C767.847 132.176 764.632 135.623 760.812 138.232C757.085 140.841 752.706 143.03 747.675 144.801C742.644 146.571 737.799 147.829 733.141 148.574C728.482 149.319 723.637 149.785 718.606 149.972C708.916 150.344 700.158 149.413 692.332 147.176C684.506 144.847 678.356 141.307 673.884 136.555C669.412 131.71 667.502 125.98 668.154 119.365C668.62 114.427 670.763 110.188 674.583 106.647C678.496 103.014 683.062 100.451 688.279 98.9608C693.497 97.47 698.854 96.7247 704.351 96.7247C709.848 96.7247 714.6 97.5166 718.606 99.1005C722.519 100.591 725.547 102.921 727.69 106.088C729.926 109.256 731.091 112.564 731.184 116.011C731.37 119.458 730.858 122.766 729.647 125.934C728.529 129.101 726.525 131.71 723.637 133.76C720.749 135.716 717.441 136.602 713.715 136.415C710.454 136.322 707.472 135.111 704.77 132.782C702.161 130.452 700.578 127.564 700.019 124.117C699.553 120.576 700.81 116.756 703.792 112.657C704.444 115.359 705.888 117.595 708.124 119.365C710.454 121.042 712.783 121.834 715.112 121.741C718.559 121.555 720.935 120.297 722.24 117.968C723.637 115.638 723.684 113.123 722.379 110.421C721.075 107.626 718.792 105.576 715.531 104.271C712.829 103.06 710.034 102.594 707.146 102.874C704.351 103.153 701.742 103.945 699.32 105.25C696.99 106.461 694.987 108.371 693.31 110.98C691.726 113.589 690.841 116.617 690.655 120.064C690.375 123.697 691.167 127.098 693.031 130.266C694.894 133.341 697.456 135.856 700.717 137.813C703.978 139.769 707.612 141.307 711.618 142.425C715.625 143.45 719.771 143.869 724.056 143.683C728.342 143.403 732.302 142.564 735.936 141.167C740.967 139.117 744.787 136.369 747.396 132.921C750.098 129.381 751.402 125.747 751.309 122.02C751.216 118.294 749.632 114.567 746.557 110.84C743.576 107.113 739.29 104.039 733.7 101.616C731.65 100.778 728.808 99.6595 725.175 98.262C721.541 96.7713 718.559 95.56 716.23 94.6283C713.901 93.6035 711.199 92.3923 708.124 90.9947C705.05 89.504 702.488 88.0598 700.438 86.6623C698.388 85.1715 696.338 83.4945 694.289 81.6311C692.332 79.6745 690.795 77.5316 689.677 75.2023C688.559 72.8731 687.813 70.3575 687.441 67.6555ZM777.673 96.0259C780.003 86.802 785.08 80.0938 792.907 75.9011C800.733 71.7084 809.025 71.2426 817.783 74.5035C826.634 77.7645 833.343 83.774 837.908 92.532C842.473 101.29 843.591 110.281 841.262 119.505C838.933 128.636 833.855 135.297 826.029 139.49C818.202 143.683 809.864 144.148 801.013 140.887C792.255 137.626 785.593 131.617 781.028 122.859C776.462 114.101 775.344 105.157 777.673 96.0259ZM816.386 103.992C812.473 96.2588 808.42 90.1562 804.227 85.684C800.127 81.2118 797.099 79.4882 795.143 80.513C793.186 81.5379 792.907 85.0318 794.304 90.9947C795.702 96.8644 798.404 103.666 802.41 111.399C806.416 119.039 810.469 125.142 814.569 129.707C818.762 134.179 821.836 135.903 823.793 134.878C825.656 133.853 825.889 130.359 824.491 124.396C823.187 118.433 820.485 111.632 816.386 103.992ZM876.38 41.3815C874.33 47.8102 873.259 64.6275 873.166 91.8332C873.073 119.039 874.144 135.903 876.38 142.425H844.795C847.125 136.928 848.429 124.117 848.708 103.992C849.081 83.774 848.382 68.8201 846.612 59.1304C844.749 59.4099 842.326 59.8758 839.345 60.528C836.363 61.1802 833.801 61.7392 831.658 62.2051C829.515 62.6709 826.953 63.1833 823.972 63.7424C820.99 64.2082 818.382 64.5809 816.145 64.8604C813.909 65.1399 811.44 65.3728 808.738 65.5592C805.943 65.6524 803.474 65.6058 801.331 65.4194C799.188 65.2331 796.999 64.907 794.763 64.4411C792.527 63.8821 790.524 63.1368 788.753 62.2051C786.983 61.2734 785.306 60.1087 783.722 58.7112C782.138 57.2204 780.787 55.4968 779.669 53.5402C777.526 49.9997 776.548 45.9934 776.734 41.5212C776.828 37.0491 778.132 32.903 780.648 29.083C782.79 26.0084 785.586 23.6325 789.033 21.9555C792.387 20.2784 796.254 19.6262 800.633 19.9989C805.012 20.2784 809.437 21.7691 813.909 24.4711C809.996 26.055 807.108 28.5706 805.245 32.0179C803.381 35.4652 802.915 38.959 803.847 42.4995C804.685 45.9468 806.828 48.509 810.276 50.1861C814.189 52.0495 819.826 53.0278 827.186 53.1209C834.547 53.1209 842.699 52.1427 851.643 50.1861C860.588 48.1363 868.833 45.2015 876.38 41.3815ZM909.938 142.425H879.471C881.521 137.766 882.779 132.316 883.244 126.073C883.71 119.738 883.524 114.054 882.685 109.023C881.94 103.899 880.869 99.939 879.471 97.1439C885.154 97.1439 890.745 96.5383 896.242 95.3271C901.832 94.1159 906.397 92.2991 909.938 89.8767C907.888 95.0942 906.723 103.34 906.444 114.613C906.258 125.887 907.422 135.157 909.938 142.425ZM883.943 86.3828C881.055 84.1467 879.611 81.4447 879.611 78.2769C879.611 75.1091 881.055 72.4072 883.943 70.1711C886.925 67.935 890.512 66.817 894.704 66.817C898.897 66.817 902.484 67.935 905.466 70.1711C908.447 72.4072 909.938 75.1091 909.938 78.2769C909.938 81.4447 908.447 84.1467 905.466 86.3828C902.484 88.5257 898.897 89.5971 894.704 89.5971C890.512 89.5971 886.925 88.5257 883.943 86.3828ZM946.81 115.592C947.463 118.2 948.254 120.39 949.186 122.16C950.118 123.93 951.143 125.188 952.261 125.934C953.379 126.586 954.59 126.353 955.894 125.235C957.199 124.024 958.363 121.834 959.388 118.666C962.277 110.374 963.861 102.594 964.14 95.3271C964.233 89.9232 963.814 85.4976 962.882 82.0503C961.951 78.603 960.134 75.7613 957.432 73.5252C961.065 71.4755 964.14 71.1494 966.656 72.547C969.264 73.9445 970.802 76.3669 971.268 79.8142C972.013 85.5908 970.289 96.4452 966.097 112.377C961.997 128.216 958.177 137.58 954.637 140.468C952.68 142.145 950.351 143.31 947.649 143.962C944.947 144.521 942.059 144.335 938.984 143.403C936.003 142.471 933.534 140.561 931.577 137.673C929.527 134.505 927.245 128.076 924.729 118.387C922.213 108.697 919.744 99.38 917.322 90.4357C914.9 81.3981 912.617 75.8079 910.474 73.665H943.456C942.059 75.3421 941.267 78.3701 941.08 82.7491C940.894 87.035 941.36 91.7401 942.478 96.8644L946.81 115.592ZM1014.44 108.883C1014.53 104.691 1014.58 101.896 1014.58 100.498C1014.3 100.684 1013.93 101.057 1013.46 101.616C1011.41 103.666 1009.83 105.343 1008.71 106.647C1007.69 107.952 1006.48 109.908 1005.08 112.517C1003.68 115.126 1002.75 117.828 1002.28 120.623C1001.91 122.859 1001.96 124.629 1002.42 125.934C1002.89 127.238 1003.63 127.89 1004.66 127.89C1006.15 127.797 1007.5 126.819 1008.71 124.955C1010.02 122.999 1011.04 120.809 1011.79 118.387C1012.62 115.871 1013.51 112.703 1014.44 108.883ZM1014.58 128.17C1014.49 125.747 1014.44 123.232 1014.44 120.623C1013.51 123.791 1012.53 126.586 1011.51 129.008C1010.57 131.337 1009.27 133.76 1007.59 136.275C1006.01 138.791 1003.96 140.748 1001.44 142.145C999.021 143.45 996.226 144.102 993.059 144.102C987.748 144.102 983.555 142.285 980.481 138.651C977.499 134.925 976.195 130.546 976.567 125.514C976.94 120.39 978.897 115.964 982.437 112.238C984.301 110.281 986.443 108.557 988.866 107.067C991.288 105.576 993.571 104.411 995.714 103.573C997.95 102.734 1000.23 101.849 1002.56 100.917C1004.89 99.8925 1006.94 98.9608 1008.71 98.1222C1010.48 97.2837 1012.02 96.1191 1013.32 94.6283C1014.72 93.0444 1015.7 91.2276 1016.26 89.1779C1017.1 86.1033 1017 83.2616 1015.98 80.6528C1014.95 77.9508 1012.9 76.4601 1009.83 76.1806C1008.15 76.0874 1006.52 76.5067 1004.94 77.4384C1003.45 78.3701 1002.28 79.5813 1001.44 81.072C1000.7 82.4696 1000.56 84.2398 1001.02 86.3828C1001.49 88.4325 1002.75 90.4823 1004.8 92.532C1002.84 94.9544 1000.19 96.5849 996.832 97.4235C993.478 98.1688 990.263 97.7961 987.189 96.3054C984.207 94.8147 982.344 92.2991 981.599 88.7586C980.853 83.7274 983.881 79.395 990.683 75.7613C998.043 71.8482 1006.15 70.4972 1015 71.7084C1025.71 73.0128 1032.94 77.8111 1036.66 86.1033C1038.25 89.6437 1039.04 93.6966 1039.04 98.262C1039.13 102.734 1039.18 108.79 1039.18 116.43C1039.18 138.325 1040.72 154.63 1043.79 165.345C1044.35 165.158 1045.14 164.832 1046.17 164.366C1049.24 163.155 1051.62 162.223 1053.29 161.571C1055.06 160.919 1057.53 160.174 1060.7 159.335C1063.96 158.403 1066.66 157.891 1068.81 157.798C1070.95 157.705 1073.23 157.938 1075.65 158.497C1078.08 158.962 1080.13 159.941 1081.8 161.431C1084.97 164.32 1086.32 168.233 1085.86 173.171C1085.48 178.202 1083.43 182.488 1079.71 186.028C1075.23 190.221 1069.6 192.69 1062.8 193.436C1056.09 194.274 1049.85 193.342 1044.07 190.64C1037.83 187.938 1032.75 184.072 1028.84 179.041C1027.16 179.693 1025.16 180.485 1022.83 181.417C1020.59 182.441 1018.68 183.28 1017.1 183.932C1015.61 184.584 1013.74 185.33 1011.51 186.168C1009.27 187.007 1007.36 187.612 1005.78 187.985C1004.29 188.451 1002.33 188.917 999.907 189.383C997.577 189.848 995.528 190.035 993.757 189.942C991.987 189.848 989.751 189.755 987.049 189.662C980.434 188.73 975.17 186.261 971.257 182.255C967.25 178.342 965.014 173.87 964.548 168.839C964.269 165.95 964.735 163.155 965.946 160.453C967.064 157.751 968.788 155.515 971.117 153.745C973.353 151.975 975.915 150.763 978.803 150.111C981.785 149.366 985.046 149.552 988.586 150.67C992.22 151.695 995.76 153.652 999.208 156.54C993.99 161.571 993.431 165.997 997.531 169.817C1001.26 173.264 1006.8 174.941 1014.16 174.848C1017.98 174.755 1021.52 174.056 1024.78 172.752C1021.43 166.509 1018.96 159.987 1017.38 153.186C1015.79 146.384 1014.86 138.046 1014.58 128.17ZM1046.31 172.332C1048.91 178.295 1052.55 182.628 1057.21 185.33C1060.28 187.193 1063.4 187.799 1066.57 187.147C1069.83 186.494 1072.07 184.677 1073.28 181.696C1074.12 179.646 1073.93 177.503 1072.72 175.267C1071.51 173.031 1069.46 171.401 1066.57 170.376C1061.35 168.512 1054.6 169.165 1046.31 172.332Z" fill="#738942"/>
<mask id="mask0_193_64" style="mask-type:luminance" maskUnits="userSpaceOnUse" x="756" y="44" width="22" height="37">
<path d="M756.767 44.3557H777.507V80.0336H756.767V44.3557Z" fill="white"/>
</mask>
<g mask="url(#mask0_193_64)">
<path d="M772.975 62.9894L777.508 62.1951L772.975 61.4008C770.135 60.9024 767.889 57.0395 767.599 52.1542L767.137 44.3584L766.675 52.1533C766.386 57.0387 764.14 60.9024 761.299 61.4L756.766 62.1951L761.298 62.9894C764.139 63.4878 766.385 67.3506 766.674 72.236L767.136 80.0309L767.598 72.2352C767.889 67.3506 770.134 63.4878 772.975 62.9894Z" fill="#738942"/>
</g>
<mask id="mask1_193_64" style="mask-type:luminance" maskUnits="userSpaceOnUse" x="536" y="166" width="21" height="36">
<path d="M536.647 166.131H556.811V201.809H536.647V166.131Z" fill="white"/>
</mask>
<g mask="url(#mask1_193_64)">
<path d="M552.405 184.764L556.812 183.97L552.405 183.175C549.644 182.677 547.46 178.814 547.179 173.929L546.729 166.133L546.28 173.928C545.999 178.813 543.815 182.677 541.054 183.175L536.647 183.97L541.053 184.764C543.814 185.262 545.998 189.125 546.279 194.011L546.728 201.806L547.177 194.01C547.46 189.125 549.643 185.262 552.405 184.764Z" fill="#738942"/>
</g>
<mask id="mask2_193_64" style="mask-type:luminance" maskUnits="userSpaceOnUse" x="0" y="4" width="44" height="77">
<path d="M0 4.34399H43.9986V80.0338H0V4.34399Z" fill="white"/>
</mask>
<g mask="url(#mask2_193_64)">
<path d="M34.3851 43.8742L44.0001 42.1892L34.3851 40.5041C28.3594 39.4468 23.5941 31.2518 22.9804 20.8876L21.9991 4.34912L21.0195 20.8859C20.4058 31.25 15.6404 39.4468 9.6148 40.5024L-0.00198364 42.1892L9.61304 43.8742C15.6387 44.9315 20.4045 53.1266 21.0177 63.4907L21.9973 80.0275L22.9769 63.489C23.5941 53.1266 28.3581 44.9315 34.3851 43.8742Z" fill="#738942"/>
</g>
<mask id="mask3_193_64" style="mask-type:luminance" maskUnits="userSpaceOnUse" x="615" y="29" width="45" height="77">
<path d="M615.852 29.5686H659.851V105.258H615.852V29.5686Z" fill="white"/>
</mask>
<g mask="url(#mask3_193_64)">
<path d="M650.237 69.0988L659.852 67.4138L650.237 65.7287C644.212 64.6714 639.446 56.4764 638.833 46.1123L637.851 29.5737L636.872 46.1105C636.258 56.4746 631.493 64.6714 625.467 65.727L615.85 67.4138L625.465 69.0988C631.491 70.1561 636.257 78.3512 636.87 88.7153L637.85 105.252L638.829 88.7136C639.446 78.3512 644.21 70.1561 650.237 69.0988Z" fill="#738942"/>
</g>
<mask id="mask4_193_64" style="mask-type:luminance" maskUnits="userSpaceOnUse" x="213" y="53" width="22" height="36">
<path d="M213.982 53.054H234.722V88.7319H213.982V53.054Z" fill="white"/>
</mask>
<g mask="url(#mask4_193_64)">
<path d="M230.191 71.6878L234.723 70.8936L230.191 70.0993C227.35 69.6009 225.104 65.738 224.815 60.8527L224.352 53.0569L223.89 60.8518C223.601 65.7372 221.355 69.6009 218.515 70.0985L213.981 70.8936L218.514 71.6878C221.354 72.1862 223.6 76.0491 223.89 80.9345L224.351 88.7294L224.813 80.9337C225.104 76.0491 227.35 72.1862 230.191 71.6878Z" fill="#738942"/>
</g>
<mask id="mask5_193_64" style="mask-type:luminance" maskUnits="userSpaceOnUse" x="1076" y="113" width="44" height="76">
<path d="M1076 113.072H1120V188.762H1076V113.072Z" fill="white"/>
</mask>
<g mask="url(#mask5_193_64)">
<path d="M1110.39 152.602L1120 150.917L1110.39 149.232C1104.36 148.175 1099.6 139.98 1098.98 129.616L1098 113.077L1097.02 129.614C1096.41 139.978 1091.64 148.175 1085.62 149.23L1076 150.917L1085.61 152.602C1091.64 153.66 1096.41 161.855 1097.02 172.219L1098 188.756L1098.98 172.217C1099.6 161.855 1104.36 153.66 1110.39 152.602Z" fill="#738942"/>
</g>
</svg>
