<svg width="274" height="71" viewBox="0 0 274 71" fill="none" xmlns="http://www.w3.org/2000/svg">
<path d="M42.6333 54.6588C36.4147 53.764 31.404 53.8311 27.6012 54.8601C28.3618 52.7127 28.8091 50.3639 28.9434 47.8138C29.3907 40.1188 29.5026 31.9317 29.2789 23.2524C29.0999 16.5416 28.4736 12.2244 27.3999 10.3006C29.771 10.0769 32.4553 9.60718 35.4528 8.89137C38.495 8.13081 40.8662 7.34789 42.5662 6.5426C41.6267 8.869 41.0899 14.1929 40.9556 22.5142C40.9556 25.2433 40.9556 28.1289 40.9556 31.1711C41.0451 37.7924 41.1346 42.2663 41.2241 44.5927C41.4478 49.3797 41.9175 52.735 42.6333 54.6588ZM46.8611 1.17399C50.9771 1.53189 54.6009 2.40429 57.7326 3.79118C60.909 5.13334 63.3472 6.78866 65.0473 8.75715C66.7921 10.7256 68 12.8507 68.6711 15.1324C69.3869 17.3693 69.5211 19.6286 69.0738 21.9103C68.5369 24.0577 67.6421 25.9815 66.3894 27.6815C65.1368 29.3816 63.6604 30.7908 61.9603 31.9093C60.2603 32.983 58.3365 33.8778 56.1891 34.5936C54.0864 35.3094 51.9166 35.8015 49.6796 36.07C47.4427 36.2937 45.1387 36.3608 42.7675 36.2713V35.1976C45.765 34.0344 48.2927 32.5133 50.3507 30.6343C52.4087 28.7105 53.8627 26.7196 54.7127 24.6617C55.5627 22.559 55.943 20.3891 55.8535 18.1522C55.8088 15.9153 55.2943 13.8797 54.3101 12.0454C53.3258 10.1664 51.8718 8.55583 49.9481 7.21367C48.0243 5.87152 45.7874 4.99912 43.2373 4.59648C41.0004 4.23857 38.6963 4.30568 36.3252 4.7978C33.9988 5.24518 31.7843 6.13995 29.6815 7.48211C27.5788 8.77952 25.6998 10.3677 24.0445 12.2467C22.4339 14.1258 21.2036 16.4298 20.3536 19.1588C19.5483 21.8431 19.2799 24.7288 19.5483 27.8157C19.772 30.5895 20.5102 33.0949 21.7628 35.3318C23.0603 37.524 24.8051 39.1793 26.9972 40.2978V40.3649C22.6576 41.6175 18.9443 41.8412 15.8574 41.0359C12.7704 40.2307 10.3769 38.7095 8.67684 36.4726C6.97678 34.191 6.08201 31.5067 5.99254 28.4197C5.90306 24.7959 6.59651 21.4181 8.07288 18.2864C9.54924 15.11 11.6072 12.4257 14.2468 10.2335C16.9311 7.9966 19.9957 6.11758 23.4405 4.59648C26.9301 3.07537 30.6882 2.02401 34.7146 1.44241C38.7411 0.860815 42.7899 0.77134 46.8611 1.17399ZM84.4467 29.829C84.2677 30.9474 84.1335 32.5804 84.044 34.7278C83.9545 36.8305 83.9322 39.0675 83.9769 41.4386C84.0216 43.765 84.2006 46.0914 84.5138 48.4178C84.8269 50.6994 85.2296 52.4666 85.7217 53.7193H70.4883C71.5172 51.4824 72.1436 48.1494 72.3673 43.7203C72.6357 39.2911 72.5686 35.1752 72.1659 31.3724C71.7633 27.5249 71.2041 24.9525 70.4883 23.6551C75.1858 23.2077 79.682 22.2234 83.9769 20.7023V24.1919C84.2901 23.6998 84.6256 23.2748 84.9835 22.9169C86.8178 21.1273 89.0323 20.2549 91.6272 20.2997C94.1325 20.3891 96.2129 21.4852 97.8682 23.5879C99.5682 25.6907 100.441 28.0842 100.485 30.7685C100.485 32.737 100.038 34.437 99.1432 35.8687C98.2932 37.2555 97.1971 38.2622 95.855 38.8885C94.5575 39.4701 93.1259 39.7385 91.5601 39.6938C90.039 39.6043 88.6297 39.1793 87.3323 38.4187C88.4955 37.5687 89.2784 36.1595 89.681 34.191C90.1284 32.1777 90.1284 30.2987 89.681 28.5539C89.2784 26.8091 88.5626 25.8472 87.5336 25.6683C86.0572 25.3551 85.0283 26.742 84.4467 29.829ZM103.268 31.4395C104.387 27.0104 106.825 23.7893 110.583 21.776C114.341 19.7628 118.323 19.5391 122.528 21.105C126.778 22.6708 129.999 25.5564 132.192 29.7619C134.384 33.9673 134.921 38.2845 133.802 42.7136C132.684 47.098 130.246 50.2968 126.488 52.31C122.729 54.3233 118.725 54.547 114.475 52.9811C110.27 51.4153 107.071 48.5296 104.879 44.3242C102.687 40.1188 102.15 35.8239 103.268 31.4395ZM121.857 35.2647C119.978 31.5514 118.032 28.621 116.019 26.4736C114.05 24.3261 112.596 23.4985 111.657 23.9906C110.717 24.4827 110.583 26.1604 111.254 29.0237C111.925 31.8422 113.223 35.1081 115.146 38.8214C117.07 42.4899 119.016 45.4203 120.985 47.6125C122.998 49.7599 124.474 50.5876 125.414 50.0955C126.309 49.6034 126.42 47.9257 125.749 45.0624C125.123 42.1991 123.826 38.9332 121.857 35.2647ZM151.47 20.7023C150.978 22.2682 150.598 24.684 150.33 27.9499C150.106 31.2159 149.972 34.012 149.927 36.3384C149.927 38.6648 149.949 42.132 149.994 46.7401C150.039 51.3482 150.061 53.9206 150.061 54.4575C150.061 62.1525 146.594 66 139.659 66C135.007 66 131.83 64.6802 130.13 62.0406C129.012 60.2511 128.922 58.5958 129.862 57.0747C130.891 55.4194 132.591 54.9496 134.962 55.6654C135.454 55.8444 135.946 56.0457 136.438 56.2694C133.575 59.6695 132.815 61.9064 134.157 62.9802C134.604 63.2933 135.141 63.4275 135.767 63.3828C136.438 63.3381 136.998 62.7565 137.445 61.638C137.892 60.4748 138.116 58.7747 138.116 56.5378C138.116 56.3141 138.138 54.6141 138.183 51.4376C138.228 48.2612 138.228 45.7559 138.183 43.9216C138.183 42.0426 138.138 39.6938 138.049 36.8753C137.959 34.012 137.758 31.6185 137.445 29.6947C137.177 27.771 136.819 26.317 136.371 25.3327C138.742 25.0196 141.427 24.4156 144.424 23.5208C147.466 22.5813 149.815 21.6418 151.47 20.7023ZM183.802 42.4452C183.668 43.5637 183.377 44.6374 182.93 45.6664C182.527 46.6506 182.013 47.5678 181.386 48.4178C180.76 49.2678 180.022 50.0507 179.172 50.7666C178.366 51.4824 177.449 52.1087 176.42 52.6456C175.436 53.1824 174.385 53.6074 173.266 53.9206C168.792 55.1286 164.609 54.547 160.717 52.1758C158.48 50.8337 156.691 49.0889 155.349 46.9414C154.051 44.7492 153.246 42.4899 152.933 40.1635C152.664 37.8371 152.821 35.4884 153.402 33.1172C153.984 30.7014 154.924 28.5539 156.221 26.6749C157.563 24.7511 159.33 23.2077 161.522 22.0445C163.715 20.8365 166.108 20.2326 168.703 20.2326C172.729 20.2326 176.197 21.6642 179.105 24.5275C182.013 27.3907 183.646 30.9474 184.004 35.1976H161.858C162.976 37.3898 164.542 39.2464 166.556 40.7675C168.613 42.2439 171.119 43.2281 174.072 43.7203C177.024 44.2124 180.268 43.7874 183.802 42.4452ZM161.053 24.5275C160.203 24.7064 159.733 25.5788 159.643 27.1447C159.554 28.6658 159.957 30.5895 160.851 32.9159H169.911C169.061 30.4553 167.696 28.375 165.817 26.6749C163.938 24.9748 162.35 24.259 161.053 24.5275ZM194.213 24.5275C193.005 24.7959 192.558 26.2051 192.871 28.7552C193.274 32.2896 194.773 35.5331 197.367 38.4859C201.662 43.3176 207.187 44.9506 213.943 43.3847L216.963 42.4452C216.829 43.5637 216.538 44.6374 216.09 45.6664C215.688 46.6506 215.173 47.5678 214.547 48.4178C213.921 49.2678 213.182 50.0507 212.332 50.7666C211.527 51.4824 210.61 52.1087 209.581 52.6456C208.597 53.1824 207.545 53.6074 206.427 53.9206C201.953 55.1286 197.77 54.547 193.878 52.1758C191.954 51.0126 190.343 49.5586 189.046 47.8138C187.793 46.0243 186.943 44.1453 186.496 42.1768C186.093 40.2083 185.937 38.1951 186.026 36.1371C186.116 34.0344 186.585 32.0435 187.435 30.1645C188.33 28.2855 189.404 26.6078 190.657 25.1314C191.954 23.6103 193.587 22.4247 195.555 21.5747C197.524 20.6799 199.627 20.2326 201.864 20.2326C205.129 20.2326 207.322 21.3287 208.44 23.5208C209.559 25.713 209.536 27.9276 208.373 30.1645C207.255 32.3567 205.555 33.4528 203.273 33.4528C202.647 30.9922 201.304 28.8223 199.246 26.9433C197.233 25.0643 195.555 24.259 194.213 24.5275ZM216.754 20.7023C219.17 20.2549 221.72 19.5167 224.404 18.4878C227.133 17.414 229.169 16.3403 230.511 15.2666V20.7023H236.35V22.984H230.377C230.466 34.3028 230.511 40.1188 230.511 40.432C230.556 47.6796 232.949 52.31 237.692 54.3233C240.868 55.6654 244.201 55.643 247.691 54.2562C250.241 53.2272 251.717 51.9298 252.12 50.3639C252.299 49.5139 252.254 48.6862 251.986 47.8809C251.762 47.0309 251.404 46.2927 250.912 45.6664C250.465 45.04 249.838 44.4137 249.033 43.7874C248.272 43.161 247.557 42.6465 246.885 42.2439C246.214 41.7965 245.454 41.3044 244.604 40.7675C243.754 40.2307 243.127 39.8056 242.725 39.4925C241.338 38.5082 240.197 37.4345 239.302 36.2713C238.452 35.0634 237.848 33.8554 237.49 32.6475C237.133 31.4395 236.998 30.254 237.088 29.0908C237.177 27.9276 237.49 26.8091 238.027 25.7354C238.833 24.1695 240.108 22.8721 241.852 21.8431C243.597 20.8142 245.476 20.1878 247.489 19.9641C249.503 19.6957 251.449 19.6957 253.328 19.9641C255.252 20.1878 256.84 20.8365 258.092 21.9103C259.39 22.9392 260.083 24.2143 260.173 25.7354C260.218 26.9881 259.748 28.0394 258.764 28.8895C257.824 29.6947 256.728 30.1645 255.475 30.2987C254.223 30.4329 252.948 30.1869 251.65 29.5605C250.353 28.8895 249.413 27.8828 248.832 26.5407C250.129 26.1828 250.912 25.6459 251.18 24.9301C251.449 24.1695 251.27 23.4985 250.644 22.9169C250.062 22.3353 249.257 22.0221 248.228 21.9774C247.601 21.9326 247.042 22.0445 246.55 22.3129C246.103 22.5366 245.767 22.8498 245.543 23.2524C245.32 23.6103 245.141 24.013 245.006 24.4603C244.917 24.9077 244.917 25.3104 245.006 25.6683C245.23 26.6973 245.946 27.7486 247.154 28.8223C248.362 29.8513 249.793 30.8579 251.449 31.8422C253.149 32.8264 254.849 33.8331 256.549 34.862C258.249 35.891 259.837 37.099 261.314 38.4859C262.79 39.828 263.819 41.1925 264.401 42.5794C264.982 44.2795 265.072 45.8453 264.669 47.277C264.311 48.6639 263.461 49.9165 262.119 51.035C260.777 52.1534 259.278 53.1377 257.623 53.9877C256.012 54.793 254.223 55.4865 252.254 56.0681C250.33 56.6497 248.563 57.1194 246.953 57.4773C245.387 57.7905 244 57.9918 242.792 58.0813C240.466 58.2602 238.184 58.2602 235.947 58.0813C233.755 57.8576 231.585 57.3878 229.437 56.672C227.335 55.9562 225.478 55.0167 223.868 53.8535C222.302 52.6903 221.027 51.1692 220.042 49.2902C219.103 47.4112 218.633 45.2637 218.633 42.8479C218.633 41.6399 218.633 40.0293 218.633 38.0161C218.633 35.9581 218.633 34.5041 218.633 33.6541C218.633 32.8041 218.611 31.6632 218.566 30.2316C218.566 28.8 218.521 27.7486 218.432 27.0775C218.342 26.4065 218.231 25.6235 218.096 24.7288C217.962 23.834 217.783 23.0958 217.559 22.5142C217.336 21.8879 217.067 21.2839 216.754 20.7023Z" fill="#738942"/>
<path d="M9.0875 10.4455L11.6285 10.0002L9.0875 9.55492C7.49511 9.27549 6.23578 7.10974 6.07361 4.37074L5.81427 0L5.55539 4.37028C5.39321 7.10927 4.13388 9.27549 2.54149 9.55445L7.62939e-05 10.0002L2.54103 10.4455C4.13342 10.725 5.39286 12.8907 5.55492 15.6297L5.8138 20L6.07268 15.6293C6.23578 12.8907 7.49477 10.725 9.0875 10.4455Z" fill="#738942"/>
<path d="M105.879 20.4455L108.42 20.0002L105.879 19.5549C104.286 19.2755 103.027 17.1097 102.865 14.3707L102.605 10L102.347 14.3703C102.184 17.1093 100.925 19.2755 99.3327 19.5545L96.7913 20.0002L99.3322 20.4455C100.925 20.725 102.184 22.8907 102.346 25.6297L102.605 30L102.864 25.6293C103.027 22.8907 104.286 20.725 105.879 20.4455Z" fill="#738942"/>
<path d="M109.917 12.5931L110.791 12.4399L109.917 12.2868C109.369 12.1906 108.936 11.4457 108.88 10.5035L108.791 9L108.702 10.5033C108.646 11.4455 108.213 12.1906 107.665 12.2866L106.791 12.4399L107.665 12.5931C108.213 12.6892 108.646 13.4342 108.702 14.3764L108.791 15.8797L108.88 14.3762C108.936 13.4342 109.369 12.6892 109.917 12.5931Z" fill="#738942"/>
<path d="M191.917 60.5931L192.791 60.4399L191.917 60.2868C191.369 60.1906 190.936 59.4457 190.88 58.5035L190.791 57L190.702 58.5033C190.646 59.4455 190.213 60.1906 189.665 60.2866L188.791 60.4399L189.665 60.5931C190.213 60.6892 190.646 61.4342 190.702 62.3764L190.791 63.8797L190.88 62.3762C190.936 61.4342 191.369 60.6892 191.917 60.5931Z" fill="#738942"/>
<path d="M70.8806 55.7005L72.0241 55.5001L70.8806 55.2997C70.1641 55.174 69.5974 54.1994 69.5244 52.9668L69.4077 51L69.2912 52.9666C69.2182 54.1992 68.6515 55.174 67.9349 55.2995L66.7913 55.5001L67.9347 55.7005C68.6513 55.8262 69.218 56.8008 69.291 58.0334L69.4075 60L69.524 58.0332C69.5974 56.8008 70.1639 55.8262 70.8806 55.7005Z" fill="#738942"/>
<path d="M272.917 30.5931L273.791 30.4399L272.917 30.2868C272.369 30.1906 271.936 29.4457 271.88 28.5035L271.791 27L271.702 28.5033C271.646 29.4455 271.213 30.1906 270.665 30.2866L269.791 30.4399L270.665 30.5931C271.213 30.6892 271.646 31.4342 271.702 32.3764L271.791 33.8797L271.88 32.3762C271.936 31.4342 272.369 30.6892 272.917 30.5931Z" fill="#738942"/>
<path d="M188.879 54.4455L191.42 54.0002L188.879 53.5549C187.286 53.2755 186.027 51.1097 185.865 48.3707L185.605 44L185.347 48.3703C185.184 51.1093 183.925 53.2755 182.333 53.5545L179.791 54.0002L182.332 54.4455C183.925 54.725 185.184 56.8907 185.346 59.6297L185.605 64L185.864 59.6293C186.027 56.8907 187.286 54.725 188.879 54.4455Z" fill="#738942"/>
<path d="M243.044 47.1873L244.792 46.8809L243.044 46.5745C241.948 46.3822 241.082 44.892 240.97 43.0074L240.792 40L240.614 43.0071C240.502 44.8917 239.636 46.3822 238.54 46.5742L236.791 46.8809L238.54 47.1873C239.635 47.3796 240.502 48.8698 240.613 50.7544L240.792 53.7614L240.97 50.7541C241.082 48.8698 241.948 47.3796 243.044 47.1873Z" fill="#738942"/>
<path d="M269.77 37.321L272.281 36.881L269.77 36.4409C268.197 36.1649 266.953 34.0249 266.792 31.3186L266.536 27L266.28 31.3181C266.12 34.0245 264.876 36.1649 263.302 36.4405L260.791 36.881L263.302 37.321C264.875 37.5971 266.12 39.737 266.28 42.4433L266.536 46.7614L266.791 42.4428C266.953 39.737 268.197 37.5971 269.77 37.321Z" fill="#738942"/>
<path d="M49.6981 19.7896L51.3497 19.5002L49.6981 19.2107C48.6631 19.0291 47.8445 17.6213 47.7391 15.841L47.5705 13L47.4022 15.8407C47.2968 17.621 46.4783 19.0291 45.4432 19.2104L43.7913 19.5002L45.4429 19.7896C46.478 19.9712 47.2966 21.379 47.4019 23.1593L47.5702 26L47.7385 23.159C47.8445 21.379 48.6628 19.9712 49.6981 19.7896Z" fill="#738942"/>
</svg>
