<svg width="213" height="56" viewBox="0 0 213 56" fill="none" xmlns="http://www.w3.org/2000/svg">
<path d="M31.9886 14.155C32.4474 12.7789 32.4474 11.5968 31.9886 10.6087C31.5652 9.58542 30.8947 8.70326 29.9773 7.96224C29.0951 7.22122 28.0189 6.65663 26.7486 6.26848C25.5135 5.88032 24.2961 5.65096 23.0964 5.58039C21.8966 5.50981 20.7851 5.63332 19.7618 5.9509C18.7738 6.26848 18.068 6.74485 17.6446 7.38001C16.3743 9.28549 18.121 11.2086 22.8847 13.1494C24.0138 13.6081 25.4606 14.1198 27.2249 14.6843C28.9893 15.2489 30.5772 15.7606 31.9886 16.2193C33.4001 16.678 34.8645 17.225 36.3818 17.8601C37.8991 18.4953 39.293 19.2363 40.5633 20.0832C41.8336 20.9301 42.8922 21.8828 43.7391 22.9414C45.08 24.5999 45.8034 26.4348 45.9092 28.4461C46.0504 30.4575 45.6799 32.3453 44.7977 34.1097C43.9155 35.8387 42.5923 37.4442 40.8279 38.9263C39.0636 40.373 37.0699 41.414 34.8469 42.0492C32.9767 42.6137 30.983 42.9843 28.8658 43.1607C26.7486 43.3371 24.6666 43.3371 22.62 43.1607C20.5734 42.949 18.5797 42.5432 16.6389 41.9433C14.7335 41.3434 13.022 40.5848 11.5047 39.6673C10.0227 38.7499 8.78765 37.6207 7.79962 36.2798C6.81159 34.9036 6.22936 33.3863 6.05293 31.7278C5.73535 28.9049 6.59987 26.5583 8.6465 24.6881C10.7284 22.8179 13.5513 21.9534 17.1153 22.0945C16.3743 23.4354 15.9861 24.8646 15.9508 26.3819C15.9508 27.8639 16.2508 29.293 16.8507 30.6692C17.4505 32.0101 18.315 33.2981 19.4442 34.5331C20.5734 35.7328 21.8437 36.7562 23.2552 37.603C24.6666 38.4499 26.2369 39.0851 27.966 39.5085C29.7303 39.8967 31.4946 39.9672 33.259 39.7202C35.5173 39.3321 37.1758 38.5205 38.2344 37.2855C39.293 36.0151 39.5929 34.6037 39.1342 33.0511C38.7107 31.4984 37.5816 30.087 35.7467 28.8167C34.4411 27.9345 32.712 27.0523 30.5595 26.1702C28.4423 25.288 26.4663 24.494 24.6314 23.7883C22.7965 23.0826 20.9792 22.2886 19.1796 21.4065C17.38 20.5243 15.8979 19.4304 14.7335 18.1248C13.569 16.7839 12.8633 15.2489 12.6163 13.5199C12.4398 12.2496 12.6163 10.9616 13.1456 9.656C13.6749 8.3151 14.4512 7.133 15.4745 6.10969C16.5331 5.05109 17.7681 4.0807 19.1796 3.19854C20.591 2.28108 22.0907 1.61064 23.6786 1.1872C25.2665 0.728471 26.8721 0.463821 28.4953 0.393248C30.1184 0.287388 31.6534 0.499107 33.1002 1.02841C34.7233 1.62828 35.976 2.54573 36.8582 3.78077C37.7756 5.0158 38.2167 6.30376 38.1814 7.64466C38.1814 8.95026 37.6345 10.2382 36.5406 11.5085C35.482 12.7436 33.9647 13.6257 31.9886 14.155ZM71.505 33.4216C71.3992 34.3037 71.1698 35.1506 70.8169 35.9622C70.4993 36.7385 70.0935 37.4619 69.5995 38.1323C69.1055 38.8028 68.5233 39.4203 67.8528 39.9849C67.2177 40.5495 66.4943 41.0435 65.6827 41.4669C64.9064 41.8904 64.0772 42.2256 63.195 42.4726C59.6663 43.4253 56.367 42.9666 53.2971 41.0964C51.5328 40.0378 50.1213 38.6616 49.0627 36.9679C48.0394 35.2388 47.4042 33.4569 47.1572 31.6219C46.9455 29.787 47.069 27.9345 47.5277 26.0643C47.9864 24.1588 48.7275 22.4651 49.7508 20.983C50.8094 19.4657 52.2032 18.2483 53.9323 17.3308C55.6613 16.3781 57.5491 15.9017 59.5958 15.9017C62.7716 15.9017 65.5063 17.0309 67.7999 19.2893C70.0935 21.5476 71.3815 24.3529 71.6638 27.7051H54.1969C55.0791 29.4342 56.3141 30.8986 57.902 32.0983C59.5252 33.2628 61.5012 34.0391 63.8302 34.4272C66.1591 34.8154 68.7174 34.4802 71.505 33.4216ZM53.5617 19.2893C52.8913 19.4304 52.5208 20.1185 52.4502 21.3535C52.3796 22.5533 52.6972 24.0706 53.403 25.9055H60.5485C59.8781 23.9647 58.8018 22.3239 57.3198 20.983C55.8377 19.6421 54.5851 19.0775 53.5617 19.2893ZM83.5966 23.4707C83.4555 24.3529 83.3496 25.6409 83.279 27.3346C83.2085 28.9931 83.1908 30.7574 83.2261 32.6276C83.2614 34.4625 83.4025 36.2974 83.6495 38.1323C83.8966 39.932 84.2141 41.3258 84.6023 42.3138H72.5872C73.3988 40.5495 73.8928 37.9206 74.0692 34.4272C74.2809 30.9339 74.228 27.6875 73.9104 24.6881C73.5928 21.6535 73.1518 19.6245 72.5872 18.6012C76.2923 18.2483 79.8386 17.472 83.2261 16.2722V19.0246C83.4731 18.6365 83.7378 18.3012 84.0201 18.0189C85.4668 16.6075 87.2135 15.9194 89.2601 15.9547C91.2362 16.0252 92.877 16.8898 94.1826 18.5482C95.5235 20.2067 96.2116 22.0945 96.2469 24.2117C96.2469 25.7644 95.894 27.1053 95.1883 28.2344C94.5178 29.3283 93.6533 30.1223 92.5947 30.6163C91.5714 31.075 90.4422 31.2867 89.2072 31.2514C88.0075 31.1809 86.8959 30.8456 85.8726 30.2458C86.7901 29.5753 87.4076 28.4638 87.7252 26.9112C88.078 25.3233 88.078 23.8412 87.7252 22.4651C87.4076 21.0889 86.843 20.3302 86.0314 20.1891C84.8669 19.9421 84.0553 21.0359 83.5966 23.4707ZM109.466 32.1512C109.713 33.1393 110.013 33.9685 110.366 34.639C110.719 35.3094 111.107 35.7858 111.53 36.0681C111.954 36.3151 112.413 36.2269 112.907 35.8034C113.401 35.3447 113.842 34.5155 114.23 33.3157C115.324 30.1752 115.924 27.2288 116.029 24.4764C116.065 22.4298 115.906 20.7537 115.553 19.448C115.2 18.1424 114.512 17.0662 113.489 16.2193C114.865 15.443 116.029 15.3195 116.982 15.8488C117.97 16.3781 118.552 17.2956 118.729 18.6012C119.011 20.7889 118.358 24.8998 116.771 30.9339C115.218 36.9326 113.771 40.4789 112.43 41.5728C111.689 42.2079 110.807 42.649 109.784 42.896C108.76 43.1078 107.667 43.0372 106.502 42.6843C105.373 42.3315 104.438 41.6081 103.697 40.5142C102.92 39.3144 102.056 36.8797 101.103 33.2098C100.15 29.54 99.2154 26.0114 98.2979 22.6238C97.3805 19.201 96.516 17.0838 95.7044 16.2722H108.196C107.667 16.9074 107.367 18.0542 107.296 19.7127C107.225 21.3359 107.402 23.1179 107.825 25.0586L109.466 32.1512ZM131.322 42.3138H119.783C120.56 40.5495 121.036 38.4852 121.212 36.121C121.389 33.7215 121.318 31.569 121.001 29.6635C120.718 27.7228 120.313 26.2231 119.783 25.1645C121.936 25.1645 124.053 24.9351 126.135 24.4764C128.252 24.0177 129.981 23.3296 131.322 22.4121C130.546 24.3882 130.105 27.5111 129.999 31.7807C129.928 36.0504 130.369 39.5614 131.322 42.3138ZM121.477 21.0889C120.383 20.242 119.836 19.2187 119.836 18.0189C119.836 16.8192 120.383 15.7959 121.477 14.949C122.606 14.1021 123.965 13.6787 125.553 13.6787C127.141 13.6787 128.499 14.1021 129.628 14.949C130.758 15.7959 131.322 16.8192 131.322 18.0189C131.322 19.2187 130.758 20.242 129.628 21.0889C128.499 21.9005 127.141 22.3063 125.553 22.3063C123.965 22.3063 122.606 21.9005 121.477 21.0889ZM139.004 19.2893C138.052 19.501 137.699 20.6125 137.946 22.6238C138.263 25.4115 139.445 27.9698 141.492 30.2987C144.88 34.1097 149.238 35.3976 154.566 34.1626L156.948 33.4216C156.842 34.3037 156.612 35.1506 156.26 35.9622C155.942 36.7385 155.536 37.4619 155.042 38.1323C154.548 38.8028 153.966 39.4203 153.296 39.9849C152.66 40.5495 151.937 41.0435 151.125 41.4669C150.349 41.8904 149.52 42.2256 148.638 42.4726C145.109 43.4253 141.81 42.9666 138.74 41.0964C137.222 40.179 135.952 39.0321 134.929 37.656C133.941 36.2445 133.27 34.7625 132.917 33.2098C132.6 31.6572 132.476 30.0693 132.547 28.4461C132.618 26.7877 132.988 25.2174 133.658 23.7354C134.364 22.2533 135.211 20.9301 136.199 19.7656C137.222 18.5659 138.51 17.6308 140.063 16.9603C141.616 16.2546 143.274 15.9017 145.038 15.9017C147.614 15.9017 149.343 16.7663 150.226 18.4953C151.108 20.2244 151.09 21.971 150.173 23.7354C149.29 25.4644 147.95 26.3289 146.15 26.3289C145.656 24.3882 144.597 22.6768 142.974 21.1947C141.386 19.7127 140.063 19.0775 139.004 19.2893ZM182.12 33.4216C182.015 34.3037 181.785 35.1506 181.432 35.9622C181.115 36.7385 180.709 37.4619 180.215 38.1323C179.721 38.8028 179.139 39.4203 178.468 39.9849C177.833 40.5495 177.11 41.0435 176.298 41.4669C175.522 41.8904 174.693 42.2256 173.81 42.4726C170.282 43.4253 166.982 42.9666 163.913 41.0964C162.148 40.0378 160.737 38.6616 159.678 36.9679C158.655 35.2388 158.02 33.4569 157.773 31.6219C157.561 29.787 157.684 27.9345 158.143 26.0643C158.602 24.1588 159.343 22.4651 160.366 20.983C161.425 19.4657 162.819 18.2483 164.548 17.3308C166.277 16.3781 168.165 15.9017 170.211 15.9017C173.387 15.9017 176.122 17.0309 178.415 19.2893C180.709 21.5476 181.997 24.3529 182.279 27.7051H164.812C165.695 29.4342 166.93 30.8986 168.517 32.0983C170.141 33.2628 172.117 34.0391 174.446 34.4272C176.775 34.8154 179.333 34.4802 182.12 33.4216ZM164.177 19.2893C163.507 19.4304 163.136 20.1185 163.066 21.3535C162.995 22.5533 163.313 24.0706 164.018 25.9055H171.164C170.493 23.9647 169.417 22.3239 167.935 20.983C166.453 19.6421 165.2 19.0775 164.177 19.2893ZM187.172 20.242C187.772 19.007 188.76 17.9837 190.136 17.1721C191.548 16.3605 193.03 15.8665 194.583 15.69C196.17 15.4783 197.705 15.4783 199.187 15.69C200.705 15.8665 201.975 16.3781 202.998 17.225C204.022 18.0366 204.551 19.0423 204.586 20.242C204.622 21.0183 204.392 21.7064 203.898 22.3063C203.44 22.9061 202.822 23.3296 202.046 23.5766C201.305 23.7883 200.511 23.8589 199.664 23.7883C198.852 23.7177 198.076 23.4354 197.335 22.9414C196.594 22.4474 196.029 21.7593 195.641 20.8772C196.664 20.5949 197.282 20.1714 197.494 19.6068C197.741 19.007 197.617 18.4777 197.123 18.0189C196.629 17.5602 195.976 17.3132 195.165 17.2779C194.212 17.2426 193.524 17.5602 193.101 18.2307C192.677 18.8658 192.536 19.5186 192.677 20.1891C192.712 20.3655 192.748 20.5243 192.783 20.6654C192.854 20.8066 192.942 20.9654 193.048 21.1418C193.189 21.283 193.295 21.4241 193.365 21.5652C193.471 21.6711 193.612 21.7946 193.789 21.9358C193.965 22.0769 194.089 22.2004 194.159 22.3063C194.265 22.3768 194.441 22.5003 194.688 22.6768C194.935 22.8532 195.094 22.9767 195.165 23.0473C195.271 23.0826 195.465 23.1884 195.747 23.3649C196.029 23.5413 196.206 23.6648 196.276 23.7354C200.334 26.3819 202.804 28.0404 203.687 28.7108C205.027 29.6988 206.051 30.6516 206.756 31.569C207.497 32.4865 207.956 33.5274 208.133 34.6919C208.344 36.1034 208.115 37.3737 207.445 38.5028C206.809 39.5967 205.857 40.4789 204.586 41.1493C203.316 41.8198 201.922 42.3315 200.405 42.6843C198.888 43.0019 197.3 43.1783 195.641 43.2136C191.089 43.2842 187.808 42.6667 185.796 41.3611C183.785 40.0555 182.814 38.4499 182.885 36.5444C182.92 35.4153 183.361 34.4802 184.208 33.7391C185.09 32.9981 186.255 32.61 187.702 32.5747C189.184 32.5394 190.895 33.0511 192.836 34.1097C192.024 34.7448 191.53 35.5211 191.354 36.4386C191.177 37.3207 191.266 38.1323 191.618 38.8734C192.007 39.6144 192.642 40.2495 193.524 40.7788C194.406 41.2729 195.394 41.5022 196.488 41.4669C197.794 41.3964 198.711 40.8494 199.24 39.8261C199.523 39.4027 199.611 38.9616 199.505 38.5028C199.434 38.0088 199.293 37.5854 199.082 37.2325C198.87 36.8444 198.535 36.4386 198.076 36.0151C197.653 35.5917 197.211 35.2035 196.753 34.8507C196.294 34.4978 195.765 34.1449 195.165 33.7921C194.565 33.4039 194.018 33.0687 193.524 32.7864C193.065 32.5041 192.571 32.2218 192.042 31.9395C191.548 31.6219 191.142 31.3397 190.825 31.0926C189.413 30.0693 188.319 28.9049 187.543 27.5993C186.802 26.2937 186.414 25.041 186.378 23.8412C186.378 22.6062 186.643 21.4065 187.172 20.242Z" fill="#738942"/>
<path d="M7.08206 23.1405L9.06228 22.7934L7.08206 22.4464C5.84107 22.2286 4.85964 20.5408 4.73325 18.4062L4.53114 15L4.32939 18.4059C4.203 20.5404 3.22158 22.2286 1.98059 22.446L0 22.7934L1.98023 23.1405C3.22121 23.3582 4.20273 25.0461 4.32903 27.1806L4.53078 30.5865L4.73253 27.1803C4.85964 25.0461 5.8408 23.3582 7.08206 23.1405Z" fill="#738942"/>
<path d="M136.082 13.1405L138.062 12.7934L136.082 12.4464C134.841 12.2286 133.86 10.5408 133.733 8.40623L133.531 5L133.329 8.40586C133.203 10.5404 132.222 12.2286 130.981 12.446L129 12.7934L130.98 13.1405C132.221 13.3582 133.203 15.0461 133.329 17.1806L133.531 20.5865L133.733 17.1803C133.86 15.0461 134.841 13.3582 136.082 13.1405Z" fill="#738942"/>
<path d="M159.089 39.7006L160.233 39.5002L159.089 39.2998C158.373 39.174 157.806 38.1994 157.733 36.9669L157.616 35.0001L157.5 36.9667C157.427 38.1992 156.86 39.174 156.144 39.2996L155 39.5002L156.143 39.7006C156.86 39.8263 157.427 40.8009 157.5 42.0334L157.616 44.0001L157.733 42.0332C157.806 40.8009 158.373 39.8263 159.089 39.7006Z" fill="#738942"/>
<path d="M113.089 24.7005L114.233 24.5001L113.089 24.2997C112.373 24.174 111.806 23.1994 111.733 21.9668L111.616 20L111.5 21.9666C111.427 23.1992 110.86 24.174 110.144 24.2995L109 24.5001L110.143 24.7005C110.86 24.8262 111.427 25.8008 111.5 27.0334L111.616 29L111.733 27.0332C111.806 25.8008 112.373 24.8262 113.089 24.7005Z" fill="#738942"/>
<path d="M47.8708 19.8788L49.2328 19.6401L47.8708 19.4014C47.0173 19.2517 46.3423 18.0908 46.2554 16.6227L46.1164 14.28L45.9776 16.6225C45.8907 18.0906 45.2157 19.2517 44.3622 19.4012L43 19.6401L44.3619 19.8788C45.2155 20.0286 45.8905 21.1894 45.9774 22.6575L46.1161 25L46.2549 22.6573C46.3423 21.1894 47.0171 20.0286 47.8708 19.8788Z" fill="#738942"/>
<path d="M185.089 20.7006L186.233 20.5002L185.089 20.2998C184.373 20.174 183.806 19.1994 183.733 17.9669L183.616 16.0001L183.5 17.9667C183.427 19.1992 182.86 20.174 182.144 20.2996L181 20.5002L182.143 20.7006C182.86 20.8263 183.427 21.8009 183.5 23.0334L183.616 25.0001L183.733 23.0332C183.806 21.8009 184.373 20.8263 185.089 20.7006Z" fill="#738942"/>
<path d="M211.089 30.7006L212.233 30.5002L211.089 30.2998C210.373 30.174 209.806 29.1994 209.733 27.9669L209.616 26.0001L209.5 27.9667C209.427 29.1992 208.86 30.174 208.144 30.2996L207 30.5002L208.143 30.7006C208.86 30.8263 209.427 31.8009 209.5 33.0334L209.616 35.0001L209.733 33.0332C209.806 31.8009 210.373 30.8263 211.089 30.7006Z" fill="#738942"/>
</svg>
