<svg width="141" height="56" viewBox="0 0 141 56" fill="none" xmlns="http://www.w3.org/2000/svg">
<path d="M31.0743 14.155C31.5331 12.7789 31.5331 11.5968 31.0743 10.6087C30.6509 9.58542 29.9804 8.70326 29.063 7.96224C28.1808 7.22122 27.1046 6.65663 25.8343 6.26848C24.5992 5.88032 23.3818 5.65096 22.1821 5.58039C20.9823 5.50981 19.8708 5.63332 18.8475 5.9509C17.8595 6.26848 17.1537 6.74485 16.7303 7.38001C15.46 9.28549 17.2067 11.2086 21.9704 13.1494C23.0995 13.6081 24.5463 14.1198 26.3106 14.6843C28.075 15.2489 29.6629 15.7606 31.0743 16.2193C32.4858 16.678 33.9502 17.225 35.4675 17.8601C36.9848 18.4953 38.3787 19.2363 39.649 20.0832C40.9193 20.9301 41.9779 21.8828 42.8248 22.9414C44.1657 24.5999 44.8891 26.4348 44.9949 28.4461C45.1361 30.4575 44.7656 32.3453 43.8834 34.1097C43.0012 35.8387 41.678 37.4442 39.9136 38.9263C38.1493 40.373 36.1556 41.414 33.9325 42.0492C32.0624 42.6137 30.0687 42.9843 27.9515 43.1607C25.8343 43.3371 23.7523 43.3371 21.7057 43.1607C19.6591 42.949 17.6654 42.5432 15.7246 41.9433C13.8191 41.3434 12.1077 40.5848 10.5904 39.6673C9.10837 38.7499 7.87334 37.6207 6.88531 36.2798C5.89729 34.9036 5.31506 33.3863 5.13862 31.7278C4.82104 28.9049 5.68557 26.5583 7.73219 24.6881C9.81411 22.8179 12.637 21.9534 16.201 22.0945C15.46 23.4354 15.0718 24.8646 15.0365 26.3819C15.0365 27.8639 15.3365 29.293 15.9363 30.6692C16.5362 32.0101 17.4007 33.2981 18.5299 34.5331C19.6591 35.7328 20.9294 36.7562 22.3409 37.603C23.7523 38.4499 25.3226 39.0851 27.0516 39.5085C28.816 39.8967 30.5803 39.9672 32.3446 39.7202C34.603 39.3321 36.2615 38.5205 37.3201 37.2855C38.3787 36.0151 38.6786 34.6037 38.2199 33.0511C37.7964 31.4984 36.6673 30.087 34.8324 28.8167C33.5267 27.9345 31.7977 27.0523 29.6452 26.1702C27.528 25.288 25.552 24.494 23.7171 23.7883C21.8821 23.0826 20.0649 22.2886 18.2653 21.4065C16.4656 20.5243 14.9836 19.4304 13.8191 18.1248C12.6547 16.7839 11.949 15.2489 11.7019 13.5199C11.5255 12.2496 11.7019 10.9616 12.2312 9.656C12.7605 8.3151 13.5369 7.133 14.5602 6.10969C15.6188 5.05109 16.8538 4.0807 18.2653 3.19854C19.6767 2.28108 21.1764 1.61064 22.7643 1.1872C24.3522 0.728471 25.9578 0.463821 27.5809 0.393248C29.2041 0.287388 30.7391 0.499107 32.1859 1.02841C33.809 1.62828 35.0617 2.54573 35.9439 3.78077C36.8613 5.0158 37.3024 6.30376 37.2671 7.64466C37.2671 8.95026 36.7202 10.2382 35.6263 11.5085C34.5677 12.7436 33.0504 13.6257 31.0743 14.155ZM56.3145 31.5161C56.4909 37.1267 56.8791 40.7259 57.479 42.3138H45.5697C46.593 39.8437 47.1047 34.7095 47.1047 26.9112C47.1047 19.1128 46.593 14.1374 45.5697 11.9849C47.4399 11.7379 49.5571 11.2615 51.9213 10.5558C54.2855 9.81479 56.1381 9.07377 57.479 8.33275C57.0202 9.74421 56.6674 12.6377 56.4204 17.0133C56.2086 21.3888 56.1557 25.8173 56.2616 30.2987C57.673 29.3812 58.9257 28.4461 60.0196 27.4934C61.1488 26.5054 62.0486 25.5879 62.719 24.741C63.4248 23.8942 63.9893 23.0649 64.4128 22.2533C64.8715 21.4417 65.1714 20.7184 65.3126 20.0832C65.489 19.4128 65.5596 18.8129 65.5243 18.2836C65.5243 17.719 65.4361 17.2603 65.2597 16.9074C65.0832 16.5193 64.8539 16.2193 64.5716 16.0076C65.0303 15.4077 65.5772 14.9666 66.2124 14.6843C66.8828 14.4021 67.518 14.2962 68.1179 14.3668C68.753 14.4021 69.3353 14.5961 69.8646 14.949C70.3939 15.2666 70.7644 15.7077 70.9761 16.2722C72.1053 19.2716 69.8293 22.9414 64.1481 27.2817C64.3246 27.6346 65.1009 29.2225 66.4771 32.0454C67.8532 34.833 69.0706 37.0914 70.1292 38.8204C71.2231 40.5495 72.2288 41.7139 73.1462 42.3138H59.8608C60.743 41.2199 60.196 38.7499 58.22 34.9036C57.8671 34.2332 57.2496 33.104 56.3674 31.5161H56.3145ZM84.9728 42.3138H73.434C74.2103 40.5495 74.6867 38.4852 74.8631 36.121C75.0396 33.7215 74.969 31.569 74.6514 29.6635C74.3691 27.7228 73.9633 26.2231 73.434 25.1645C75.5865 25.1645 77.7037 24.9351 79.7856 24.4764C81.9028 24.0177 83.6319 23.3296 84.9728 22.4121C84.1965 24.3882 83.7554 27.5111 83.6495 31.7807C83.579 36.0504 84.02 39.5614 84.9728 42.3138ZM75.1278 21.0889C74.0339 20.242 73.487 19.2187 73.487 18.0189C73.487 16.8192 74.0339 15.7959 75.1278 14.949C76.257 14.1021 77.6155 13.6787 79.2034 13.6787C80.7913 13.6787 82.1498 14.1021 83.279 14.949C84.4082 15.7959 84.9728 16.8192 84.9728 18.0189C84.9728 19.2187 84.4082 20.242 83.279 21.0889C82.1498 21.9005 80.7913 22.3063 79.2034 22.3063C77.6155 22.3063 76.257 21.9005 75.1278 21.0889ZM98.1598 42.3138H86.1976C87.2209 40.0907 87.7326 35.4682 87.7326 28.4461C87.7326 21.4241 87.2209 16.9251 86.1976 14.949C88.1031 14.7373 90.2379 14.3138 92.6021 13.6787C95.0016 13.0435 96.8542 12.3731 98.1598 11.6673C97.3835 13.8904 96.9777 19.007 96.9424 27.017C96.9071 34.9918 97.3129 40.0907 98.1598 42.3138ZM111.498 7.38001C110.722 9.85007 110.316 15.6547 110.281 24.794C110.245 33.9332 110.651 39.7732 111.498 42.3138H99.536C100.559 39.7732 101.071 34.4978 101.071 26.4877C101.071 18.4424 100.559 13.3082 99.536 11.0851C101.441 10.8381 103.576 10.3441 105.94 9.60307C108.34 8.86205 110.193 8.12103 111.498 7.38001ZM116.581 20.242C117.181 19.007 118.169 17.9837 119.545 17.1721C120.956 16.3605 122.438 15.8665 123.991 15.69C125.579 15.4783 127.114 15.4783 128.596 15.69C130.113 15.8665 131.383 16.3781 132.407 17.225C133.43 18.0366 133.959 19.0423 133.995 20.242C134.03 21.0183 133.801 21.7064 133.307 22.3063C132.848 22.9061 132.23 23.3296 131.454 23.5766C130.713 23.7883 129.919 23.8589 129.072 23.7883C128.261 23.7177 127.484 23.4354 126.743 22.9414C126.002 22.4474 125.438 21.7593 125.049 20.8772C126.073 20.5949 126.69 20.1714 126.902 19.6068C127.149 19.007 127.026 18.4777 126.532 18.0189C126.037 17.5602 125.385 17.3132 124.573 17.2779C123.62 17.2426 122.932 17.5602 122.509 18.2307C122.085 18.8658 121.944 19.5186 122.085 20.1891C122.121 20.3655 122.156 20.5243 122.191 20.6654C122.262 20.8066 122.35 20.9654 122.456 21.1418C122.597 21.283 122.703 21.4241 122.773 21.5652C122.879 21.6711 123.02 21.7946 123.197 21.9358C123.373 22.0769 123.497 22.2004 123.567 22.3063C123.673 22.3768 123.85 22.5003 124.097 22.6768C124.344 22.8532 124.503 22.9767 124.573 23.0473C124.679 23.0826 124.873 23.1884 125.155 23.3649C125.438 23.5413 125.614 23.6648 125.685 23.7354C129.743 26.3819 132.213 28.0404 133.095 28.7108C134.436 29.6988 135.459 30.6516 136.165 31.569C136.906 32.4865 137.365 33.5274 137.541 34.6919C137.753 36.1034 137.523 37.3737 136.853 38.5028C136.218 39.5967 135.265 40.4789 133.995 41.1493C132.724 41.8198 131.33 42.3315 129.813 42.6843C128.296 43.0019 126.708 43.1783 125.049 43.2136C120.497 43.2842 117.216 42.6667 115.204 41.3611C113.193 40.0555 112.223 38.4499 112.293 36.5444C112.329 35.4153 112.77 34.4802 113.617 33.7391C114.499 32.9981 115.663 32.61 117.11 32.5747C118.592 32.5394 120.303 33.0511 122.244 34.1097C121.433 34.7448 120.939 35.5211 120.762 36.4386C120.586 37.3207 120.674 38.1323 121.027 38.8734C121.415 39.6144 122.05 40.2495 122.932 40.7788C123.814 41.2729 124.802 41.5022 125.896 41.4669C127.202 41.3964 128.119 40.8494 128.649 39.8261C128.931 39.4027 129.019 38.9616 128.913 38.5028C128.843 38.0088 128.702 37.5854 128.49 37.2325C128.278 36.8444 127.943 36.4386 127.484 36.0151C127.061 35.5917 126.62 35.2035 126.161 34.8507C125.702 34.4978 125.173 34.1449 124.573 33.7921C123.973 33.4039 123.426 33.0687 122.932 32.7864C122.474 32.5041 121.98 32.2218 121.45 31.9395C120.956 31.6219 120.55 31.3397 120.233 31.0926C118.821 30.0693 117.727 28.9049 116.951 27.5993C116.21 26.2937 115.822 25.041 115.787 23.8412C115.787 22.6062 116.051 21.4065 116.581 20.242Z" fill="#738942"/>
<path d="M6.09785 24.0092L7.80287 23.7104L6.09785 23.4115C5.02932 23.224 4.18428 21.7708 4.07546 19.9329L3.90144 17L3.72772 19.9325C3.6189 21.7705 2.77387 23.224 1.70534 23.4112L0 23.7104L1.70503 24.0092C2.77355 24.1967 3.61867 25.6499 3.72741 27.4879L3.90113 30.4204L4.07484 27.4875C4.18428 25.6499 5.02909 24.1967 6.09785 24.0092Z" fill="#738942"/>
<path d="M7.68788 19.427L8.27827 19.3236L7.68788 19.2201C7.31789 19.1552 7.02528 18.6519 6.9876 18.0155L6.92734 17L6.86719 18.0154C6.82951 18.6518 6.5369 19.1552 6.16691 19.22L5.57642 19.3236L6.16681 19.427C6.5368 19.4919 6.82943 19.9952 6.86708 20.6316L6.92723 21.647L6.98738 20.6315C7.02528 19.9952 7.31781 19.4919 7.68788 19.427Z" fill="#738942"/>
<path d="M138.082 15.1405L140.062 14.7935L138.082 14.4464C136.841 14.2287 135.86 12.5409 135.733 10.4063L135.531 7.00006L135.329 10.4059C135.203 12.5405 134.222 14.2287 132.981 14.4461L131 14.7935L132.98 15.1405C134.221 15.3583 135.203 17.0461 135.329 19.1807L135.531 22.5866L135.733 19.1803C135.86 17.0461 136.841 15.3583 138.082 15.1405Z" fill="#738942"/>
<path d="M140.418 9.39426L141 9.29218L140.418 9.19011C140.053 9.12606 139.764 8.62965 139.727 8.00183L139.667 7L139.608 8.00172C139.571 8.62954 139.282 9.12606 138.917 9.19001L138.335 9.29218L138.917 9.39426C139.282 9.4583 139.571 9.95472 139.608 10.5825L139.667 11.5843L139.727 10.5824C139.764 9.95472 140.053 9.4583 140.418 9.39426Z" fill="#738942"/>
<path d="M74.123 13.7392L75.2759 13.5372L74.123 13.3351C73.4005 13.2083 72.8292 12.2257 72.7556 10.983L72.6379 9L72.5205 10.9828C72.4469 12.2255 71.8755 13.2083 71.1531 13.3349L70 13.5372L71.1528 13.7392C71.8753 13.866 72.4467 14.8486 72.5203 16.0913L72.6377 18.0741L72.7552 16.0911C72.8292 14.8486 73.4004 13.866 74.123 13.7392Z" fill="#738942"/>
<path d="M27.6401 32.3335L28.9375 32.1062L27.6401 31.8788C26.827 31.7361 26.184 30.6303 26.1012 29.2317L25.9688 27L25.8366 29.2315C25.7538 30.63 25.1107 31.7361 24.2977 31.8785L23 32.1062L24.2974 32.3335C25.1105 32.4762 25.7536 33.5821 25.8363 34.9806L25.9685 37.2121L26.1007 34.9804C26.184 33.5821 26.8268 32.4762 27.6401 32.3335Z" fill="#738942"/>
</svg>
